<?xml version="1.0" standalone="no"?>
<!DOCTYPE svg PUBLIC "-//W3C//DTD SVG 1.1//EN" "http://www.w3.org/Graphics/SVG/1.1/DTD/svg11.dtd" >
<svg xmlns="http://www.w3.org/2000/svg" xmlns:xlink="http://www.w3.org/1999/xlink" version="1.1">
<metadata>
Created by FontForge 20141024 at Sun Jul  5 21:55:13 2015
 By Jimmy Warting
Copyright (c) 2007 by Pol Udomwittaynukul. All rights reserved.
</metadata>
<defs>
<font id="MAXPINJOHNV2" horiz-adv-x="0" >
  <font-face 
    font-family="MAX PINJOHNV2"
    font-weight="400"
    font-stretch="normal"
    units-per-em="2048"
    panose-1="2 0 5 6 3 0 0 2 0 3"
    ascent="1638"
    descent="-410"
    x-height="711"
    cap-height="878"
    bbox="-883 -707 1610 1466"
    underline-thickness="72"
    underline-position="-149"
    unicode-range="U+0020-25CC"
  />
<missing-glyph horiz-adv-x="1536" 
d="M252 0q-10 0 -10 10v1258q0 10 10 10h1006q10 0 10 -10v-1258q0 -10 -10 -10h-1006zM1217 51v1176h-924v-1176h924z" />
    <glyph glyph-name="quotedblleft" unicode="&#x91;&#x91;" horiz-adv-x="655" 
d="M440 1026q20 0 38 -7.5t32 -20.5t22 -31t8 -39q0 -20 -8 -37.5t-22 -31t-32 -21.5t-38 -8q-21 0 -39.5 8t-32 21.5t-21 31t-7.5 37.5q0 88 43.5 146.5t139.5 93.5q2 0 4 0.5t7 0.5q25 0 25 -20v-4q0 -18 -18 -28q-23 -13 -40.5 -23.5t-30 -21t-21 -21.5t-13.5 -25h4z
M185 1026q19 0 37 -7.5t31.5 -20.5t21.5 -31t8 -39q0 -20 -7.5 -37.5t-20.5 -31t-31 -21.5t-39 -8t-39.5 8t-32 21.5t-21 31t-7.5 37.5q0 88 43 146.5t139 93.5q2 0 4 0.5t7 0.5q14 0 20 -6.5t6 -14.5q0 -20 -19 -31q-23 -13 -40.5 -23.5t-29.5 -21t-20.5 -21.5t-13.5 -25h4
z" />
    <glyph glyph-name="quotedblright" unicode="&#x92;&#x92;" horiz-adv-x="655" 
d="M204 970q-43 0 -71.5 29t-28.5 72q0 20 7.5 37.5t21 31t32 21.5t39.5 8q19 0 37 -8t32 -21.5t22 -31t8 -37.5q0 -89 -42.5 -147t-140.5 -93q-2 -1 -8 -1q-28 0 -28 21q0 19 21 32q45 24 68.5 42.5t32.5 44.5h-2zM460 970q-43 0 -71.5 29t-28.5 72q0 20 7.5 37.5t21 31
t32 21.5t39.5 8q19 0 37 -8t31.5 -21.5t21.5 -31t8 -37.5q0 -90 -42 -147.5t-140 -92.5q-2 -1 -8 -1q-29 0 -29 21q0 10 6 18t16 14q45 24 68 42.5t33 44.5h-2z" />
    <glyph glyph-name="rulakkhangyao" unicode="&#xc4;&#xd2;" horiz-adv-x="1307" 
d="M1040 804q51 -41 75.5 -93t24.5 -119v-880l-4 -10q-2 -6 -8 -6h-60q-10 0 -10 10v866q0 104 -72 163q-34 29 -80 42.5t-99 13.5q-68 0 -119 -19q32 -35 49.5 -80.5t17.5 -99.5v-880l-4 -10q-2 -6 -8 -6h-61q-10 0 -10 10v866q0 52 -17 92t-54 71q-34 29 -79.5 42.5
t-100.5 13.5q-56 0 -104 -14.5t-87 -41.5l-31 -31l-5 -7l4 -4q5 -3 9 -6t8 -12v-590h48q10 0 10 -10v-63q0 -10 -10 -10h-119q-10 0 -10 10v580q0 3 -0.5 9.5t-2 12.5t-5.5 11t-11 5h-19q-7 2 -12 7t-8 14t-3 25q2 4 5 8q2 4 5 8t7 9q28 39 61 70.5t68 52.5q45 26 95 36.5
t107 10.5q56 0 103.5 -9.5t88.5 -32.5q42 23 89.5 32.5t104.5 9.5q69 0 127 -16t106 -51z" />
    <glyph glyph-name="lulakkhangyao" unicode="&#xc6;&#xd2;" horiz-adv-x="1240" 
d="M1004 804q53 -41 77.5 -93t24.5 -119v-879l-2 -7q0 -10 -10 -10h-57q-10 0 -10 10v866q0 52 -19 92.5t-54 71.5l1 -1q-38 29 -82.5 42.5t-101.5 13.5q-21 0 -43.5 -2.5t-44.5 -7.5q37 -36 57.5 -84t20.5 -105v-886q0 -10 -10 -10h-64q-10 0 -10 10v866q0 52 -18 92
t-53 72q-2 1 -4 2.5t-4 2.5l-9 6q-4 2 -7.5 4.5t-8.5 4.5q-64 35 -146 35q-72 0 -127 -20.5t-96 -65.5l-3.5 -3.5t-1.5 -3.5q4 -4 6 -5q4 -2 7.5 -5.5t8.5 -11.5v-664q0 -10 -10 -10h-109q-9 0 -9 10v63q0 10 9 10h35v507q0 3 -0.5 9.5t-2.5 12.5t-5 11t-9 5h-20q-6 2 -10 7
t-7 13.5t-3 23.5q1 5 3 9q3 7 12 18q118 170 332 170q47 0 91 -7.5t81 -25.5q38 18 82 25.5t90 7.5q70 0 127.5 -16t105.5 -51z" />
    <glyph glyph-name="copyright2" unicode="&#x3b;&#x3b;For&#x20;Education&#x20;Used&#x20;Only&#x3b;&#x3b;" horiz-adv-x="1153" 
d="M943 436q0 -81 -29.5 -151.5t-80.5 -123.5t-120 -83.5t-147 -30.5q-81 0 -151.5 30.5t-123.5 83.5t-83.5 123.5t-30.5 151.5t30.5 151.5t83.5 123t123.5 83t151.5 30.5q78 0 147 -30.5t120 -83t80.5 -123t29.5 -151.5zM259 436q0 -65 23.5 -123t64.5 -101.5t97 -68.5
t122 -25q61 0 115 25t94 68.5t63 101.5t23 123q0 67 -23 125t-63 101t-94 67t-115 24q-66 0 -122 -24t-97 -67t-64.5 -101t-23.5 -125zM723 574q-4 -10 -13 -6l-11 4q-16 7 -43 15.5t-62 8.5q-80 0 -120 -44t-40 -116q0 -34 10 -64.5t30 -53t50 -35.5t70 -13q37 0 68 10
t51 23q10 5 14 -6l17 -51q3 -8 -5 -12q-68 -34 -157 -34q-55 0 -98.5 17.5t-74 48.5t-46.5 73.5t-16 91.5q0 55 20.5 98.5t54.5 74t79 47t93 16.5q24 0 46 -3t41 -8t33 -10.5t20 -9.5q7 -4 5 -11z" />
    <glyph glyph-name="registered2" unicode="&#x3b;&#x3b;Registered&#x3b;&#x3b;" horiz-adv-x="1296" 
d="M1121 476q0 -97 -36.5 -181t-100 -146.5t-150.5 -98.5t-188 -36q-96 0 -180.5 36t-147 98.5t-98.5 146.5t-36 181q0 96 36 180.5t98.5 147.5t147 99.5t180.5 36.5q101 0 188 -36.5t150.5 -99.5t100 -147.5t36.5 -180.5zM318 476q0 -73 24 -137.5t68.5 -113t107.5 -76.5
t141 -28q68 0 126.5 27.5t101 75t67 110t24.5 131.5q0 73 -24.5 137.5t-68.5 113t-105 76.5t-134 28t-133.5 -27.5t-103.5 -75t-67 -110t-24 -131.5zM593 238q0 -10 -10 -10h-114q-10 0 -10 10v438q0 8 7 10q39 10 80 17t100 7q54 0 87 -10t54 -19l20 -9q19 -10 34.5 -38
t15.5 -58q0 -45 -23 -70t-65 -42q31 -18 49 -43.5t26 -67.5q9 -55 18 -78t17 -31q5 -5 2 -10.5t-10 -5.5h-115q-14 14 -24.5 48t-19.5 73q0 33 -17 43.5t-60 10.5h-42v-165zM593 498h42q44 0 66.5 14t22.5 40q0 32 -19 48.5t-70 16.5h-42v-119z" />
    <glyph glyph-name="trademark2" unicode="&#x3b;&#x3b;Trademark&#x3b;&#x3b;" horiz-adv-x="1938" 
d="M822 1198q10 0 10 -9v-104q0 -9 -10 -9h-188v-500q0 -10 -10 -10h-124q-9 0 -9 10v500h-188q-10 0 -10 9v104q0 9 10 9h519zM1488 566q-3 0 -6 2.5t-3 6.5l-23 364v-1q-4 14 -4.5 54.5t-0.5 89.5q-4 -13 -7.5 -26t-5.5 -26q-7 -27 -12 -52t-9 -48l-118 -347q-2 -7 -9 -7
h-136q-8 0 -10 7l-105 341q-4 23 -10 51t-12 55l-8 35v-126l-22 -364q0 -9 -10 -9h-123q-10 0 -10 11l52 613q0 3 3 5.5t6 2.5h176q7 0 9 -6l107 -308q4 -18 8.5 -32t9.5 -32q3 -10 5 -15.5t3.5 -10l3.5 -10.5t4 -18l1 5q12 31 20 58.5t8 57.5l104 305q2 6 8 6h188
q10 0 10 -8l40 -613q0 -11 -10 -11h-112z" />
    <glyph glyph-name="multiply2" unicode="&#x3b;&#x3b;Multiply&#x3b;&#x3b;" horiz-adv-x="1069" 
d="M775 257l-254 251l-249 -248q-3 -3 -7 -3h-86q-6 0 -8.5 6t2.5 11l293 288l-317 311q-5 5 -2.5 11t9.5 6h86q4 0 7 -3l272 -269l277 272h88q7 0 9.5 -6t-2.5 -11l-314 -311l292 -288q5 -5 2.5 -11t-9.5 -6h-89z" />
    <glyph glyph-name="divide2" unicode="&#x3b;&#x3b;Divide&#x3b;&#x3b;" horiz-adv-x="1292" 
d="M1059 615q10 0 10 -9v-60q0 -10 -10 -10h-848q-9 0 -9 10v60q0 9 9 9h848zM628 376q28 0 46 -18.5t18 -45.5q0 -28 -17.5 -46t-46.5 -18q-23 0 -42.5 18t-19.5 46q0 27 19.5 45.5t42.5 18.5zM628 924q28 0 46 -18.5t18 -46.5q0 -23 -17.5 -42.5t-46.5 -19.5
q-12 0 -23 5.5t-19.5 14t-14 19.5t-5.5 23q0 28 19.5 46.5t42.5 18.5z" />
    <glyph glyph-name=".notdef" horiz-adv-x="1536" 
d="M252 0q-10 0 -10 10v1258q0 10 10 10h1006q10 0 10 -10v-1258q0 -10 -10 -10h-1006zM1217 51v1176h-924v-1176h924z" />
    <glyph glyph-name=".null" 
 />
    <glyph glyph-name="nonmarkingreturn" horiz-adv-x="579" 
 />
    <glyph glyph-name="space" unicode=" " horiz-adv-x="690" 
 />
    <glyph glyph-name="exclam" unicode="!" horiz-adv-x="326" 
d="M210 1142q27 -24 27 -58l-52 -868q0 -9 -10 -9h-30q-10 0 -10 9l-52 868q0 16 7 31.5t17.5 26.5t23 18t24.5 7q25 0 54 -24zM161 122q24 0 43 -18.5t19 -45.5q0 -23 -17 -42.5t-45 -19.5q-27 0 -45.5 19.5t-18.5 42.5q0 27 18.5 45.5t45.5 18.5z" />
    <glyph glyph-name="quotedbl" unicode="&#x22;" horiz-adv-x="575" 
d="M415 805q-8 0 -10 8l-50 284q-1 3 -1 10q0 22 18.5 37t44.5 15q12 0 23.5 -5t21 -13.5t15.5 -20t6 -23.5l-50 -284q-2 -8 -10 -8h-8zM143 805q-8 0 -10 8l-50 284q0 23 20 42.5t46 19.5q24 0 44 -16t20 -40v-6l-48 -284q-2 -8 -10 -8h-12z" />
    <glyph glyph-name="numbersign" unicode="#" horiz-adv-x="1030" 
d="M656 669h-252q-12 -46 -23.5 -87t-23.5 -87h252zM342 748q27 103 55.5 204t55.5 204q2 7 10 7h65q5 0 8.5 -4t1.5 -9l-109 -402h247q28 103 56 204t55 204q2 7 10 7h62q5 0 8.5 -4t1.5 -9l-108 -402h219q10 0 10 -10v-60q0 -9 -10 -9h-242q-11 -46 -23 -87t-24 -87h189
q10 0 10 -10v-60q0 -10 -10 -10h-210l-113 -408q-2 -7 -9 -7h-60q-5 0 -8.5 4t-1.5 9l107 402h-249q-27 -103 -55 -204t-56 -204q-2 -7 -10 -7h-62q-13 0 -9 13l108 402h-220q-9 0 -9 10v60q0 10 9 10h242q12 45 24 86t23 88h-188q-10 0 -10 9v60q0 10 10 10h209z" />
    <glyph glyph-name="dollar" unicode="$" horiz-adv-x="839" 
d="M752 298q0 -72 -22.5 -127t-67.5 -98q-89 -79 -194 -86v-92q0 -10 -10 -10h-70q-10 0 -10 10v96q-89 13 -158 73h1q-100 77 -118 233q-1 5 2 8t8 3h66q8 0 10 -8q12 -53 34.5 -91t57.5 -66h-1q23 -15 47.5 -26.5t50.5 -18.5v416l-3 2q-1 0 -2.5 0.5t-3.5 0.5
q-17 5 -32 9.5t-29 9.5l-21 7q-55 17 -85 36q-52 34 -81.5 83.5t-29.5 110.5q0 72 24.5 127t74.5 99q40 38 88.5 60.5t99.5 27.5v106q0 10 10 10h70q10 0 10 -10v-113q89 -11 161 -70q49 -40 77 -98t38 -134q1 -5 -2 -8t-8 -3h-66q-8 0 -10 8q-26 101 -93 153q-45 33 -97 44
l3 -371q90 -33 145.5 -71.5t86 -78.5t40.5 -79t9 -72v-2zM333 641q13 -4 21 -6t24 -8v353q-35 -4 -67 -17.5t-61 -34.5h1q-35 -29 -54 -63.5t-19 -77.5q0 -39 21.5 -68.5t61.5 -53.5v1q7 -4 17 -7t24 -8h-1l12 -4t11 -4zM659 232q5 11 6 25t1 30q0 28 -13 59q-11 24 -31 45
t-45.5 38t-53.5 31.5t-55 25.5v-396q34 5 66 19t66 39q5 3 9.5 8t8.5 10l5 2l1 2q2 2 3 4.5t3 4.5q6 8 13 19.5t15 28.5v1zM468 498l-10 -9q4 0 5 -1q2 -2 5 -2v12zM626 170l-3 -2q1 0 3 1t0 1z" />
    <glyph glyph-name="percent" unicode="%" horiz-adv-x="930" 
d="M438 957q0 -44 -16.5 -82t-45 -66t-65.5 -44t-79 -16q-44 0 -82 16t-65.5 44t-43.5 66t-16 82q0 42 16 79t43.5 65.5t65.5 45t82 16.5q42 0 79 -16.5t65.5 -45t45 -65.5t16.5 -79zM359 957q0 26 -10 49t-27.5 40t-40.5 27t-49 10q-27 0 -50.5 -10t-41 -27t-27 -40
t-9.5 -49q0 -27 9.5 -50.5t27 -41t41 -27t50.5 -9.5q26 0 49 9.5t40.5 27t27.5 41t10 50.5zM890 207q0 -42 -16 -79.5t-44 -66t-66 -45t-82 -16.5q-42 0 -79 16.5t-65.5 45t-45 66t-16.5 79.5q0 43 16.5 81t45 66t65.5 44t79 16q44 0 82 -16t66 -44t44 -66t16 -81zM810 207
q0 26 -10 49t-27.5 40.5t-41 27.5t-49.5 10t-49.5 -10t-40.5 -27.5t-27 -40.5t-10 -49t10 -49t27 -40.5t40.5 -27.5t49.5 -10t49.5 10t41 27.5t27.5 40.5t10 49zM87 4q-1 -2 -3.5 -3t-4.5 -1h-77q-7 0 -9.5 5.5t1.5 10.5l834 1143q1 2 3.5 3t4.5 1h74q7 0 9.5 -5.5
t-1.5 -10.5z" />
    <glyph glyph-name="ampersand" unicode="&#x26;" horiz-adv-x="1155" 
d="M797 277q-76 109 -150 212.5t-151 212.5q-34 -23 -80.5 -55t-107.5 -77q-65 -55 -104 -122t-39 -136q0 -49 18 -92.5t50.5 -75.5t77.5 -51t98 -19q40 0 83 12t88 33l10 10zM446 959q0 -24 17 -62t52 -87q119 83 119 164q0 20 -6.5 38t-18.5 32t-28 22t-35 8
q-20 0 -38 -9.5t-32 -25.5t-22 -37t-8 -43zM910 260q44 -61 86.5 -122.5t86.5 -121.5q4 -5 1.5 -10.5t-8.5 -5.5h-73q-2 0 -4.5 1t-3.5 3l-151 210q-56 -40 -110 -80t-110 -80q-90 -64 -205 -64q-77 0 -139 28.5t-106 74t-67.5 103t-23.5 116.5q0 90 46 171.5t131 150.5
q28 23 76 56.5t113 77.5q-82 118 -82 191q0 37 13 72t37 62t57 43.5t72 16.5q37 0 68.5 -14.5t54.5 -39.5t35.5 -57t12.5 -68q0 -59 -41 -118t-113 -110q76 -106 149.5 -210t148.5 -211l128 92q9 6 14 -2l36 -55q6 -9 -2 -14z" />
    <glyph glyph-name="quotesingle" unicode="'" horiz-adv-x="301" 
d="M141 805q-8 0 -10 8l-48 284q0 25 18.5 43.5t45.5 18.5t46.5 -18.5t19.5 -43.5l-52 -284q-2 -8 -10 -8h-10z" />
    <glyph glyph-name="parenleft" unicode="(" horiz-adv-x="387" 
d="M350 1147q-39 0 -73 -12.5t-58.5 -33.5t-39 -49t-14.5 -60v-1082q0 -32 14.5 -60.5t39 -49.5t58.5 -33.5t73 -12.5h30q10 0 10 -10v-63q0 -9 -10 -9h-30q-55 0 -103.5 19t-85 52t-57.5 76t-21 91v1082q0 48 21 91t57.5 75.5t85 52t103.5 19.5h30q10 0 10 -10v-63
q0 -10 -10 -10h-30z" />
    <glyph glyph-name="parenright" unicode=")" horiz-adv-x="387" 
d="M0 1147q-10 0 -10 10v63q0 10 10 10h30q55 0 103.5 -19.5t85 -52t58 -75.5t21.5 -91v-1082q0 -48 -21.5 -91t-58 -76t-85 -52t-103.5 -19h-30q-10 0 -10 9v63q0 10 10 10h30q39 0 73 12.5t59 33.5t39 49.5t14 60.5v1082q0 32 -14 60t-39 49t-59 33.5t-73 12.5h-30z" />
    <glyph glyph-name="asterisk" unicode="*" horiz-adv-x="784" 
d="M472 698q-7 -6 -13 2l-75 99q-21 -28 -41.5 -55.5t-41.5 -56.5q-6 -8 -14 -2l-47 37q-8 6 -2 13l82 111l-140 53q-9 4 -6 11l22 56q4 10 11 6l137 -50v153q0 9 10 9h63q10 0 10 -9v-152l111 35q8 2 12 -5l29 -53q2 -5 0.5 -9t-6.5 -6l-122 -40l74 -99q6 -9 -2 -14z" />
    <glyph glyph-name="plus" unicode="+" horiz-adv-x="840" 
d="M653 505q0 8 9.5 8t9.5 -8v-61q0 -8 -9.5 -8t-9.5 8v61zM672 444q0 -9 -9 -9h-200v-199q0 -10 -10 -10h-60q-10 0 -10 10v199h-209q-10 0 -10 9v61q0 10 10 10h209v189q0 10 10 10h60q10 0 10 -10v-189h200q9 0 9 -10v-61z" />
    <glyph glyph-name="comma" unicode="," horiz-adv-x="299" 
d="M66 -155q-4 1 -6 5t-1 7l68 255q2 9 11 7l59 -11q5 -1 7.5 -4.5t0.5 -8.5l-69 -260q-1 -4 -5 -6.5t-8 -0.5z" />
    <glyph glyph-name="hyphen" unicode="-" horiz-adv-x="705" 
d="M564 535q10 0 10 -10v-67q0 -10 -10 -10h-472q-9 0 -9 10v67q0 10 9 10h472z" />
    <glyph glyph-name="period" unicode="." horiz-adv-x="299" 
d="M147 122q28 0 46 -18.5t18 -45.5q0 -23 -18 -42.5t-46 -19.5q-12 0 -23.5 5.5t-20.5 14t-14.5 19.5t-5.5 23q0 27 19.5 45.5t44.5 18.5z" />
    <glyph glyph-name="slash" unicode="/" horiz-adv-x="770" 
d="M683 1031q9 -6 4 -13l-610 -1077q-5 -8 -14 -3l-49 30q-8 6 -4 12l607 1076q5 9 14 4z" />
    <glyph glyph-name="zero" unicode="0" horiz-adv-x="797" 
d="M651 756q29 -35 45 -77t16 -93v-309q0 -51 -16 -92t-45 -77l-12 -11q-12 -12 -25 -22q-50 -35 -106 -53.5t-122 -18.5q-64 0 -121 18t-105 51q-12 11 -21 18.5t-15 13.5q-32 37 -46.5 79t-14.5 91v317q0 48 16 89t46 73q9 9 17.5 17t17.5 16q48 38 105 56t121 18
q66 0 122 -18t106 -54q11 -8 19 -15.5t17 -16.5h1zM633 588q0 23 -5.5 42t-14.5 38v-1q-22 36 -52 60q-17 14 -37.5 25.5t-39.5 19.5h1q-23 8 -47 11t-52 3q-52 0 -93 -14q-21 -8 -42 -19.5t-38 -25.5q-33 -23 -51 -60q-11 -17 -14.5 -37t-5.5 -40v-316q0 -20 4.5 -39
t12.5 -33q11 -21 24 -39t30 -30q17 -14 36.5 -24t41.5 -18v1q23 -7 47.5 -11t47.5 -4q26 0 50 4t45 10q21 8 42 18t38 24h-1q15 12 28.5 29t24.5 35q8 15 14 36t6 41v314z" />
    <glyph glyph-name="one" unicode="1" horiz-adv-x="526" 
d="M337 860q10 0 10 -10v-837q0 -10 -10 -10h-62q-10 0 -10 10v675q-11 -20 -22.5 -40.5t-23.5 -40.5q-5 -9 -14 -4l-52 31q-9 5 -4 14l117 207q2 5 9 5h62z" />
    <glyph glyph-name="two" unicode="2" horiz-adv-x="811" 
d="M243 299q-58 -23 -74 -60v-147h554q9 0 9 -9v-70q0 -10 -9 -10h-634q-9 0 -9 10v229q5 41 32.5 71.5t76.5 53.5q30 14 82 26h-1q17 5 38.5 9.5t47.5 9.5l47 10q57 11 101 25t70 28q36 22 56 52.5t20 66.5q0 47 -21 84.5t-58 65.5q-71 47 -176 47q-27 0 -53 -3t-51 -11
q-21 -5 -40 -14.5t-37 -21.5q-17 -11 -30 -28t-24 -37v1q-9 -18 -14 -38.5t-5 -44.5q0 -10 -10 -10h-62q-10 0 -10 10q0 134 105 209q92 65 231 65q69 0 127.5 -17.5t103.5 -49.5q51 -38 78.5 -91t27.5 -116q0 -118 -100 -184q-14 -8 -35.5 -17.5t-54.5 -22.5
q-26 -8 -57.5 -16.5t-63.5 -13.5q-20 -4 -40 -8.5t-40 -8.5l-34 -6l-8 -2q-20 -5 -34 -9t-22 -7z" />
    <glyph glyph-name="three" unicode="3" horiz-adv-x="811" 
d="M735 594q0 -50 -15.5 -89.5t-50.5 -68.5q35 -31 50.5 -69.5t15.5 -89.5q0 -128 -102 -210q-48 -32 -105.5 -48t-128.5 -16q-138 0 -231 64q-105 77 -105 207q0 10 10 10h63q9 0 9 -10v-6.5t1 -6.5q0 -4 0.5 -7.5t0.5 -7.5q4 -15 8.5 -29.5t9.5 -25.5v1q11 -20 24.5 -35
t28.5 -28h-1q19 -13 40 -23t44 -18l-1 1q23 -5 48 -8.5t51 -3.5q54 0 98 12.5t79 35.5h-1q39 29 59 66.5t20 85.5q0 67 -68 114h-217q-10 0 -10 10v71q0 10 10 10l215 -8l2 4q2 4 3 4q65 42 65 114q0 94 -79 150h1q-35 23 -79 35.5t-98 12.5q-26 0 -51 -3.5t-48 -8.5l1 1
q-22 -8 -43 -18.5t-40 -23.5q-33 -25 -53 -62q-5 -9 -9.5 -23.5t-8.5 -28.5q0 -5 -0.5 -9t-0.5 -7q-1 -5 -1 -8.5v-6.5q0 -10 -9 -10h-63q-10 0 -10 10q0 130 105 210q93 64 231 64q71 0 128.5 -17.5t105.5 -49.5q102 -77 102 -209z" />
    <glyph glyph-name="four" unicode="4" horiz-adv-x="826" 
d="M642 238h125q10 0 10 -10v-70q0 -10 -10 -10h-125v-135q0 -10 -10 -10h-63q-10 0 -10 10v135h-461q-10 0 -10 10v73l473 625q1 2 3.5 3t4.5 1h63q10 0 10 -10v-612zM559 238v480l-366 -480h366z" />
    <glyph glyph-name="five" unicode="5" horiz-adv-x="828" 
d="M735 868q10 0 10 -10v-71q0 -9 -10 -9h-550v-148q8 -19 25.5 -32.5t49.5 -26.5q6 -3 15.5 -5t22.5 -6l22 -6q24 -4 51.5 -9.5t64.5 -13.5q34 -8 66.5 -16.5t58.5 -16.5q27 -9 48 -19t38 -20q98 -66 98 -182q0 -65 -24.5 -117t-78.5 -93q-93 -64 -231 -64q-140 0 -234 64
q-103 79 -103 207q0 10 10 10h62q10 0 10 -10q0 -22 5.5 -43.5t14.5 -39.5q18 -38 54 -62q17 -12 38 -22.5t43 -18.5l-1 1q25 -5 50 -8.5t51 -3.5q50 0 94.5 12.5t78.5 35.5q37 29 58.5 67.5t21.5 84.5q0 71 -75 120l1 -1q-54 30 -170 53h1q-45 5 -77.5 12.5t-57.5 13.5
q-25 8 -45 13.5t-38 13.5q-100 45 -108 127v229q0 10 10 10h630v0z" />
    <glyph glyph-name="six" unicode="6" horiz-adv-x="791" 
d="M156 497q51 37 108 56t120 19q131 0 229 -77q21 -16 34 -37q19 -20 31.5 -43.5t19.5 -46.5l-1 1q1 -1 2 -4q1 -2 1.5 -5t2.5 -7q0 -2 2 -5q2 -10 3 -22.5t1 -30.5q0 -38 -13.5 -87t-49.5 -97q-7 -9 -15 -18t-19 -16l1 1l-9 -7l1 2v1l-2 -4l-3 -2h2q-1 0 -2 -1
q-49 -32 -102 -48t-114 -16q-130 0 -229 75l-19 20l-14 15v-1q-64 73 -64 175v288q0 103 65 176l12 13l9 9t11 10q49 36 107.5 55t121.5 19q66 0 123.5 -19t105.5 -55q9 -8 17 -17.5t15 -17.5q59 -63 63 -146q0 -11 -10 -11h-60q-8 0 -10 9q-2 14 -7 30t-10 30
q-10 15 -23.5 31.5t-31.5 32.5h1q-17 12 -35.5 22.5t-41.5 18.5q-49 17 -96 17q-26 0 -49 -4.5t-46 -12.5q-22 -8 -41.5 -19t-36.5 -22q-16 -13 -29 -30t-23 -35q-11 -19 -15 -40t-4 -44v-93zM603 70l1 1l-2 -3q0 1 0.5 1t0.5 1zM159 371q-11 -19 -15 -39.5t-4 -44.5
q0 -23 4 -43.5t15 -40.5q9 -17 22.5 -33.5t30.5 -31.5h-1q18 -14 37 -25.5t41 -18.5q45 -14 95 -14q28 0 50.5 3.5t45.5 10.5q22 7 41 18.5t36 25.5q17 11 30 27.5t24 35.5l7 16q0 5 2 9v2q5 16 7 30t2 28q0 9 -0.5 17.5t-1.5 15.5q0 1 -0.5 2.5t-0.5 4.5l-3 6
q-2 13 -5.5 22t-6.5 18v-1q-11 18 -24 35t-31 30q-17 14 -35 23.5t-41 17.5q-47 16 -96 16q-50 0 -95 -16q-23 -8 -42 -17.5t-36 -23.5t-30 -30.5t-22 -33.5v-1z" />
    <glyph glyph-name="seven" unicode="7" horiz-adv-x="777" 
d="M64 855q0 10 10 10h616q10 0 10 -10v-72l-393 -775q-3 -8 -13 -4l-54 25q-10 4 -5 13l370 734h-531q-10 0 -10 10v69z" />
    <glyph glyph-name="eight" unicode="8" horiz-adv-x="789" 
d="M707 284q2 -9 3.5 -20.5t1.5 -26.5q0 -31 -12.5 -69.5t-49.5 -76.5q-6 -5 -10.5 -9t-10.5 -9l-14 -11l-4.5 -3t-6.5 -3q-2 0 -6 -1q-45 -27 -98.5 -39.5t-111.5 -12.5q-129 0 -228 62l1 -1q-9 5 -14 8.5t-10 8.5h1l-12 9q-27 27 -43 56.5t-21 64.5v22q0 28 7.5 52
t17.5 42.5t20.5 31.5t16.5 20q19 18 36 29l-1 -1q27 18 55 29q-13 6 -23.5 12t-21.5 12q-8 8 -16.5 13.5t-14.5 10.5l-5 4q-24 24 -39.5 55.5t-20.5 62.5v5q-2 5 -2.5 8t-0.5 8q0 28 7.5 51t18 41t21.5 31t17 20l11 10q8 8 24 16l-1 -1q95 60 220 60q128 0 219 -62l-1 1
q9 -6 17.5 -12t17.5 -15v1q36 -33 50 -75q0 -1 1 -3t4 -10v-4q5 -17 5 -47t-12 -67.5t-48 -73.5q-13 -13 -25 -22l-7 -6q-4 -4 -11 -6q-2 -2 -3 -2l-12 -6l-7 -3.5t-7 -2.5t-12 -4q14 -6 30.5 -14.5t27.5 -17.5q19 -13 35 -26q17 -16 30 -36.5t21 -39.5l3 -13zM601 460
q0 -1 -1 -2q1 0 1 2zM177 564q17 -25 48 -49l-1 1q15 -9 34 -17.5t40 -14.5t43.5 -8t43.5 -2q24 0 46.5 2t44.5 8q20 6 39 14t34 18l-1 -1q15 12 27.5 23.5t21.5 25.5q4 5 5 8t2 5q0 1 1 3q2 5 3 5q6 21 6 38.5t-2 30.5q-1 1 -1 4q0 1 -1 3q-2 6 -5.5 14.5t-7.5 13.5
q-9 14 -22 26.5t-27 22.5q-14 11 -33 19t-40 14q-22 5 -44 9t-46 4q-21 0 -44 -4t-44 -9h1q-46 -12 -74 -33q-29 -19 -47 -49q-17 -28 -17 -62q0 -15 4 -31.5t13 -31.5zM629 194q-7 0 -7 -2l1 4q8 18 9 35t-1 28q-4 2 -4 7v4q-2 5 -4 9l-4 8l-8 13q-6 13 -17.5 22.5
t-25.5 19.5l-7 5q-16 11 -35.5 18.5t-42.5 12.5q-24 6 -47 9.5t-48 3.5q-26 0 -51 -3.5t-48 -9.5h1q-21 -5 -41 -12.5t-37 -18.5l1 1l-5 -4q-13 -11 -25.5 -21.5t-20.5 -22.5q-20 -28 -20 -61v-4q0 -30 19 -62l-2 2q23 -27 53 -50l-1 1q17 -10 37.5 -19t43.5 -15
q23 -5 47.5 -7t48.5 -2q26 0 50 2t47 7h-1q22 6 41.5 15t36.5 19v-1q15 10 28.5 22t21.5 25l4 8q2 2 5 7t2 4z" />
    <glyph glyph-name="nine" unicode="9" horiz-adv-x="823" 
d="M662 748q64 -73 64 -175v-288q0 -101 -65 -175l-5 -5q-7 -8 -14.5 -15t-13.5 -12q-99 -75 -229 -75q-129 0 -228 75q-22 15 -33 35q-56 61 -64 146q-1 4 2 7t8 3h61q8 0 10 -8q2 -14 6 -27t9 -25l3 -7v1q10 -17 24 -34.5t27 -30.5q19 -14 39 -25.5t41 -18.5
q45 -14 95 -14q51 0 96 14q22 7 41 18.5t36 25.5q17 12 29.5 28.5t22.5 36.5v-1q9 18 14.5 39t5.5 44v93q-4 -5 -8 -8t-8 -7q-51 -35 -107.5 -55t-121.5 -20q-66 0 -122 20t-106 58q-11 8 -19.5 16.5t-14.5 19.5q-20 20 -32.5 44t-20.5 49v3q0 2 -0.5 4t-1.5 7q0 -2 -3 3
q-1 9 -2 21t-1 30q0 19 2.5 41.5t9 46.5t18.5 49t32 50q6 8 14.5 18t19.5 16l-4 -5l8 7h2q1 2 3 4q5 5 6 5q92 62 212 62q64 0 121 -18t108 -57q9 -8 15.5 -14.5t10.5 -11.5l7 -8h1zM644 573q0 24 -5.5 45t-14.5 42v-1q-10 16 -22.5 32.5t-30.5 32.5h1q-15 11 -35 22t-42 19
q-25 8 -49 12.5t-47 4.5q-26 0 -50 -4t-47 -12q-20 -7 -39.5 -18t-38.5 -24l1 1q-16 -14 -29.5 -31t-22.5 -34q-2 -4 -3.5 -9t-3.5 -10q0 -6 -4 -8q1 0 1 -1q-5 -14 -7 -27.5t-2 -26.5q0 -9 0.5 -17.5t1.5 -15.5q0 -2 0.5 -4.5t0.5 -6.5l3 -6q5 -24 13 -39v1
q11 -19 23.5 -35.5t28.5 -28.5h-1q20 -17 39 -27t41 -17q45 -14 95 -14q51 0 96 14q23 7 42 17t36 27q16 11 28.5 27.5t22.5 36.5v-1q9 19 14.5 39.5t5.5 44.5zM161 632l1 1z" />
    <glyph glyph-name="colon" unicode=":" horiz-adv-x="299" 
d="M147 122q28 0 46 -18.5t18 -45.5q0 -23 -18 -42.5t-46 -19.5q-12 0 -23.5 5.5t-20.5 14t-14.5 19.5t-5.5 23q0 27 19.5 45.5t44.5 18.5zM147 771q28 0 46 -18.5t18 -45.5q0 -28 -18 -46.5t-46 -18.5q-25 0 -44.5 18.5t-19.5 46.5q0 27 19.5 45.5t44.5 18.5z" />
    <glyph glyph-name="semicolon" unicode=";" horiz-adv-x="299" 
d="M147 771q28 0 46 -18.5t18 -45.5q0 -28 -18 -46.5t-46 -18.5q-25 0 -44.5 18.5t-19.5 46.5q0 27 19.5 45.5t44.5 18.5zM138 153q2 7 9 7h62q5 0 8.5 -4t1.5 -9l-105 -394q-2 -7 -10 -7h-62q-5 0 -8.5 4t-1.5 9z" />
    <glyph glyph-name="less" unicode="&#x3c;" horiz-adv-x="866" 
d="M145 435l711 -416q7 -4 5 -11.5t-10 -7.5h-127l-679 400q-11 7 -17.5 15t-4.5 21v-1q0 21 22 35l679 399h120q7 0 9 -7.5t-5 -11.5z" />
    <glyph glyph-name="equal" unicode="=" horiz-adv-x="913" 
d="M654 482h-438h-6v80h6h438v-80zM654 296h-438h-6v80h6h438v-80z" />
    <glyph glyph-name="greater" unicode="&#x3e;" horiz-adv-x="866" 
d="M1 850q-7 4 -5 11.5t10 7.5h122l678 -399q24 -15 24 -35q0 -23 -25 -35h1l-678 -400h-128q-8 0 -10 7.5t5 11.5l710 416z" />
    <glyph glyph-name="question" unicode="?" horiz-adv-x="872" 
d="M555 1161q44 0 83.5 -16t69.5 -44.5t47.5 -67t17.5 -83.5v-205q0 -48 -18.5 -87.5t-50 -67t-74.5 -43t-92 -15.5q-70 0 -114 -35.5t-44 -96.5v-207q0 -10 -9 -10h-61q-10 0 -10 10v207q0 46 17 85t48 67t75 43.5t98 15.5q33 0 61 9.5t49 27.5t33 42.5t12 54.5v205
q0 27 -11 51t-29.5 41.5t-44 28t-53.5 10.5h-463q-9 0 -9 10v60q0 10 9 10h463zM340 122q24 0 44 -18.5t20 -45.5q0 -23 -18 -42.5t-46 -19.5q-27 0 -45.5 19.5t-18.5 42.5q0 27 18.5 45.5t45.5 18.5z" />
    <glyph glyph-name="at" unicode="@" horiz-adv-x="1317" 
d="M515 46q-181 0 -181 175q17 81 35.5 154t42.5 141l-1 -1q10 41 36.5 78t63 65t78.5 44.5t83 16.5h99q49 0 82 -12t54 -35q2 10 5.5 19.5t5.5 19.5q2 8 10 8h61q5 0 8.5 -4t1.5 -9l-125 -463q-6 -22 -7.5 -37.5t-1.5 -28.5q0 -53 47 -53q41 0 80.5 32t70.5 82.5t50 113
t19 123.5q0 49 -13.5 95t-37 87.5t-55 76t-67.5 61.5q-122 97 -292 97q-110 0 -202 -41t-158 -112.5t-103 -167.5t-37 -205q0 -106 36.5 -198t105 -160t166 -107t220.5 -39q318 0 432 222l9 15q2 5 9 5h67q6 0 8.5 -4.5t0.5 -9.5l-23 -45q-33 -62 -82.5 -110.5t-113 -82.5
t-138.5 -51.5t-159 -17.5q-135 0 -249 43t-197 120t-129.5 183.5t-46.5 233.5q0 132 46 244t125 193.5t185.5 127.5t227.5 46q96 0 182.5 -30t157 -84.5t121 -130.5t73.5 -168v1q5 -17 8 -37t3 -44q0 -80 -24 -158t-65 -140.5t-95.5 -101t-115.5 -38.5q-94 0 -114 81
q-40 -37 -86.5 -57.5t-97.5 -20.5h-99zM614 129q70 0 114 31.5t65 98.5l71 257v-1q4 16 4 35q0 86 -97 86h-99q-44 0 -79.5 -18t-61.5 -51q-20 -29 -43 -94t-52 -162v1l-17 -97q0 -86 96 -86h99z" />
    <glyph glyph-name="A" unicode="A" horiz-adv-x="721" 
d="M406 862q8 0 10 -7l275 -845q2 -5 -1.5 -9t-8.5 -4h-66q-7 0 -9 7l-122 388h-240l-127 -388q-2 -7 -10 -7h-66q-13 0 -9 13l285 845q2 7 8 7h81zM461 463l-95 301q-25 -78 -48 -150t-49 -151h192z" />
    <glyph glyph-name="B" unicode="B" horiz-adv-x="693" 
d="M552 794q49 -55 49 -134v-8l-3 -22v-5q-3 -46 -21 -79t-36 -53q-2 -3 -5.5 -6.5l-6.5 -6.5q-4 -4 -8 -6q5 -2 8.5 -5t8.5 -6l-5 1q2 0 2.5 -0.5t1.5 -0.5q23 -15 35 -39.5t18 -47.5q7 -27 8 -57v-126q-3 -32 -14 -60t-33 -51l-9 -8q-11 -12 -19 -18l1 1
q-40 -29 -84 -43.5t-95 -14.5q-48 0 -95 14.5t-85 41.5l-9 8q-5 4 -10 8.5t-10 9.5v-1q-49 55 -49 135v650q0 10 10 10h54q10 0 10 -10v-50l5 3l-1 -1q38 29 83.5 43.5t96.5 14.5t94.5 -14t84.5 -42q5 -4 9 -8l9 -9l9 -8h1zM526 339q-2 11 -5.5 22.5t-10.5 20.5
q-17 18 -43 28.5t-49 16.5q-28 6 -57 9h-200v-217q0 -30 14 -60q14 -26 39 -47q20 -17 53 -26q36 -16 76 -16q38 0 76 16q13 5 27 11.5t25 14.5q11 11 22 24t17 25q7 10 10.5 19t5.5 22v137zM361 501q50 0 81.5 14.5t49.5 35.5t25 44.5t9 41.5v25q-2 17 -5.5 30t-11.5 28
q-6 9 -16 21t-22 22q-13 12 -27.5 19.5t-29.5 13.5v-1q-33 9 -71 9q-19 0 -35.5 -2t-35.5 -7v1q-18 -7 -32.5 -14.5t-26.5 -18.5q-12 -8 -21.5 -20.5t-16.5 -24.5q-14 -31 -14 -60v-157h200z" />
    <glyph glyph-name="C" unicode="C" horiz-adv-x="655" 
d="M510 823q15 -12 26 -26q52 -57 52 -133v-17q0 -10 -10 -10h-55q-10 0 -10 10v12q0 32 -12 59q-7 12 -17 23.5t-24 22.5q-12 11 -27 18t-29 12q-16 6 -34.5 8.5t-37.5 2.5q-40 0 -69 -11q-17 -5 -32 -12t-28 -19q-26 -20 -39 -45v1q-5 -10 -8 -20.5t-4 -22.5v-456
q0 -15 2.5 -29.5t9.5 -28.5v1q8 -14 18.5 -27t24.5 -22q8 -7 21.5 -14t28.5 -13h-1q1 -1 4 -1q17 -5 36 -8.5t36 -3.5q20 0 38 3t32 8h-1q17 7 32 14.5t28 17.5q27 19 40 46v-1q12 28 12 60v27q0 10 10 10h55q10 0 10 -10v-29q0 -39 -13 -70.5t-39 -60.5q-5 -7 -11.5 -13.5
l-14.5 -14.5q-38 -27 -83.5 -41.5t-96.5 -14.5q-49 0 -94 14.5t-84 41.5q-10 6 -16 16q-3 5 -8 8q-26 29 -39.5 62t-13.5 73l2 29v437q4 30 16 58t33 50q6 8 12.5 14t13.5 12q77 59 178 59q51 0 96.5 -14.5t83.5 -41.5z" />
    <glyph glyph-name="D" unicode="D" horiz-adv-x="691" 
d="M552 816q6 -4 10.5 -9t9.5 -10v1q23 -27 36 -61t13 -73v-466q-4 -32 -17 -59.5t-32 -49.5q-3 -4 -7.5 -8t-9.5 -9l-11 -11q-39 -27 -84 -41.5t-95 -14.5h-247q-10 0 -10 10v854q0 10 10 10h247q50 0 96 -15.5t88 -44.5zM547 664q0 16 -4.5 29t-11.5 27q-8 15 -17 26
t-22 21q-26 21 -52 28q-18 7 -38 10.5t-37 3.5h-183v-730h183q36 0 67 10q35 11 59 29q27 25 41 48q5 7 7.5 18.5t7.5 23.5v456z" />
    <glyph glyph-name="E" unicode="E" horiz-adv-x="706" 
d="M187 817q77 59 178 59h247q10 0 10 -10v-54q0 -10 -10 -10h-247q-18 0 -35 -2.5t-36 -8.5h1q-15 -5 -29.5 -12t-28.5 -19q-26 -20 -38 -45v1q-5 -10 -8 -20.5t-5 -22.5v-220h426q10 0 10 -10v-49q0 -10 -10 -10h-426v-167q0 -15 3.5 -29.5t9.5 -28.5v1q7 -14 17.5 -27
t24.5 -22q20 -15 50 -27h-1q1 -1 4 -1q18 -5 35 -8.5t36 -3.5h247q10 0 10 -10v-49q0 -10 -10 -10h-247q-51 0 -95.5 14.5t-82.5 41.5q-10 7 -17 13.5t-12 11.5q-23 27 -36 60.5t-13 73.5v466q4 31 16.5 58t32.5 50q6 8 13.5 14t15.5 12z" />
    <glyph glyph-name="F" unicode="F" horiz-adv-x="734" 
d="M194 817q38 29 82.5 44t98.5 15h245q10 0 10 -10v-54q0 -10 -10 -10h-245q-41 0 -70 -11q-17 -5 -32 -12t-27 -18q-13 -10 -23 -21.5t-18 -24.5l1 1q-4 -10 -7 -20.5t-5 -22.5v-220h426q10 0 10 -10v-49q0 -10 -10 -10h-426v-372q0 -10 -10 -10h-55q-10 0 -10 10v670
q2 32 14.5 59t32.5 50l14.5 14.5t13.5 11.5z" />
    <glyph glyph-name="G" unicode="G" horiz-adv-x="713" 
d="M520 820q9 -6 15.5 -11.5t14.5 -13.5q24 -28 37 -61.5t13 -72.5v-17q0 -10 -10 -10h-54q-10 0 -10 10v12q0 32 -13 60l1 -1q-8 13 -17 24.5t-24 21.5q-11 11 -26 18t-31 12q-17 6 -34.5 8.5t-36.5 2.5q-20 0 -37 -2.5t-34 -8.5q-16 -5 -31 -12t-30 -18h1
q-12 -11 -22.5 -23.5t-17.5 -26.5q-2 -3 -5 -14.5t-8 -25.5v-454q0 -14 3 -27.5t11 -25.5q7 -14 17 -28t21 -22q30 -21 60 -32l-1 1q18 -5 36 -8.5t37 -3.5q18 0 35 3.5t35 8.5l-1 -1q17 6 31.5 13.5t26.5 18.5q14 11 24 23t18 23h-1q5 8 8 19t5 21v181h-228q-10 0 -10 10
v55q0 10 10 10l292 -3q10 0 10 -10v-426q0 -10 -10 -10h-54q-10 0 -10 10v45l-7 -5l1 1q-37 -27 -82 -41.5t-96 -14.5q-50 0 -95 14.5t-83 41.5q-6 5 -12 11l-11 11l-3 3q-27 28 -39 61t-12 73v466q3 31 16 58t34 50q6 8 13 14.5t14 11.5q38 27 84 43t94 16q51 0 96 -14.5
t82 -41.5z" />
    <glyph glyph-name="H" unicode="H" horiz-adv-x="762" 
d="M576 866q0 10 10 10h54q10 0 10 -10v-854q0 -10 -10 -10h-54q-10 0 -10 10v391h-361v-391q0 -10 -9 -10h-54q-10 0 -10 10v854q0 10 10 10h54q9 0 9 -10v-394h361v394z" />
    <glyph glyph-name="I" unicode="I" horiz-adv-x="252" 
d="M87 869q0 9 10 9h54q10 0 10 -9v-855q0 -10 -10 -10h-54q-10 0 -10 10v855z" />
    <glyph glyph-name="J" unicode="J" horiz-adv-x="634" 
d="M89 0q-9 0 -9 10v54q0 10 9 10h191q20 0 36.5 2.5t33.5 8.5q17 5 32 13t28 16l-2 -1q12 12 21 23t17 25v-1q5 7 8 19t8 25v660q0 10 10 10h54q10 0 10 -10v-671q-4 -33 -17 -60.5t-33 -48.5l-28 -28q-38 -27 -82.5 -41.5t-95.5 -14.5h-191z" />
    <glyph glyph-name="K" unicode="K" horiz-adv-x="776" 
d="M382 401q-9 0 -13 -0.5t-7 -0.5t-7 0.5t-12 2.5q78 -88 156.5 -175.5t156.5 -175.5q7 -7 0 -14l-41 -35q-7 -7 -13 0l-401 448v-434q0 -10 -10 -10h-54q-10 0 -10 10v852q0 10 10 10h54q10 0 10 -10v-271q0 -10 3 -19t7 -16q8 -15 19.5 -29.5t26.5 -23.5q9 -8 22.5 -14.5
t31.5 -14.5l-1 1q17 -5 35 -8.5t34 -3.5q20 0 38 3.5t35 8.5l-1 -1q17 8 32.5 15t27.5 17q11 9 22 21.5t19 24.5h-1q5 12 8.5 27.5t3.5 29.5v248q0 10 10 10h54q10 0 10 -10v-248q0 -40 -12 -73t-38 -61l-6 -6q-5 -5 -9 -9.5t-10 -9.5q-38 -27 -83.5 -41.5t-96.5 -14.5z" />
    <glyph glyph-name="L" unicode="L" horiz-adv-x="666" 
d="M572 -2l-201 2q-53 0 -97.5 14.5t-82.5 41.5l-28 28q-20 22 -32.5 49.5t-14.5 60.5v670q0 10 10 10h54q10 0 10 -10v-663q2 -11 5 -21.5t8 -19.5q5 -11 13.5 -19.5l19.5 -19.5l7 -7q12 -8 27 -16.5t31 -12.5q29 -11 70 -11h191q10 0 10 -10v-66z" />
    <glyph glyph-name="M" unicode="M" horiz-adv-x="1155" 
d="M335 762l-222 -755q-2 -7 -10 -7h-59q-5 0 -8.5 4t-1.5 9l255 843q2 7 10 7h75q7 0 9 -7l203 -694l209 694q2 7 10 7h77q8 0 10 -7l245 -843q2 -5 -1.5 -9t-8.5 -4h-59q-8 0 -10 7l-215 756q-53 -183 -109 -369t-119 -394h-60z" />
    <glyph glyph-name="N" unicode="N" horiz-adv-x="786" 
d="M611 864q0 10 10 10h56q10 0 10 -10v-854q0 -10 -10 -10h-51l-10 5l-5 7l-438 722v-724q0 -10 -10 -10h-54q-10 0 -10 10v854q0 10 11 10l54 -3q5 0 8 -5l439 -720v718z" />
    <glyph glyph-name="O" unicode="O" horiz-adv-x="697" 
d="M528 814q7 -5 13 -10.5t10 -10.5q22 -26 35.5 -61t13.5 -73v-444q0 -41 -13 -72.5t-36 -58.5v1l-29 -29q-38 -27 -82.5 -41.5t-97.5 -14.5q-50 0 -94.5 14.5t-82.5 41.5l1 -1q-4 2 -8 6l-8 8l-13 12q-24 27 -37 60.5t-13 74.5l3 29v436q6 64 48 109q8 8 13.5 14t13.5 11
q36 27 82.5 43t96.5 16q51 0 95.5 -15t82.5 -41zM528 654q0 16 -4.5 30.5t-11.5 28.5q-12 26 -37 46q-14 11 -29 18t-30 12q-17 6 -34 8.5t-38 2.5q-19 0 -36 -2.5t-34 -8.5q-16 -5 -31 -12t-29 -19q-14 -11 -22 -22t-16 -23l1 1q-3 -8 -5.5 -17.5t-4.5 -20.5q0 -5 -3 -7
v-454q0 -29 12 -56l4 -5q8 -11 15 -22t18 -18q15 -12 30.5 -20t31.5 -14h-1q14 -5 32.5 -8t37.5 -3q18 0 35.5 3.5t37.5 8.5l-1 -1q15 6 30.5 14t28.5 18q24 21 37 45q7 14 11.5 29t4.5 31v437z" />
    <glyph glyph-name="P" unicode="P" horiz-adv-x="702" 
d="M558 790v2q0 1 1 1q51 -56 51 -134v-177q0 -80 -51 -135l-4 -4q-13 -14 -22 -21q-38 -27 -84 -42.5t-97 -15.5q-101 0 -178 56q-2 0 -3 1v-311q0 -10 -10 -10h-54q-10 0 -10 10v497l2 154v19q2 32 14.5 59t32.5 50q3 6 11 12l-1 -1l18 15q38 27 84.5 43t96.5 16
q49 0 94.5 -15t83.5 -41q9 -7 22 -21zM539 654q0 16 -5 31t-11 29l1 -1q-8 11 -18 23.5t-20 22.5q-14 11 -31.5 18.5t-34.5 13.5q-12 5 -29.5 7t-35.5 2q-20 0 -37 -2.5t-34 -8.5q-17 -5 -31 -12t-28 -19q-14 -10 -22.5 -21.5t-16.5 -23.5l1 1q-10 -18 -14 -43v-189
q0 -33 14 -59h-1q9 -14 19 -26t27 -25q8 -7 20.5 -13.5t26.5 -12.5h-1q1 -1 4 -1q18 -5 36 -7t37 -2q17 0 34.5 2t35.5 7l-1 -1q17 8 33 15.5t29 17.5q10 9 20 21.5t18 24.5l-1 -1q6 13 11 28t5 32v172zM275 347q0 -1 1 -1h2z" />
    <glyph glyph-name="Q" unicode="Q" horiz-adv-x="708" 
d="M524 818q10 -7 16 -12.5t12 -13.5q26 -28 37.5 -61.5t11.5 -71.5v-649q0 -10 -10 -10h-52q-10 0 -10 10v50l-5 -4q-39 -27 -83 -41.5t-95 -14.5q-52 0 -96 14.5t-83 41.5l1 -1q-8 5 -13 10.5t-10 10.5l-4 5q-27 28 -39 61t-12 73v466q4 31 17 58t33 50q10 16 28 27l-1 -1
q38 29 82 44t97 15q51 0 95 -14.5t83 -41.5zM529 654q0 33 -13 59h1q-8 13 -17.5 24.5t-22.5 21.5t-28.5 17.5t-31.5 12.5q-17 6 -33.5 8.5t-35.5 2.5q-18 0 -37 -3t-38 -11q-16 -5 -30 -11t-26 -16q-22 -20 -36 -44q-8 -11 -10.5 -22t-6.5 -24v-454q0 -29 16 -57
q7 -13 16.5 -25.5t20.5 -20.5q25 -18 59 -32l-1 1q18 -5 36.5 -8.5t36.5 -3.5t35 3.5t35 8.5l-1 -1q34 14 60 32q13 10 22.5 21.5t17.5 24.5l-1 -1q13 27 13 60v437z" />
    <glyph glyph-name="R" unicode="R" horiz-adv-x="702" 
d="M526 325q-16 -11 -31.5 -20t-33.5 -17l157 -245q5 -9 -3 -14l-47 -28q-7 -4 -13 4l-170 265q-8 -1 -17 -1h-20q-49 0 -95.5 14.5t-84.5 41.5l-1 1v-314q0 -10 -10 -10h-57q-10 0 -10 10v498l3 178q3 29 15.5 56t31.5 50l5 4l5 4l18 18q78 56 180 56q50 0 93.5 -13
t81.5 -41q-1 0 6 -5t10 -7l9 -7q2 -1 3 -3.5t1 -4.5l3 -1q49 -55 49 -133v-177q0 -78 -50 -134q-2 -2 -3 -2q-1 -1 -1 -2t-1 -1l-14 -13l-8 -6zM278 349q14 -5 32 -8t38 -3q18 0 35.5 3.5t37.5 8.5q14 5 29.5 11.5t27.5 16.5q27 21 37 45q17 25 17 61v173q0 34 -17 61
q-10 23 -37 45l1 -1q-13 10 -27 17.5t-31 12.5q-18 6 -35.5 9t-37.5 3q-34 0 -70 -12q-16 -5 -31 -12.5t-27 -16.5q-11 -11 -21 -23t-18 -29q-6 -10 -9 -18.5t-5 -16.5v-192q0 -36 17 -61q6 -13 15.5 -24t20.5 -21q12 -10 26.5 -16.5t31.5 -11.5v-1zM167 677l-1 -3q0 1 1 2
v1z" />
    <glyph glyph-name="S" unicode="S" horiz-adv-x="671" 
d="M487 417q23 -16 41 -34t31 -40q23 -43 23 -101q0 -53 -19 -97t-57 -78q-40 -35 -87 -53t-99 -18q-42 0 -79.5 13.5t-67.5 33.5q-32 24 -56.5 57t-40.5 78q-3 9 5 12l47 20q9 4 13 -5q14 -34 32.5 -61.5t41.5 -47.5q22 -17 48.5 -27.5t58.5 -10.5q76 0 133 54
q56 56 56 135q0 56 -52 98q-12 11 -37.5 26t-63.5 34l-147 81q-89 55 -89 155q0 50 16 89t46 71q59 59 155 59q136 0 207 -116q3 -7 -2 -12l-38 -32q-9 -7 -14 1q-17 24 -34 41.5t-34 29.5q-36 21 -88 21q-14 0 -27.5 -2t-24.5 -7q-29 -11 -48 -34q-20 -20 -32 -53
q-11 -24 -11 -52t11.5 -49.5t34.5 -41.5q9 -7 31 -20l-4 1q2 -2 5 -2q13 -8 29 -17t33 -18l153 -80z" />
    <glyph glyph-name="T" unicode="T" horiz-adv-x="545" 
d="M94 864q0 10 10 10h335q10 0 10 -10v-54q0 -10 -10 -10h-131v-790q0 -10 -10 -10h-54q-10 0 -10 10v790h-130q-10 0 -10 10v54z" />
    <glyph glyph-name="U" unicode="U" horiz-adv-x="718" 
d="M536 857q0 10 10 10h54q10 0 10 -10v-649q0 -40 -12.5 -71.5t-37.5 -59.5l-27 -28q-38 -27 -82 -41.5t-98 -14.5q-49 0 -94 14.5t-84 41.5l1 -1q-4 2 -7.5 6t-6.5 8l-14 12q-49 55 -49 134l2 29v615q0 10 9 10h55q9 0 9 -10v-644q0 -28 14 -58q7 -13 17.5 -26t24.5 -22
q18 -15 56 -29l-1 1q17 -5 35 -8.5t36 -3.5t35 3.5t35 8.5l-1 -1q17 7 32 14.5t28 17.5q24 19 38 46v-1q6 14 9.5 28.5t3.5 31.5v647v0z" />
    <glyph glyph-name="V" unicode="V" horiz-adv-x="748" 
d="M638 867q2 7 10 7h64q13 0 9 -13l-285 -854q-2 -7 -9 -7h-82q-8 0 -10 7l-277 854q-2 5 1.5 9t8.5 4h66q8 0 10 -7l243 -769z" />
    <glyph glyph-name="W" unicode="W" horiz-adv-x="1156" 
d="M835 100l222 755q2 7 10 7h59q5 0 8.5 -4t1.5 -9l-255 -843q-2 -7 -10 -7h-75q-7 0 -9 7l-203 694l-209 -694q-2 -7 -10 -7h-77q-8 0 -10 7l-245 843q-2 5 1.5 9t8.5 4h59q8 0 10 -7l215 -756q27 91 54 183t55 186t57.5 192t61.5 202h60z" />
    <glyph glyph-name="X" unicode="X" horiz-adv-x="750" 
d="M670 0q-2 0 -4.5 1t-3.5 3l-287 394l-286 -394q-1 -2 -3.5 -3t-4.5 -1h-56q-7 0 -9.5 5.5t1.5 10.5l319 438l-144 196t-143 195q-4 5 -1.5 10.5t8.5 5.5h60q2 0 4.5 -1t3.5 -3l251 -347l253 347q2 4 7 4h58q7 0 9.5 -5.5t-1.5 -10.5l-284 -391l317 -438q4 -5 1.5 -10.5
t-9.5 -5.5h-56z" />
    <glyph glyph-name="Y" unicode="Y" horiz-adv-x="576" 
d="M487 867q12 0 8 -13l-156 -448v-396q0 -10 -10 -10h-68q-10 0 -10 10v396q-42 113 -83 224t-83 224q-2 5 0.5 9t7.5 4h71q7 0 9 -7l125 -355l121 355q2 7 9 7h59z" />
    <glyph glyph-name="Z" unicode="Z" horiz-adv-x="739" 
d="M186 79h427q10 0 10 -10v-59q0 -10 -10 -10h-542q-6 0 -9 5t0 10l261 472l34 59l140 254h-426q-10 0 -10 10v59q0 10 10 10h542q6 0 9 -5t0 -10l-212 -385q-8 -14 -17 -29.5t-16 -29.5z" />
    <glyph glyph-name="bracketleft" unicode="[" horiz-adv-x="387" 
d="M165 1141v-1396h215q10 0 10 -9v-60q0 -10 -10 -10h-288q-9 0 -9 10v1536q0 10 9 10h288q10 0 10 -10v-61q0 -10 -10 -10h-215z" />
    <glyph glyph-name="backslash" unicode="\" horiz-adv-x="799" 
d="M-29 1248q-2 5 0.5 9.5t8.5 4.5h68q6 0 9 -5l759 -1341q3 -5 0 -9.5t-9 -4.5h-70q-7 0 -9 5z" />
    <glyph glyph-name="bracketright" unicode="]" horiz-adv-x="367" 
d="M0 1141q-10 0 -10 10v61q0 10 10 10h288q10 0 10 -10v-1536q0 -10 -10 -10h-288q-10 0 -10 10v60q0 9 10 9h215v1396h-215z" />
    <glyph glyph-name="asciicircum" unicode="^" horiz-adv-x="891" 
d="M405 1138q15 21 31 21q21 0 35 -21l405 -636q4 -5 1 -9.5t-9 -4.5h-73q-6 0 -8 5l-351 548q-88 -140 -174 -274.5t-174 -273.5q-3 -5 -7 -5h-73q-6 0 -9 4.5t1 9.5z" />
    <glyph glyph-name="underscore" unicode="_" horiz-adv-x="511" 
d="M479 4q10 0 10 -10v-61q0 -10 -10 -10h-465q-10 0 -10 10v61q0 10 10 10h465z" />
    <glyph glyph-name="grave" unicode="`" horiz-adv-x="455" 
d="M358 906l-240 146l-7 5l1 -1q-14 10 -21.5 19.5t-7.5 33.5q0 22 15.5 36t36.5 14h11q2 -1 6 -1q4 -1 8 -3t12 -8.5t23 -21t41 -40t65.5 -65l97.5 -97.5q5 -5 2.5 -11t-9.5 -6h-34z" />
    <glyph glyph-name="a" unicode="a" horiz-adv-x="710" 
d="M635 262q0 -23 -3 -45.5t-11 -42.5l22 -138q1 -5 -2 -8.5t-7 -3.5h-52q-8 0 -10 8l-14 60l-8 -7q-42 -31 -92.5 -48.5t-105.5 -17.5q-58 0 -107 17t-94 47q-10 8 -16.5 14.5t-13.5 14.5q-25 24 -40 54.5t-15 65.5v51q0 11 1 22t3 19q0 3 7 5q8 23 18 41.5t27 36.5l5 5
q5 5 10.5 11.5t13.5 11.5q86 65 201 65q56 0 106 -15t92 -47q9 -9 13 -12v76q0 17 -4.5 35t-12.5 32q-8 17 -19 30t-25 24q-16 11 -32.5 21t-34.5 16q-20 7 -40.5 9.5t-42.5 2.5q-23 0 -44 -2.5t-40 -9.5q-17 -7 -36 -17t-33 -20q-26 -21 -45 -54q-7 -11 -10 -22.5t-5 -26.5
q-2 -8 -9 -8h-53q-10 0 -10 10q2 35 16.5 66.5t37.5 57.5q7 9 13.5 16.5t17.5 12.5l-1 -1q45 33 94 50t107 17q55 0 105 -16.5t93 -48.5q18 -13 30 -28q55 -63 55 -149v-237zM563 262q0 34 -17 66q-14 33 -50 58q-14 12 -29 20t-32 15v-1q-21 7 -42 9.5t-41 2.5
q-21 0 -42.5 -2.5t-41.5 -9.5v1q-18 -7 -36 -16t-33 -23q-26 -20 -45 -54q-16 -31 -16 -68q0 -19 4.5 -37t11.5 -34q10 -14 21.5 -28t23.5 -25q14 -11 33 -20.5t36 -14.5q36 -11 84 -11q38 0 80 12q20 5 37.5 14t32.5 20q14 11 25 25.5t19 28.5v-1q8 17 12.5 34t4.5 37v2z
" />
    <glyph glyph-name="b" unicode="b" horiz-adv-x="721" 
d="M574 664q10 -8 17 -15.5t12 -14.5q56 -63 56 -148v-239q0 -43 -13 -79t-42 -67q-6 -8 -13.5 -16.5t-16.5 -15.5q-43 -30 -93.5 -46.5t-106.5 -16.5q-54 0 -106.5 18t-94.5 45l-5 5q-4 -14 -8 -30t-7 -30q-2 -8 -10 -8h-54q-5 0 -8 3.5t-2 8.5l28 138q-8 19 -13 42t-5 46
v63v11.5t1 11.5v560q0 10 9 10h46q10 0 10 -10v-248l9 9l9 10q86 62 201 62q112 0 200 -59zM586 486q0 19 -3.5 35.5t-11.5 33.5h1q-10 14 -21 28t-28 25q-14 13 -31 21.5t-35 14.5v-1q-20 6 -40.5 10t-42.5 4q-21 0 -42 -4t-42 -10v1q-18 -6 -34.5 -14.5t-31.5 -21.5
q-15 -11 -27 -25.5t-20 -30.5q-5 -8 -8.5 -21t-6.5 -24v-263q0 -20 3 -36.5t13 -30.5q8 -16 19.5 -29.5t26.5 -24.5q15 -14 31.5 -23t34.5 -14q40 -14 84 -14t83 14q18 5 35 14t31 23q15 11 26.5 24t21.5 29q8 17 11.5 33t3.5 38v239z" />
    <glyph glyph-name="c" unicode="c" horiz-adv-x="710" 
d="M150 244q0 -20 3 -36.5t14 -30.5q15 -32 44 -53q16 -15 32.5 -23.5t35.5 -14.5q19 -7 38.5 -10.5t45.5 -3.5q20 0 44 4.5t47 13.5q16 5 29.5 12t26.5 19q14 10 26 25q6 6 12 3l47 -24q4 -2 5.5 -6t-0.5 -8t-4 -7t-6 -5q-5 -8 -12.5 -16t-16.5 -14q-43 -30 -93 -46.5
t-105 -16.5q-114 0 -201 63l-6 5v-1q-11 9 -23 24q-57 62 -57 147v63v12.5t2 12.5v178q9 69 55 123l29 28q84 62 201 62q110 0 198 -59q23 -18 31 -31l4 -6l20 -25q6 -8 -3 -13l-49 -31q-8 -3 -13 3q-8 14 -17.5 26t-21.5 21q-14 11 -31.5 19.5t-37.5 15.5q-20 6 -39.5 10
t-40.5 4q-22 0 -43 -4t-41 -10v1q-19 -6 -35.5 -14.5t-32.5 -21.5q-29 -21 -44 -55q-6 -9 -10 -22t-7 -24v-263v0z" />
    <glyph glyph-name="d" unicode="d" horiz-adv-x="725" 
d="M634 242q0 -25 -2.5 -47.5t-13.5 -42.5l25 -139q1 -5 -1.5 -8.5t-7.5 -3.5h-53q-8 0 -10 8l-13 62l-10 -7h1q-45 -30 -93.5 -45.5t-104.5 -15.5q-118 0 -200 63l-27 25l-4 3q-28 31 -41 69t-13 81v239q0 43 13 80t42 67l3 3q6 7 12.5 13.5t15.5 11.5q41 30 91.5 47
t107.5 17q109 0 198 -66l-1 1q5 -3 8 -5t7 -6v240q0 10 10 10h52q9 0 9 -10v-644zM560 506q-2 13 -5 25.5t-13 26.5q-12 24 -40 46q-14 11 -32 20.5t-38 15.5q-21 8 -41.5 11t-39.5 3q-49 0 -85 -13q-17 -5 -34.5 -15.5t-32.5 -21.5q-14 -11 -25 -24t-19 -29q-8 -15 -13 -32
t-5 -36v-241q0 -20 5 -37t13 -32q18 -32 45 -56l-1 1q16 -12 33 -20t36 -15v1q40 -13 83 -13q44 0 84 13l-1 -1q17 8 34.5 16t33.5 19q25 22 44 54v-1q8 17 12.5 33.5t4.5 37.5v200z" />
    <glyph glyph-name="e" unicode="e" horiz-adv-x="755" 
d="M576 661l24 -27q27 -30 42 -67t15 -81v-107q0 -10 -10 -10h-486v-125q0 -20 3.5 -37.5t13.5 -32.5q8 -14 19 -27t26 -24q15 -14 31 -23t35 -14q40 -14 83 -14q46 0 83 14q19 5 35.5 14t30.5 23q15 10 26.5 23.5t19.5 29.5v-1q5 11 10 24t7 27q0 9 10 9h53q10 0 10 -11
q-6 -71 -57 -125l-2 -3q-6 -8 -11.5 -15t-7.5 -8q-46 -34 -98 -50.5t-109 -16.5q-113 0 -200 63l1 -1l-7 6q-14 9 -23 23q-56 62 -56 147v63v6t1 7q0 3 0.5 5t0.5 4v181q5 35 18 65t37 58l-1 -1q4 5 10 10.5t11 10.5l8 8q43 32 93 47t107 15q113 0 201 -59zM584 486
q0 19 -3.5 35.5t-13.5 33.5q-8 15 -19.5 28.5t-26.5 24.5q-13 11 -30 19.5t-36 15.5q-20 6 -40 10t-43 4q-20 0 -40.5 -4t-42.5 -10q-18 -7 -35 -15.5t-31 -19.5q-29 -21 -46 -54q-5 -10 -9 -23t-7 -24v-64h423v43z" />
    <glyph glyph-name="f" unicode="f" horiz-adv-x="377" 
d="M205 813l17 17l12 11q37 27 81.5 43.5t92.5 18.5q10 0 10 -9v-46q0 -8 -8 -10q-16 -2 -30.5 -5.5t-28.5 -7.5q-18 -6 -35 -14.5t-32 -21.5q-11 -8 -20 -17.5t-16 -21.5h37q9 0 9 -9v-52q0 -10 -9 -10h-63v-663q0 -10 -9 -10h-54q-10 0 -10 10v648q0 6 -1 8t1 7h-47
q-10 0 -10 10v52q0 9 10 9h64q8 18 17 33.5t22 30.5v-1z" />
    <glyph glyph-name="g" unicode="g" horiz-adv-x="717" 
d="M628 -18q0 -45 -14 -81t-40 -68l-6 -6q-12 -12 -25 -22q-43 -30 -94 -47t-110 -17q-9 0 -9 10l3 48q0 9 9 9q46 0 83 14q36 11 69 34q13 12 25.5 27.5t21.5 28.5h-1q8 14 12.5 31t4.5 37l-2 36v62l-12 -9q-86 -63 -198 -63q-58 0 -108.5 16t-92.5 47q-16 12 -30 27
q-55 63 -55 148v266q7 68 56 124q6 2 9 7l10 10l10 10q83 62 201 62q112 0 198 -59l12 -10v58q0 10 9 10h54q10 0 10 -10v-730zM552 518l-4.5 18t-7.5 19q-9 15 -20 28.5t-26 24.5q-13 11 -30.5 19.5t-35.5 15.5q-21 6 -42 10t-41 4q-23 0 -43 -4t-40 -10q-19 -7 -37 -15.5
t-32 -19.5q-29 -21 -46 -54q-5 -10 -9 -23t-7 -24v-263q0 -20 4.5 -37t11.5 -31q9 -16 20.5 -29.5t25.5 -23.5q15 -14 31 -23t35 -14q40 -14 86 -14q43 0 80 14q19 6 37 14.5t32 22.5q15 10 26 23.5t20 29.5v-1q6 11 9.5 24t5.5 27v89z" />
    <glyph glyph-name="h" unicode="h" horiz-adv-x="773" 
d="M603 633q55 -58 55 -150v-467q0 -10 -10 -10h-52q-9 0 -9 10v471q0 20 -5 36t-13 32v-1q-9 16 -20 29.5t-26 23.5q-13 11 -30.5 20t-35.5 16q-20 5 -41.5 9.5t-44.5 4.5q-17 0 -38.5 -4.5t-41.5 -9.5q-18 -7 -36.5 -16.5t-32.5 -19.5q-12 -11 -24.5 -25t-20.5 -28v1
q-3 -9 -7 -22.5t-9 -29.5v-487q0 -10 -10 -10h-52q-9 0 -9 10v878q0 9 9 9h52q10 0 10 -9v-245q3 3 6.5 5.5t6.5 4.5l-1 -1q44 34 92.5 49.5t105.5 15.5t108 -15.5t93 -46.5q5 -4 9.5 -8.5l8.5 -8.5l13 -11v0z" />
    <glyph glyph-name="i" unicode="i" horiz-adv-x="254" 
d="M80 710q0 9 10 9h50q10 0 10 -9v-694q0 -10 -10 -10h-50q-10 0 -10 10v694zM80 843q0 9 10 9h50q10 0 10 -9v-67q0 -9 -10 -9h-50q-10 0 -10 9v67z" />
    <glyph glyph-name="j" unicode="j" horiz-adv-x="252" 
d="M84 710q0 9 10 9h52q10 0 10 -9v-723q0 -45 -14.5 -81t-40.5 -66v1q-7 -9 -13.5 -15.5t-16.5 -14.5q-86 -63 -198 -63h-6q-9 0 -9 9v49q0 10 9 10h6q40 0 81 12v-1q18 7 36 16t33 20q14 11 25.5 25.5t19.5 30.5q16 30 16 67v724zM84 818q0 9 10 9h52q10 0 10 -9v-67
q0 -9 -10 -9h-52q-10 0 -10 9v67z" />
    <glyph glyph-name="k" unicode="k" horiz-adv-x="658" 
d="M445 430l-3 -2l151 -388q4 -9 -5 -13l-49 -20q-9 -4 -13 5l-146 368q-36 -20 -76.5 -30.5t-88.5 -10.5q-10 0 -22.5 1t-23.5 3v-327q0 -10 -10 -10h-51q-10 0 -10 10v877q0 9 10 9h51q10 0 10 -9v-481q11 -2 24 -3.5t22 -1.5q48 0 84 13q38 14 69 37l-1 -1
q13 11 25.5 24.5t20.5 30.5q8 14 13 31t5 36v139q0 10 10 10h51q10 0 10 -10v-136q0 -45 -14 -80.5t-40 -67.5z" />
    <glyph glyph-name="l" unicode="l" horiz-adv-x="271" 
d="M146 106q0 -20 5 -36.5t13 -33.5l2 -6l3 -3q5 -5 2.5 -10.5t-9.5 -5.5h-61q-6 0 -8 6q-19 41 -19 89v787q0 9 10 9h52q10 0 10 -9v-787v0z" />
    <glyph glyph-name="m" unicode="m" horiz-adv-x="1129" 
d="M804 719q113 0 167.5 -51t54.5 -155v-502q0 -10 -9 -10h-65q-10 0 -10 10v486q0 162 -149 162q-181 0 -181 -203v-445q0 -10 -10 -10h-62q-10 0 -10 10v445q0 203 -177 203q-152 0 -152 -162v-486q0 -10 -10 -10h-63q-10 0 -10 10v524q0 17 -4.5 33.5t-13.5 29.5
q-9 16 -24.5 31t-29.5 27q-3 2 -5 3.5t-5 3.5q-5 2 -6.5 6.5t3.5 8.5q9 8 19 19t18 19q5 5 11 2l7 -4h-1l12 -5q25 -15 36 -31q17 -15 26 -27q27 34 71 51t109 17q81 0 140 -25.5t93 -73.5q32 48 88.5 73.5t141.5 25.5z" />
    <glyph glyph-name="n" unicode="n" horiz-adv-x="769" 
d="M584 664q6 -5 13 -13t16 -17q27 -32 41 -68t14 -80v-470q0 -10 -10 -10h-52q-10 0 -10 10v470q0 38 -15 70v-1q-9 16 -21 29.5t-25 23.5q-14 13 -32 21.5t-35 14.5v-1q-20 6 -41.5 10t-43.5 4q-20 0 -40 -4t-40 -10q-19 -7 -37.5 -15.5t-31.5 -19.5q-15 -11 -26.5 -24.5
t-19.5 -29.5q-5 -10 -9.5 -23t-6.5 -24v-491q0 -10 -10 -10h-53q-10 0 -10 10v495l3 15q1 4 1 6.5t2 7.5q-1 14 -4.5 30.5t-8.5 29.5q-7 16 -18.5 30.5t-23.5 28.5q-4 2 -7 9q-2 3 0 7l8 13q5 8 10.5 15.5t13.5 12.5q5 3 11 -1q5 -5 10 -5l6 -6l18 -20q11 -15 18 -26t14 -27
l4 3q6 2 9 7q5 5 9.5 10t10.5 10q42 32 92 47t106 15q58 0 107 -15t94 -44z" />
    <glyph glyph-name="o" unicode="o" horiz-adv-x="697" 
d="M563 640q56 -60 56 -148v-238q0 -87 -56 -148l-10 -11l-17 -17q-89 -66 -202 -66q-58 0 -106.5 16t-93.5 48q-8 7 -15.5 13.5t-14.5 14.5v-1q-55 64 -55 150v61q0 6 0.5 11t2.5 13v178q4 34 16.5 65t35.5 57q8 11 18 19l12 11q42 30 92.5 47.5t107.5 17.5
q56 0 106.5 -16.5t94.5 -47.5zM546 494q0 20 -4 36.5t-15 33.5q-12 28 -42 51q-14 11 -30.5 20.5t-32.5 14.5q-20 9 -42 12.5t-46 3.5q-21 0 -41.5 -3.5t-42.5 -11.5q-20 -6 -35.5 -15.5t-30.5 -20.5q-14 -11 -25 -24t-21 -30v1q-5 -11 -9.5 -22.5t-6.5 -25.5v-261
q0 -35 16 -70q10 -15 21 -28.5t25 -24.5t31 -20.5t35 -14.5q22 -6 42.5 -11t41.5 -5q20 0 41.5 5t41.5 11q20 5 37 14.5t31 20.5t24.5 24t17.5 26q11 17 15 35t4 38v241z" />
    <glyph glyph-name="p" unicode="p" horiz-adv-x="731" 
d="M594 655q28 -31 40.5 -67.5t12.5 -78.5v-240q0 -44 -12.5 -82t-41.5 -69q-4 -3 -7.5 -6t-7.5 -7l-15 -13q-86 -63 -198 -63q-58 0 -107 17t-93 47l-15 12v-241q0 -10 -10 -10h-51q-10 0 -10 10v645q0 26 5 46.5t13 41.5l-27 140q-1 5 2 8.5t8 3.5h54q7 0 9 -8l14 -62l8 7
q44 30 93 46.5t107 16.5q56 0 106 -17t92 -49q4 -2 8.5 -7t9.5 -9l12 -11zM577 509q0 17 -5 34.5t-13 33.5q-14 32 -43 54q-14 12 -31.5 21t-37.5 14q-20 8 -40.5 11.5t-41.5 3.5q-24 0 -46 -3.5t-44 -12.5q-31 -9 -62 -34v1q-13 -12 -24.5 -25.5t-21.5 -29.5l1 1
q-8 -16 -13 -33.5t-5 -35.5v-202l3 -60q2 -12 5.5 -25t8.5 -23l3 -3q10 -14 21 -27.5t22 -24.5l-1 1q33 -24 70 -37l-1 1q20 -5 41.5 -8.5t42.5 -3.5t42 3.5t41 8.5h-1q21 7 37.5 16t30.5 20t25 25t19 29q8 16 13 32t5 35v243z" />
    <glyph glyph-name="q" unicode="q" horiz-adv-x="721" 
d="M634 716q5 0 8 -3.5t2 -7.5l-27 -138q10 -20 14 -42t4 -45v-62v-14.5t-2 -12.5v-559q0 -9 -10 -9h-52q-10 0 -10 9v239q-3 -2 -5 -5q-48 -35 -98 -51t-107 -16q-115 0 -201 62l-5 5v-1q-5 4 -11 10.5t-13 15.5q-27 29 -42 66t-15 79v241q0 84 57 149l29 28q86 62 201 62
q113 0 199 -62h-1q7 -4 9 -7l13 62q2 7 10 7h53zM561 480q0 18 -3 35t-11 31q-9 17 -21.5 31t-26.5 26q-14 11 -30 19t-37 14q-35 14 -81 14q-23 0 -44 -3t-40 -10q-37 -11 -67 -38q-15 -11 -26 -24t-22 -29l1 1q-6 -14 -10.5 -32t-4.5 -38v-241q0 -19 5 -36t13 -33v1
q8 -15 20 -29t24 -25q15 -12 32.5 -21t34.5 -15v1q20 -6 40.5 -10t43.5 -4q20 0 40.5 4t41.5 10q19 7 36 15.5t31 21.5q14 11 25.5 23.5t21.5 29.5v-1q7 14 10 34l4 13v265z" />
    <glyph glyph-name="r" unicode="r" horiz-adv-x="363" 
d="M172 674q21 14 43.5 26.5t48.5 20.5q8 2 11 -3t5.5 -9.5t5.5 -9.5v1l15 -28q3 -5 0 -10t-9 -5q-3 0 -5 -3q-22 -6 -38 -14.5t-30 -19.5q-28 -22 -45 -56q-8 -14 -12.5 -30.5t-4.5 -31.5v-486q0 -10 -10 -10h-53q-10 0 -10 10v696q0 10 10 10h53q10 0 10 -10v-50l13 11z
" />
    <glyph glyph-name="s" unicode="s" horiz-adv-x="621" 
d="M477 341q84 -48 84 -131q0 -91 -73 -149q-71 -55 -170 -55q-51 0 -95 12.5t-81 39.5l1 -1q-78 48 -93 151q-1 4 2 7.5t7 3.5h52q8 0 10 -7q21 -66 70 -98v1q28 -17 60 -26.5t67 -9.5q33 0 62.5 10t56.5 27h-1q54 35 54 87q0 46 -62 76q-6 2 -13 4t-18 5q-5 0 -9 1.5
t-9 2.5l-89 21l-1 1q-5 3 -5.5 2t-6.5 0q-1 0 -2.5 0.5t-2.5 0.5q-5 0 -7 4q-71 20 -115 45t-68 52t-32 53t-8 49q0 91 75 148q72 55 168 55q101 0 177 -49q76 -54 92 -152q1 -4 -2 -7.5t-8 -3.5h-53q-8 0 -10 7q-8 32 -25 56.5t-43 38.5q-52 37 -128 37q-29 0 -59.5 -10
t-59.5 -27l-6 -5l-6 -6t-3 -2l-2 -2q-3 -3 -4 -3q-5 -2 -11.5 -11t-13.5 -23l1 1q-3 -11 -5 -19.5t-2 -17.5q0 -8 3 -17t8 -17v1q9 -16 24.5 -30t35 -25t41 -20t42.5 -15q8 -3 15 -5t13 -4l-1 1q6 -2 13.5 -4t14.5 -4q3 -3 4 -3l7 -2q3 0 5 1t5 -2q13 -2 22 -4.5t18 -5.5h-1
l19 -4l58 -20l-1 1q4 -1 7.5 -2.5t7.5 -2.5zM270 336q-5 0 -5.5 -1t-0.5 -6q2 6 6 7zM145 597q2 0 3 1q-1 -1 -3 -1zM311 370l1 -1q2 -2 3 -2q2 -2 11 -2q8 0 8 9.5t-8 9.5v-4z" />
    <glyph glyph-name="t" unicode="t" horiz-adv-x="449" 
d="M232 776h80q10 0 10 -10v-54q0 -9 -10 -9h-80v-597q0 -20 4.5 -37t12.5 -34l2 -5l3 -3q5 -5 2.5 -10.5t-8.5 -5.5h-62q-7 0 -9 6q-16 41 -16 89v597h-61q-9 0 -9 9v54q0 10 9 10h61v117q0 9 10 9h51q10 0 10 -9v-117z" />
    <glyph glyph-name="u" unicode="u" horiz-adv-x="743" 
d="M560 710q0 9 10 9h53q10 0 10 -9v-701q0 -10 -10 -10h-53q-10 0 -10 10v64l-6 -6t-7 -6q-83 -62 -198 -62t-200 62q-8 6 -16 14.5t-14 14.5q-26 31 -41 67.5t-15 78.5v474q0 9 10 9h53q9 0 9 -9v-474q0 -19 4.5 -36t12.5 -32v1q16 -33 44 -53q14 -13 31.5 -22t36.5 -15
q20 -6 41.5 -10t43.5 -4q20 0 40 4t41 10q19 7 37 15.5t32 21.5q14 11 25 23t18 27q8 11 12 24.5t6 24.5v495z" />
    <glyph glyph-name="v" unicode="v" horiz-adv-x="620" 
d="M517 716q2 7 9 7h56q13 0 9 -13l-233 -697q-2 -7 -9 -7h-78q-8 0 -10 7l-226 697q-2 5 1.5 9t8.5 4h57q7 0 9 -7l201 -616z" />
    <glyph glyph-name="w" unicode="w" horiz-adv-x="1103" 
d="M1002 716q2 7 8 7h54q5 0 8.5 -4t1.5 -9l-230 -697q-2 -7 -10 -7h-80q-8 0 -10 7l-189 583l-194 -583q-2 -7 -8 -7h-77q-8 0 -10 7l-225 697q-2 5 1 9t8 4h56q8 0 10 -7l199 -618l208 618q2 7 9 7h54q7 0 9 -7l199 -618z" />
    <glyph glyph-name="x" unicode="x" horiz-adv-x="688" 
d="M369 403q69 -96 139.5 -191t139.5 -191q4 -5 1.5 -10t-9.5 -5h-65q-2 0 -4.5 1t-3.5 3l-241 325l-212 -324q-3 -5 -8 -5h-63q-7 0 -9.5 4.5t1.5 9.5l245 379l-226 309q-4 5 -1.5 10t8.5 5h68q5 0 7 -4l188 -255l165 254q2 5 8 5h63q7 0 9.5 -4.5t-1.5 -9.5z" />
    <glyph glyph-name="y" unicode="y" horiz-adv-x="675" 
d="M616 723q5 0 8.5 -4t1.5 -9l-230 -697l-77 -263q-2 -6 -10 -6h-57q-5 0 -8 3.5t-1 8.5l64 219q-60 184 -118 367.5t-118 367.5q-2 5 1.5 9t8.5 4h56q8 0 10 -7l198 -617l206 617q2 7 8 7h57z" />
    <glyph glyph-name="z" unicode="z" horiz-adv-x="691" 
d="M188 65h403q9 0 9 -9v-51q0 -10 -9 -10h-517q-7 0 -9.5 5t1.5 10l249 384l31 47l130 199h-402q-10 0 -10 10v52q0 9 10 9h517q6 0 8.5 -4.5t-1.5 -9.5l-202 -312l-31 -49z" />
    <glyph glyph-name="braceleft" unicode="{" horiz-adv-x="434" 
d="M396 1139q-39 0 -73 -12.5t-58.5 -33.5t-39 -49t-14.5 -60v-269q0 -41 -7.5 -78.5t-25.5 -72.5l-71 -122l18 -29q16 -28 31.5 -56t27.5 -57t19.5 -60.5t7.5 -66.5v-270q0 -32 14.5 -60.5t39 -50t58.5 -34.5t73 -13h31q9 0 9 -9v-60q0 -10 -9 -10h-31q-52 0 -100 18.5
t-84.5 50.5t-58.5 75t-22 93v270q0 34 -13.5 74.5t-39.5 85.5q-28 46 -41.5 75.5t-13.5 37.5q0 13 5 18l-1 -2l15 26h-1q16 26 32 53.5t29 56t21 58t8 59.5v269q0 48 21.5 91t58 75.5t84.5 52t101 19.5h31q9 0 9 -10v-63q0 -10 -9 -10h-31z" />
    <glyph glyph-name="bar" unicode="|" horiz-adv-x="252" 
d="M165 -90q0 -10 -10 -10h-63q-9 0 -9 10v1342q0 10 9 10h63q10 0 10 -10v-1342z" />
    <glyph glyph-name="braceright" unicode="}" horiz-adv-x="434" 
d="M0 1139q-10 0 -10 10v63q0 10 10 10h30q55 0 103.5 -19.5t85 -52t58 -75.5t21.5 -91v-269q0 -29 7 -57t18.5 -55t26 -53t29.5 -51l22 -37l-2 1q2 -2 3.5 -6.5t1.5 -10.5q0 -8 -8.5 -25.5t-25.5 -49.5l-21 -38q-25 -48 -38 -88t-13 -72v-270q0 -50 -22 -93t-59 -75
t-85.5 -50.5t-101.5 -18.5h-30q-10 0 -10 10v60q0 9 10 9h30q39 0 73 13t59 34.5t39 50t14 60.5v270q0 38 8.5 72t22 65t31.5 61t38 61h-1l7 11q-20 33 -39 64t-34 64t-24 68t-9 76v269q0 32 -14 60t-39 49t-59 33.5t-73 12.5h-30z" />
    <glyph glyph-name="asciitilde" unicode="~" horiz-adv-x="891" 
d="M11 570q7 20 11 31t6 13q18 46 42.5 83.5t53.5 64t60.5 41t63.5 14.5q81 0 209 -92q59 -44 101 -64.5t72 -20.5q22 0 45.5 12.5t43.5 32.5t35 45.5t20 51.5q0 5 1 12t1 13q0 10 10 10h59q5 0 8 -3t2 -8l-4 -34q-5 -47 -24.5 -85.5t-49.5 -66.5t-68.5 -43.5t-80.5 -15.5
q-58 0 -110 28l3 -1q-7 3 -41.5 26t-95.5 64q-86 59 -136 59q-17 0 -36 -11t-39 -31t-39 -48t-35 -63l1 1l-6 -21q-2 -7 -9 -7h-65q-13 0 -9 13z" />
    <glyph glyph-name="thothannobasethai" horiz-adv-x="859" 
d="M128 666q-2 -3 -2.5 -5t-3.5 -5q-5 -5 -12 -1l-51 34q-9 5 -4 13q8 13 17.5 26.5t19.5 27.5l34 32q51 37 108 56.5t123 19.5t123.5 -19.5t107.5 -55.5q1 -2 3 -3l15 73q2 8 9 8h60q5 0 8 -3.5t2 -8.5l-28 -149q14 -28 21 -57t7 -62v-315q0 -98 -62 -166q-15 -18 -36 -34
q-17 -14 -37 -25.5t-43 -19.5l-18 -7h1l-19 -7q-12 -2 -20 2.5t-14 11.5t-9.5 15.5t-4.5 14.5l-3 13l-95 383h-60q-9 0 -9 10v61q0 10 9 10h117q8 0 10 -8l104 -421q11 5 19.5 11t18.5 14q29 24 52 62v-1q9 19 14.5 39t5.5 42v315q0 23 -6 43t-14 37q-12 18 -25 34t-27 30
q-19 13 -40 23t-41 18q-42 14 -96 14q-48 0 -94 -15q-50 -16 -81 -40h1q-33 -28 -54 -64z" />
    <glyph glyph-name="thothannobasethai" unicode="&#xf700;" horiz-adv-x="859" 
d="M128 666q-2 -3 -2.5 -5t-3.5 -5q-5 -5 -12 -1l-51 34q-9 5 -4 13q8 13 17.5 26.5t19.5 27.5l34 32q51 37 108 56.5t123 19.5t123.5 -19.5t107.5 -55.5q1 -2 3 -3l15 73q2 8 9 8h60q5 0 8 -3.5t2 -8.5l-28 -149q14 -28 21 -57t7 -62v-315q0 -98 -62 -166q-15 -18 -36 -34
q-17 -14 -37 -25.5t-43 -19.5l-18 -7h1l-19 -7q-12 -2 -20 2.5t-14 11.5t-9.5 15.5t-4.5 14.5l-3 13l-95 383h-60q-9 0 -9 10v61q0 10 9 10h117q8 0 10 -8l104 -421q11 5 19.5 11t18.5 14q29 24 52 62v-1q9 19 14.5 39t5.5 42v315q0 23 -6 43t-14 37q-12 18 -25 34t-27 30
q-19 13 -40 23t-41 18q-42 14 -96 14q-48 0 -94 -15q-50 -16 -81 -40h1q-33 -28 -54 -64z" />
    <glyph glyph-name="thothannobasethai" unicode="&#x20ac;" horiz-adv-x="859" 
d="M128 666q-2 -3 -2.5 -5t-3.5 -5q-5 -5 -12 -1l-51 34q-9 5 -4 13q8 13 17.5 26.5t19.5 27.5l34 32q51 37 108 56.5t123 19.5t123.5 -19.5t107.5 -55.5q1 -2 3 -3l15 73q2 8 9 8h60q5 0 8 -3.5t2 -8.5l-28 -149q14 -28 21 -57t7 -62v-315q0 -98 -62 -166q-15 -18 -36 -34
q-17 -14 -37 -25.5t-43 -19.5l-18 -7h1l-19 -7q-12 -2 -20 2.5t-14 11.5t-9.5 15.5t-4.5 14.5l-3 13l-95 383h-60q-9 0 -9 10v61q0 10 9 10h117q8 0 10 -8l104 -421q11 5 19.5 11t18.5 14q29 24 52 62v-1q9 19 14.5 39t5.5 42v315q0 23 -6 43t-14 37q-12 18 -25 34t-27 30
q-19 13 -40 23t-41 18q-42 14 -96 14q-48 0 -94 -15q-50 -16 -81 -40h1q-33 -28 -54 -64z" />
    <glyph glyph-name="saraileftthai" 
d="M-282 1051q10 0 10 -10v-60q0 -10 -10 -10h-510q-5 0 -8 3t-2 8l11 60q2 9 9 9h500z" />
    <glyph glyph-name="saraileftthai" unicode="&#xf701;" 
d="M-282 1051q10 0 10 -10v-60q0 -10 -10 -10h-510q-5 0 -8 3t-2 8l11 60q2 9 9 9h500z" />
    <glyph glyph-name="saraiileftthai" 
d="M-744 1055h413v74q0 9 10 9h64q10 0 10 -9v-148q0 -10 -10 -10h-504z" />
    <glyph glyph-name="saraiileftthai" unicode="&#xf702;" 
d="M-744 1055h413v74q0 9 10 9h64q10 0 10 -9v-148q0 -10 -10 -10h-504z" />
    <glyph glyph-name="saraiileftthai" unicode="&#x201a;" 
d="M-744 1055h413v74q0 9 10 9h64q10 0 10 -9v-148q0 -10 -10 -10h-504z" />
    <glyph glyph-name="saraueleftthai" 
d="M-422 1168q19 0 37 -7.5t31.5 -20.5t21.5 -31t8 -39q0 -20 -7 -37t-19.5 -30t-29.5 -21.5t-36 -9.5h-447q-11 0 -9 11l16 67q2 7 10 7h326q-1 4 -0.5 6.5t0.5 6.5q0 42 27.5 70t70.5 28zM-419 1050q20 0 20 20q0 9 -5.5 15t-14.5 6t-15.5 -6t-6.5 -15t6.5 -14.5
t15.5 -5.5z" />
    <glyph glyph-name="saraueleftthai" unicode="&#xf703;" 
d="M-422 1168q19 0 37 -7.5t31.5 -20.5t21.5 -31t8 -39q0 -20 -7 -37t-19.5 -30t-29.5 -21.5t-36 -9.5h-447q-11 0 -9 11l16 67q2 7 10 7h326q-1 4 -0.5 6.5t0.5 6.5q0 42 27.5 70t70.5 28zM-419 1050q20 0 20 20q0 9 -5.5 15t-14.5 6t-15.5 -6t-6.5 -15t6.5 -14.5
t15.5 -5.5z" />
    <glyph glyph-name="saraueleftthai" unicode="&#x192;" 
d="M-422 1168q19 0 37 -7.5t31.5 -20.5t21.5 -31t8 -39q0 -20 -7 -37t-19.5 -30t-29.5 -21.5t-36 -9.5h-447q-11 0 -9 11l16 67q2 7 10 7h326q-1 4 -0.5 6.5t0.5 6.5q0 42 27.5 70t70.5 28zM-419 1050q20 0 20 20q0 9 -5.5 15t-14.5 6t-15.5 -6t-6.5 -15t6.5 -14.5
t15.5 -5.5z" />
    <glyph glyph-name="saraueeleftthai" 
d="M-864 980q-12 0 -10 12l16 67q2 8 10 8h286v74q0 10 9 10h68q10 0 10 -10v-74h55v74q0 10 10 10h66q10 0 10 -10v-151q0 -10 -10 -10h-520z" />
    <glyph glyph-name="saraueeleftthai" unicode="&#xf704;" 
d="M-864 980q-12 0 -10 12l16 67q2 8 10 8h286v74q0 10 9 10h68q10 0 10 -10v-74h55v74q0 10 10 10h66q10 0 10 -10v-151q0 -10 -10 -10h-520z" />
    <glyph glyph-name="saraueeleftthai" unicode="&#x201e;" 
d="M-864 980q-12 0 -10 12l16 67q2 8 10 8h286v74q0 10 9 10h68q10 0 10 -10v-74h55v74q0 10 10 10h66q10 0 10 -10v-151q0 -10 -10 -10h-520z" />
    <glyph glyph-name="ellipsis" unicode="&#x85;" horiz-adv-x="1079" 
d="M147 122q28 0 46 -18.5t18 -45.5q0 -23 -18 -42.5t-46 -19.5q-12 0 -23.5 5.5t-20.5 14t-14.5 19.5t-5.5 23q0 27 19.5 45.5t44.5 18.5zM532 122q12 0 23.5 -5t20.5 -13.5t14.5 -20.5t5.5 -25q0 -23 -18.5 -42.5t-45.5 -19.5q-28 0 -46.5 19.5t-18.5 42.5q0 27 18.5 45.5
t46.5 18.5zM914 122q28 0 46 -18.5t18 -45.5q0 -23 -18 -42.5t-46 -19.5q-12 0 -24 5.5t-21 14t-14.5 19.5t-5.5 23q0 27 20 45.5t45 18.5z" />
    <glyph glyph-name="ellipsis" unicode="&#x2026;" horiz-adv-x="1079" 
d="M147 122q28 0 46 -18.5t18 -45.5q0 -23 -18 -42.5t-46 -19.5q-12 0 -23.5 5.5t-20.5 14t-14.5 19.5t-5.5 23q0 27 19.5 45.5t44.5 18.5zM532 122q12 0 23.5 -5t20.5 -13.5t14.5 -20.5t5.5 -25q0 -23 -18.5 -42.5t-45.5 -19.5q-28 0 -46.5 19.5t-18.5 42.5q0 27 18.5 45.5
t46.5 18.5zM914 122q28 0 46 -18.5t18 -45.5q0 -23 -18 -42.5t-46 -19.5q-12 0 -24 5.5t-21 14t-14.5 19.5t-5.5 23q0 27 20 45.5t45 18.5z" />
    <glyph glyph-name="maieklowleftthai" 
d="M-371 981q0 -10 -10 -10h-63q-10 0 -10 10v183q0 10 10 10h63q10 0 10 -10v-183z" />
    <glyph glyph-name="maieklowleftthai" unicode="&#xf705;" 
d="M-371 981q0 -10 -10 -10h-63q-10 0 -10 10v183q0 10 10 10h63q10 0 10 -10v-183z" />
    <glyph glyph-name="maieklowleftthai" unicode="&#x2020;" 
d="M-371 981q0 -10 -10 -10h-63q-10 0 -10 10v183q0 10 10 10h63q10 0 10 -10v-183z" />
    <glyph glyph-name="maitholowleftthai" 
d="M-409 1054q10 0 10 -10v-64q0 -10 -10 -10h-243q-4 0 -7 3l-23 25q-3 3 -3 7v74h-51q-10 0 -10 10v68q0 10 10 10h76q15 0 25 -5t16 -11.5t9.5 -14.5t6.5 -14v-68h194z" />
    <glyph glyph-name="maitholowleftthai" unicode="&#xf706;" 
d="M-409 1054q10 0 10 -10v-64q0 -10 -10 -10h-243q-4 0 -7 3l-23 25q-3 3 -3 7v74h-51q-10 0 -10 10v68q0 10 10 10h76q15 0 25 -5t16 -11.5t9.5 -14.5t6.5 -14v-68h194z" />
    <glyph glyph-name="maitholowleftthai" unicode="&#x2021;" 
d="M-409 1054q10 0 10 -10v-64q0 -10 -10 -10h-243q-4 0 -7 3l-23 25q-3 3 -3 7v74h-51q-10 0 -10 10v68q0 10 10 10h76q15 0 25 -5t16 -11.5t9.5 -14.5t6.5 -14v-68h194z" />
    <glyph glyph-name="maitrilowleftthai" 
d="M-715 963q0 -9 -10 -9h-148q-10 0 -10 9v73q0 31 11 54t32 43q23 17 48.5 25.5t59.5 8.5h7q10 0 21 -3q9 -2 18.5 -6.5t16.5 -12.5q8 6 24 13.5t39 8.5h5h8.5t8.5 -2q128 -9 128 -129v-1h131q4 0 7 -3t2 -8l-7 -62q0 -8 -10 -8h-197q-10 0 -10 9v62q0 30 -12.5 43.5
t-37.5 15.5q-8 0 -20.5 -3t-20.5 -17q-2 -5 -9 -5h-47q-8 7 -17 12q-8 5 -17.5 9t-19.5 4h-5q-2 0 -6 -2q-23 -3 -34.5 -13t-12.5 -34q18 0 37 -1t37 -1q10 0 10 -10v-60z" />
    <glyph glyph-name="maitrilowleftthai" unicode="&#xf707;" 
d="M-715 963q0 -9 -10 -9h-148q-10 0 -10 9v73q0 31 11 54t32 43q23 17 48.5 25.5t59.5 8.5h7q10 0 21 -3q9 -2 18.5 -6.5t16.5 -12.5q8 6 24 13.5t39 8.5h5h8.5t8.5 -2q128 -9 128 -129v-1h131q4 0 7 -3t2 -8l-7 -62q0 -8 -10 -8h-197q-10 0 -10 9v62q0 30 -12.5 43.5
t-37.5 15.5q-8 0 -20.5 -3t-20.5 -17q-2 -5 -9 -5h-47q-8 7 -17 12q-8 5 -17.5 9t-19.5 4h-5q-2 0 -6 -2q-23 -3 -34.5 -13t-12.5 -34q18 0 37 -1t37 -1q10 0 10 -10v-60z" />
    <glyph glyph-name="maitrilowleftthai" unicode="&#x2c6;" 
d="M-715 963q0 -9 -10 -9h-148q-10 0 -10 9v73q0 31 11 54t32 43q23 17 48.5 25.5t59.5 8.5h7q10 0 21 -3q9 -2 18.5 -6.5t16.5 -12.5q8 6 24 13.5t39 8.5h5h8.5t8.5 -2q128 -9 128 -129v-1h131q4 0 7 -3t2 -8l-7 -62q0 -8 -10 -8h-197q-10 0 -10 9v62q0 30 -12.5 43.5
t-37.5 15.5q-8 0 -20.5 -3t-20.5 -17q-2 -5 -9 -5h-47q-8 7 -17 12q-8 5 -17.5 9t-19.5 4h-5q-2 0 -6 -2q-23 -3 -34.5 -13t-12.5 -34q18 0 37 -1t37 -1q10 0 10 -10v-60z" />
    <glyph glyph-name="maichattawalowleftthai" 
d="M-499 1089h-83q-10 0 -10 10v62q0 10 10 10h83v85q0 10 9 10h64q10 0 10 -10v-85h83q10 0 10 -10v-62q0 -10 -10 -10h-83v-81q0 -10 -10 -10h-64q-9 0 -9 10v81z" />
    <glyph glyph-name="maichattawalowleftthai" unicode="&#xf708;" 
d="M-499 1089h-83q-10 0 -10 10v62q0 10 10 10h83v85q0 10 9 10h64q10 0 10 -10v-85h83q10 0 10 -10v-62q0 -10 -10 -10h-83v-81q0 -10 -10 -10h-64q-9 0 -9 10v81z" />
    <glyph glyph-name="maichattawalowleftthai" unicode="&#x2030;" 
d="M-499 1089h-83q-10 0 -10 10v62q0 10 10 10h83v85q0 10 9 10h64q10 0 10 -10v-85h83q10 0 10 -10v-62q0 -10 -10 -10h-83v-81q0 -10 -10 -10h-64q-9 0 -9 10v81z" />
    <glyph glyph-name="thanthakhatlowleftthai" 
d="M-620 1149q0 10 9 10h280q10 0 10 -10v-66q0 -9 -10 -9h-202v-36q0 -10 -10 -10h-68q-9 0 -9 10v111z" />
    <glyph glyph-name="thanthakhatlowleftthai" unicode="&#xf709;" 
d="M-620 1149q0 10 9 10h280q10 0 10 -10v-66q0 -9 -10 -9h-202v-36q0 -10 -10 -10h-68q-9 0 -9 10v111z" />
    <glyph glyph-name="thanthakhatlowleftthai" unicode="&#x160;" 
d="M-620 1149q0 10 9 10h280q10 0 10 -10v-66q0 -9 -10 -9h-202v-36q0 -10 -10 -10h-68q-9 0 -9 10v111z" />
    <glyph glyph-name="maieklowrightthai" 
d="M-84 955q0 -10 -10 -10h-64q-10 0 -10 10v183q0 10 10 10h64q10 0 10 -10v-183z" />
    <glyph glyph-name="maieklowrightthai" unicode="&#xf70a;" 
d="M-84 955q0 -10 -10 -10h-64q-10 0 -10 10v183q0 10 10 10h64q10 0 10 -10v-183z" />
    <glyph glyph-name="maieklowrightthai" unicode="&#x2039;" 
d="M-84 955q0 -10 -10 -10h-64q-10 0 -10 10v183q0 10 10 10h64q10 0 10 -10v-183z" />
    <glyph glyph-name="maitholowrightthai" 
d="M-121 1054q10 0 10 -10v-64q0 -10 -10 -10h-243q-4 0 -7 3l-23 25q-3 3 -3 7v74h-51q-10 0 -10 10v68q0 10 10 10h76q15 0 25 -5t16.5 -11.5t10 -14.5t5.5 -14v-68h194z" />
    <glyph glyph-name="maitholowrightthai" unicode="&#xf70b;" 
d="M-121 1054q10 0 10 -10v-64q0 -10 -10 -10h-243q-4 0 -7 3l-23 25q-3 3 -3 7v74h-51q-10 0 -10 10v68q0 10 10 10h76q15 0 25 -5t16.5 -11.5t10 -14.5t5.5 -14v-68h194z" />
    <glyph glyph-name="maitholowrightthai" unicode="&#x152;" 
d="M-121 1054q10 0 10 -10v-64q0 -10 -10 -10h-243q-4 0 -7 3l-23 25q-3 3 -3 7v74h-51q-10 0 -10 10v68q0 10 10 10h76q15 0 25 -5t16.5 -11.5t10 -14.5t5.5 -14v-68h194z" />
    <glyph glyph-name="maitrilowrightthai" 
d="M-367 963q0 -9 -10 -9h-148q-10 0 -10 9v73q0 31 11 54t32 43q23 17 48.5 25.5t59.5 8.5h7q10 0 21 -3q9 -2 18.5 -6.5t17.5 -12.5q7 6 23 13.5t39 8.5h5h8.5t8.5 -2q128 -9 128 -129v-1h131q11 0 9 -11l-7 -62q0 -8 -10 -8h-197q-10 0 -10 9v62q0 30 -12.5 43.5
t-37.5 15.5q-8 0 -20.5 -3t-20.5 -17q-2 -5 -9 -5h-47q-8 7 -17 12q-8 5 -17.5 9t-19.5 4h-5q-2 0 -6 -2q-23 -3 -34.5 -13t-12.5 -34q18 0 37 -1t37 -1q10 0 10 -10v-60z" />
    <glyph glyph-name="maitrilowrightthai" unicode="&#xf70c;" 
d="M-367 963q0 -9 -10 -9h-148q-10 0 -10 9v73q0 31 11 54t32 43q23 17 48.5 25.5t59.5 8.5h7q10 0 21 -3q9 -2 18.5 -6.5t17.5 -12.5q7 6 23 13.5t39 8.5h5h8.5t8.5 -2q128 -9 128 -129v-1h131q11 0 9 -11l-7 -62q0 -8 -10 -8h-197q-10 0 -10 9v62q0 30 -12.5 43.5
t-37.5 15.5q-8 0 -20.5 -3t-20.5 -17q-2 -5 -9 -5h-47q-8 7 -17 12q-8 5 -17.5 9t-19.5 4h-5q-2 0 -6 -2q-23 -3 -34.5 -13t-12.5 -34q18 0 37 -1t37 -1q10 0 10 -10v-60z" />
    <glyph glyph-name="maichattawalowrightthai" 
d="M-234 1028h-83q-9 0 -9 10v62q0 10 9 10h83v85q0 10 10 10h64q10 0 10 -10v-85h82q10 0 10 -10v-62q0 -10 -10 -10h-82v-81q0 -10 -10 -10h-64q-10 0 -10 10v81z" />
    <glyph glyph-name="maichattawalowrightthai" unicode="&#xf70d;" 
d="M-234 1028h-83q-9 0 -9 10v62q0 10 9 10h83v85q0 10 10 10h64q10 0 10 -10v-85h82q10 0 10 -10v-62q0 -10 -10 -10h-82v-81q0 -10 -10 -10h-64q-10 0 -10 10v81z" />
    <glyph glyph-name="maichattawalowrightthai" unicode="&#x17d;" 
d="M-234 1028h-83q-9 0 -9 10v62q0 10 9 10h83v85q0 10 10 10h64q10 0 10 -10v-85h82q10 0 10 -10v-62q0 -10 -10 -10h-82v-81q0 -10 -10 -10h-64q-10 0 -10 10v81z" />
    <glyph glyph-name="thanthakhatlowrightthai" 
d="M-2 1031q0 -10 -10 -10h-152v-82q0 -10 -10 -10h-63q-10 0 -10 10v147q0 9 10 9h225q10 0 10 -9v-55z" />
    <glyph glyph-name="thanthakhatlowrightthai" unicode="&#xf70e;" 
d="M-2 1031q0 -10 -10 -10h-152v-82q0 -10 -10 -10h-63q-10 0 -10 10v147q0 9 10 9h225q10 0 10 -9v-55z" />
    <glyph glyph-name="yoyingnobasethai" horiz-adv-x="1433" 
d="M1332 876q10 0 10 -10v-593q0 -51 -17 -95.5t-48 -80.5q-8 -8 -17 -16l-18 -16q-104 -75 -237 -75q-66 0 -126.5 19.5t-113.5 55.5l-18 16l-14 14q-18 24 -30 44q-16 32 -25.5 64.5t-9.5 68.5v326q0 20 -5.5 40t-15.5 39q-10 20 -23.5 35t-29.5 28q-17 14 -36.5 25
t-43.5 17q-23 10 -49 14.5t-52 4.5q-25 0 -50.5 -4.5t-48.5 -14.5q-23 -5 -41.5 -16.5t-37.5 -25.5q-19 -13 -32 -28t-23 -35q-10 -19 -15.5 -40.5t-5.5 -41.5v-323q0 -23 5.5 -44t15.5 -38q11 -19 24 -35.5t31 -30.5q19 -15 38 -24.5t43 -16.5q21 -7 41.5 -11t40.5 -6
q9 -2 9 -10v-56q0 -10 -10 -10q-61 2 -116 21t-106 52l-18 17l-15 15q-65 75 -65 177v323q0 48 17 92t49 79q7 9 15.5 17t18.5 16q53 37 110 57t126 20q66 0 126 -19t112 -54q8 -10 16 -18t17 -16q67 -72 67 -174v-323q2 -24 6.5 -44.5t13.5 -37.5q10 -18 24.5 -35t31.5 -31
q17 -16 38 -26t42 -16q22 -8 47 -12t51 -4q54 0 99 16q25 6 45 16.5t40 28.5q16 11 29 27t22 35q8 17 14 38t6 45v594q0 10 10 10h62z" />
    <glyph glyph-name="yoyingnobasethai" unicode="&#xf70f;" horiz-adv-x="1433" 
d="M1332 876q10 0 10 -10v-593q0 -51 -17 -95.5t-48 -80.5q-8 -8 -17 -16l-18 -16q-104 -75 -237 -75q-66 0 -126.5 19.5t-113.5 55.5l-18 16l-14 14q-18 24 -30 44q-16 32 -25.5 64.5t-9.5 68.5v326q0 20 -5.5 40t-15.5 39q-10 20 -23.5 35t-29.5 28q-17 14 -36.5 25
t-43.5 17q-23 10 -49 14.5t-52 4.5q-25 0 -50.5 -4.5t-48.5 -14.5q-23 -5 -41.5 -16.5t-37.5 -25.5q-19 -13 -32 -28t-23 -35q-10 -19 -15.5 -40.5t-5.5 -41.5v-323q0 -23 5.5 -44t15.5 -38q11 -19 24 -35.5t31 -30.5q19 -15 38 -24.5t43 -16.5q21 -7 41.5 -11t40.5 -6
q9 -2 9 -10v-56q0 -10 -10 -10q-61 2 -116 21t-106 52l-18 17l-15 15q-65 75 -65 177v323q0 48 17 92t49 79q7 9 15.5 17t18.5 16q53 37 110 57t126 20q66 0 126 -19t112 -54q8 -10 16 -18t17 -16q67 -72 67 -174v-323q2 -24 6.5 -44.5t13.5 -37.5q10 -18 24.5 -35t31.5 -31
q17 -16 38 -26t42 -16q22 -8 47 -12t51 -4q54 0 99 16q25 6 45 16.5t40 28.5q16 11 29 27t22 35q8 17 14 38t6 45v594q0 10 10 10h62z" />
    <glyph glyph-name="quoteleft" horiz-adv-x="395" 
d="M185 1026q19 0 37 -7.5t31.5 -20.5t21.5 -31t8 -39q0 -20 -7.5 -37.5t-20.5 -31t-31 -21.5t-39 -8t-39.5 8t-32 21.5t-21 31t-7.5 37.5q0 88 43 146.5t139 93.5q2 0 4 0.5t7 0.5q26 0 26 -20v-4q0 -17 -19 -28q-23 -13 -40.5 -23.5t-29.5 -21t-20.5 -21.5t-13.5 -25h4z
" />
    <glyph glyph-name="quoteleft" unicode="&#x2018;" horiz-adv-x="395" 
d="M185 1026q19 0 37 -7.5t31.5 -20.5t21.5 -31t8 -39q0 -20 -7.5 -37.5t-20.5 -31t-31 -21.5t-39 -8t-39.5 8t-32 21.5t-21 31t-7.5 37.5q0 88 43 146.5t139 93.5q2 0 4 0.5t7 0.5q26 0 26 -20v-4q0 -17 -19 -28q-23 -13 -40.5 -23.5t-29.5 -21t-20.5 -21.5t-13.5 -25h4z
" />
    <glyph glyph-name="quoteright" horiz-adv-x="395" 
d="M205 970q-43 0 -71.5 29t-28.5 72q0 20 7.5 37.5t21 31t32 21.5t39.5 8q19 0 37 -8t32 -21.5t22 -31t8 -37.5q0 -89 -42.5 -147t-140.5 -93q-2 -1 -8 -1q-28 0 -28 21q0 19 21 32q45 24 68.5 42.5t32.5 44.5h-2z" />
    <glyph glyph-name="quoteright" unicode="&#x2019;" horiz-adv-x="395" 
d="M205 970q-43 0 -71.5 29t-28.5 72q0 20 7.5 37.5t21 31t32 21.5t39.5 8q19 0 37 -8t32 -21.5t22 -31t8 -37.5q0 -89 -42.5 -147t-140.5 -93q-2 -1 -8 -1q-28 0 -28 21q0 19 21 32q45 24 68.5 42.5t32.5 44.5h-2z" />
    <glyph glyph-name="bullet" horiz-adv-x="702" 
d="M344 131q-53 0 -100.5 21t-83 56.5t-56.5 83t-21 100.5q0 54 21 101.5t57 83t83 56.5t100 21q54 0 101.5 -21t83 -56.5t56.5 -83t21 -101.5q0 -52 -21 -99.5t-56.5 -83.5t-83 -57t-101.5 -21z" />
    <glyph glyph-name="bullet" unicode="&#x2022;" horiz-adv-x="702" 
d="M344 131q-53 0 -100.5 21t-83 56.5t-56.5 83t-21 100.5q0 54 21 101.5t57 83t83 56.5t100 21q54 0 101.5 -21t83 -56.5t56.5 -83t21 -101.5q0 -52 -21 -99.5t-56.5 -83.5t-83 -57t-101.5 -21z" />
    <glyph glyph-name="endash" horiz-adv-x="862" 
d="M847 535q10 0 10 -10v-60q0 -10 -10 -10h-847q-10 0 -10 10v60q0 10 10 10h847z" />
    <glyph glyph-name="endash" unicode="&#x2013;" horiz-adv-x="862" 
d="M847 535q10 0 10 -10v-60q0 -10 -10 -10h-847q-10 0 -10 10v60q0 10 10 10h847z" />
    <glyph glyph-name="emdash" horiz-adv-x="1292" 
d="M1270 535q10 0 10 -10v-60q0 -10 -10 -10h-1270q-10 0 -10 10v60q0 10 10 10h1270z" />
    <glyph glyph-name="emdash" unicode="&#x2014;" horiz-adv-x="1292" 
d="M1270 535q10 0 10 -10v-60q0 -10 -10 -10h-1270q-10 0 -10 10v60q0 10 10 10h1270z" />
    <glyph glyph-name="maihanakatleftthai" 
d="M-305 978q0 -10 -10 -10h-409q-10 0 -10 10v158q0 10 10 10h60q10 0 10 -10v-88h339q10 0 10 -10v-60z" />
    <glyph glyph-name="maihanakatleftthai" unicode="&#xf710;" 
d="M-305 978q0 -10 -10 -10h-409q-10 0 -10 10v158q0 10 10 10h60q10 0 10 -10v-88h339q10 0 10 -10v-60z" />
    <glyph glyph-name="maihanakatleftthai" unicode="&#x2dc;" 
d="M-305 978q0 -10 -10 -10h-409q-10 0 -10 10v158q0 10 10 10h60q10 0 10 -10v-88h339q10 0 10 -10v-60z" />
    <glyph glyph-name="nikhahitleftthai" 
d="M-470 1075q0 22 8.5 42t23.5 35t35 24t43 9q22 0 42 -9t35 -24t24 -35t9 -42q0 -23 -9 -43t-24 -35t-35 -24t-42 -9q-23 0 -43 9t-35 24t-23.5 35t-8.5 43zM-405 1074q0 -19 13.5 -32t31.5 -13q19 0 31.5 13t12.5 32q0 18 -12.5 31.5t-31.5 13.5q-18 0 -31.5 -13.5
t-13.5 -31.5z" />
    <glyph glyph-name="nikhahitleftthai" unicode="&#xf711;" 
d="M-470 1075q0 22 8.5 42t23.5 35t35 24t43 9q22 0 42 -9t35 -24t24 -35t9 -42q0 -23 -9 -43t-24 -35t-35 -24t-42 -9q-23 0 -43 9t-35 24t-23.5 35t-8.5 43zM-405 1074q0 -19 13.5 -32t31.5 -13q19 0 31.5 13t12.5 32q0 18 -12.5 31.5t-31.5 13.5q-18 0 -31.5 -13.5
t-13.5 -31.5z" />
    <glyph glyph-name="nikhahitleftthai" unicode="&#x2122;" 
d="M-470 1075q0 22 8.5 42t23.5 35t35 24t43 9q22 0 42 -9t35 -24t24 -35t9 -42q0 -23 -9 -43t-24 -35t-35 -24t-42 -9q-23 0 -43 9t-35 24t-23.5 35t-8.5 43zM-405 1074q0 -19 13.5 -32t31.5 -13q19 0 31.5 13t12.5 32q0 18 -12.5 31.5t-31.5 13.5q-18 0 -31.5 -13.5
t-13.5 -31.5z" />
    <glyph glyph-name="maitaikhuleftthai" 
d="M-638 1160q19 18 41.5 28.5t49.5 10.5h272q10 0 10 -10v-67q0 -10 -10 -10h-268q-10 0 -19 -3.5t-18 -8.5l1 1q-6 -5 -15 -15.5t-9 -27.5q0 -9 6 -20.5t21 -23.5l-4 1l2 -1h1q8 -4 17 -8t17 -4h27l108 58q4 2 9 0l109 -62q6 -5 3 -13l-25 -48q-2 -4 -6 -5.5t-8 0.5
l-78 42l-106 -56h-37q-57 0 -89 36h1l-15 15q-3 1 -5 5q-1 2 -1 3q-5 5 -6 8q-3 2 -5 12q0 1 -0.5 1t-0.5 1l-3 3q-7 15 -9.5 28t-2.5 25q0 23 7 42.5t17 35.5q5 5 4.5 6t1.5 3t1.5 2t0.5 2q1 3 5 7l5 2l-1 -4q0 1 0.5 1t0.5 1z" />
    <glyph glyph-name="maitaikhuleftthai" unicode="&#xf712;" 
d="M-638 1160q19 18 41.5 28.5t49.5 10.5h272q10 0 10 -10v-67q0 -10 -10 -10h-268q-10 0 -19 -3.5t-18 -8.5l1 1q-6 -5 -15 -15.5t-9 -27.5q0 -9 6 -20.5t21 -23.5l-4 1l2 -1h1q8 -4 17 -8t17 -4h27l108 58q4 2 9 0l109 -62q6 -5 3 -13l-25 -48q-2 -4 -6 -5.5t-8 0.5
l-78 42l-106 -56h-37q-57 0 -89 36h1l-15 15q-3 1 -5 5q-1 2 -1 3q-5 5 -6 8q-3 2 -5 12q0 1 -0.5 1t-0.5 1l-3 3q-7 15 -9.5 28t-2.5 25q0 23 7 42.5t17 35.5q5 5 4.5 6t1.5 3t1.5 2t0.5 2q1 3 5 7l5 2l-1 -4q0 1 0.5 1t0.5 1z" />
    <glyph glyph-name="maitaikhuleftthai" unicode="&#x161;" 
d="M-638 1160q19 18 41.5 28.5t49.5 10.5h272q10 0 10 -10v-67q0 -10 -10 -10h-268q-10 0 -19 -3.5t-18 -8.5l1 1q-6 -5 -15 -15.5t-9 -27.5q0 -9 6 -20.5t21 -23.5l-4 1l2 -1h1q8 -4 17 -8t17 -4h27l108 58q4 2 9 0l109 -62q6 -5 3 -13l-25 -48q-2 -4 -6 -5.5t-8 0.5
l-78 42l-106 -56h-37q-57 0 -89 36h1l-15 15q-3 1 -5 5q-1 2 -1 3q-5 5 -6 8q-3 2 -5 12q0 1 -0.5 1t-0.5 1l-3 3q-7 15 -9.5 28t-2.5 25q0 23 7 42.5t17 35.5q5 5 4.5 6t1.5 3t1.5 2t0.5 2q1 3 5 7l5 2l-1 -4q0 1 0.5 1t0.5 1z" />
    <glyph glyph-name="maiekupperleftthai" 
d="M-329 1190v188q0 10 10 10h60q9 0 9 -10v-188h-79z" />
    <glyph glyph-name="maiekupperleftthai" unicode="&#xf713;" 
d="M-329 1190v188q0 10 10 10h60q9 0 9 -10v-188h-79z" />
    <glyph glyph-name="maiekupperleftthai" unicode="&#x203a;" 
d="M-329 1190v188q0 10 10 10h60q9 0 9 -10v-188h-79z" />
    <glyph glyph-name="maithoupperleftthai" 
d="M-235 1247q10 0 10 -10v-63q0 -10 -10 -10h-240q-4 0 -7 3l-23 25q-3 3 -3 6v75h-51q-10 0 -10 9v68q0 9 10 9h76q15 0 24.5 -4.5t16 -11.5t10 -15t5.5 -14v-67h192z" />
    <glyph glyph-name="maithoupperleftthai" unicode="&#xf714;" 
d="M-235 1247q10 0 10 -10v-63q0 -10 -10 -10h-240q-4 0 -7 3l-23 25q-3 3 -3 6v75h-51q-10 0 -10 9v68q0 9 10 9h76q15 0 24.5 -4.5t16 -11.5t10 -15t5.5 -14v-67h192z" />
    <glyph glyph-name="maithoupperleftthai" unicode="&#x153;" 
d="M-235 1247q10 0 10 -10v-63q0 -10 -10 -10h-240q-4 0 -7 3l-23 25q-3 3 -3 6v75h-51q-10 0 -10 9v68q0 9 10 9h76q15 0 24.5 -4.5t16 -11.5t10 -15t5.5 -14v-67h192z" />
    <glyph glyph-name="maitriupperleftthai" 
d="M-423 1227q0 -10 -10 -10h-148q-10 0 -10 10v73q0 30 11 53t32 43q23 17 48.5 25.5t59.5 8.5h7q10 0 21 -3q9 -2 18.5 -6t16.5 -12q8 6 24 13t39 8h5h8.5t8.5 -2q128 -8 128 -128v-1h131q4 0 7 -3t2 -8l-7 -62q0 -9 -10 -9h-197q-10 0 -10 10v62q0 56 -50 59
q-8 0 -20.5 -3.5t-20.5 -17.5q-2 -5 -9 -5h-47q-8 7 -17 13q-8 5 -17.5 9t-19.5 4h-5q-2 0 -6 -2q-23 -3 -34.5 -13.5t-12.5 -33.5q18 0 37 -1t37 -1q10 0 10 -10v-60z" />
    <glyph glyph-name="maitriupperleftthai" unicode="&#xf715;" 
d="M-423 1227q0 -10 -10 -10h-148q-10 0 -10 10v73q0 30 11 53t32 43q23 17 48.5 25.5t59.5 8.5h7q10 0 21 -3q9 -2 18.5 -6t16.5 -12q8 6 24 13t39 8h5h8.5t8.5 -2q128 -8 128 -128v-1h131q4 0 7 -3t2 -8l-7 -62q0 -9 -10 -9h-197q-10 0 -10 10v62q0 56 -50 59
q-8 0 -20.5 -3.5t-20.5 -17.5q-2 -5 -9 -5h-47q-8 7 -17 13q-8 5 -17.5 9t-19.5 4h-5q-2 0 -6 -2q-23 -3 -34.5 -13.5t-12.5 -33.5q18 0 37 -1t37 -1q10 0 10 -10v-60z" />
    <glyph glyph-name="maichattawaupperleftthai" 
d="M-353 1286h-82q-9 0 -9 10v62q0 9 9 9h82v85q0 10 10 10h63q10 0 10 -10v-85h82q10 0 10 -9v-62q0 -10 -10 -10h-82v-80q0 -10 -10 -10h-63q-10 0 -10 10v80z" />
    <glyph glyph-name="maichattawaupperleftthai" unicode="&#xf716;" 
d="M-353 1286h-82q-9 0 -9 10v62q0 9 9 9h82v85q0 10 10 10h63q10 0 10 -10v-85h82q10 0 10 -9v-62q0 -10 -10 -10h-82v-80q0 -10 -10 -10h-63q-10 0 -10 10v80z" />
    <glyph glyph-name="maichattawaupperleftthai" unicode="&#x17e;" 
d="M-353 1286h-82q-9 0 -9 10v62q0 9 9 9h82v85q0 10 10 10h63q10 0 10 -10v-85h82q10 0 10 -9v-62q0 -10 -10 -10h-82v-80q0 -10 -10 -10h-63q-10 0 -10 10v80z" />
    <glyph glyph-name="thanthakhatupperleftthai" 
d="M-391 1345q0 10 10 10h260q10 0 10 -10v-63q0 -10 -10 -10h-190v-33q0 -10 -9 -10h-61q-10 0 -10 10v106z" />
    <glyph glyph-name="thanthakhatupperleftthai" unicode="&#xf717;" 
d="M-391 1345q0 10 10 10h260q10 0 10 -10v-63q0 -10 -10 -10h-190v-33q0 -10 -9 -10h-61q-10 0 -10 10v106z" />
    <glyph glyph-name="thanthakhatupperleftthai" unicode="&#x178;" 
d="M-391 1345q0 10 10 10h260q10 0 10 -10v-63q0 -10 -10 -10h-190v-33q0 -10 -9 -10h-61q-10 0 -10 10v106z" />
    <glyph glyph-name="uni00A0" unicode="&#xa0;" horiz-adv-x="925" 
 />
    <glyph glyph-name="uni00A0" unicode="&#xe00;" horiz-adv-x="925" 
 />
    <glyph glyph-name="kokaithai" unicode="&#xa1;" horiz-adv-x="835" 
d="M173 8q0 -10 -10 -10h-64q-9 0 -9 10v572q0 65 26 115t76 92q98 73 231 73q136 0 234 -71q98 -81 98 -206v-572q0 -10 -10 -10h-62q-9 0 -9 10v572q0 45 -19 83q-9 18 -24 33.5t-31 29.5q-17 13 -37 23.5t-43 18.5q-20 6 -45.5 9.5t-51.5 3.5q-50 0 -95 -14
q-25 -8 -45 -18.5t-37 -22.5q-34 -28 -53 -67q-12 -17 -16 -37t-4 -42v-575z" />
    <glyph glyph-name="kokaithai" unicode="&#xe01;" horiz-adv-x="835" 
d="M173 8q0 -10 -10 -10h-64q-9 0 -9 10v572q0 65 26 115t76 92q98 73 231 73q136 0 234 -71q98 -81 98 -206v-572q0 -10 -10 -10h-62q-9 0 -9 10v572q0 45 -19 83q-9 18 -24 33.5t-31 29.5q-17 13 -37 23.5t-43 18.5q-20 6 -45.5 9.5t-51.5 3.5q-50 0 -95 -14
q-25 -8 -45 -18.5t-37 -22.5q-34 -28 -53 -67q-12 -17 -16 -37t-4 -42v-575z" />
    <glyph glyph-name="khokhaithai" unicode="&#xa2;" horiz-adv-x="768" 
d="M655 855q10 0 10 -10v-554q0 -30 -7 -62t-18 -58t-25.5 -49.5t-34.5 -43.5q-20 -18 -45 -34.5t-55 -27.5q-23 -7 -46.5 -11.5t-52.5 -4.5h-15q-12 0 -23 1t-19 3h-2q-1 0 -2 1q-20 2 -34 5.5t-25 7.5q-27 9 -51 25t-46 36l-10 11l-9 12q-11 15 -21.5 31t-19.5 38
q-21 57 -21 120v152q0 62 22 123q8 15 18.5 31t21.5 32l20 25q18 19 41.5 33t50.5 24q-3 6 -7 10q-40 37 -100 53h1q-20 5 -41 5q-17 0 -22 12.5t-5 20.5v8q0 24 9.5 29.5t12.5 5.5q12 0 25.5 -1.5t24.5 -3.5q14 -2 29 -6t29 -10h-1q28 -10 51 -24.5t44 -34.5v1
q11 -11 20.5 -23t20.5 -27q2 -5 9 -19q2 -17 -4 -27.5t-15 -17.5q-11 -8 -24 -12q-6 -2 -9 -2q-48 -15 -83 -49q-59 -61 -59 -156v-152q0 -97 59 -156q39 -42 100 -53q9 -1 56 -8q44 2 80 17t65 44t45 68.5t16 87.5v554q0 10 10 10h61z" />
    <glyph glyph-name="khokhaithai" unicode="&#xe02;" horiz-adv-x="768" 
d="M655 855q10 0 10 -10v-554q0 -30 -7 -62t-18 -58t-25.5 -49.5t-34.5 -43.5q-20 -18 -45 -34.5t-55 -27.5q-23 -7 -46.5 -11.5t-52.5 -4.5h-15q-12 0 -23 1t-19 3h-2q-1 0 -2 1q-20 2 -34 5.5t-25 7.5q-27 9 -51 25t-46 36l-10 11l-9 12q-11 15 -21.5 31t-19.5 38
q-21 57 -21 120v152q0 62 22 123q8 15 18.5 31t21.5 32l20 25q18 19 41.5 33t50.5 24q-3 6 -7 10q-40 37 -100 53h1q-20 5 -41 5q-17 0 -22 12.5t-5 20.5v8q0 24 9.5 29.5t12.5 5.5q12 0 25.5 -1.5t24.5 -3.5q14 -2 29 -6t29 -10h-1q28 -10 51 -24.5t44 -34.5v1
q11 -11 20.5 -23t20.5 -27q2 -5 9 -19q2 -17 -4 -27.5t-15 -17.5q-11 -8 -24 -12q-6 -2 -9 -2q-48 -15 -83 -49q-59 -61 -59 -156v-152q0 -97 59 -156q39 -42 100 -53q9 -1 56 -8q44 2 80 17t65 44t45 68.5t16 87.5v554q0 10 10 10h61z" />
    <glyph glyph-name="khokhuatthai" unicode="&#xa3;" horiz-adv-x="793" 
d="M673 862q10 0 10 -10v-554q0 -32 -6 -62.5t-15 -56.5q-11 -28 -27.5 -52t-35.5 -41q-21 -21 -43.5 -35.5t-51.5 -24.5h1q-23 -9 -47.5 -13.5t-53.5 -6.5h-24q-5 0 -13 1t-14 2q-3 0 -6 1t-6 1q-11 2 -25.5 6t-30.5 9q-27 10 -51.5 24.5t-44.5 35.5l-9 8q-4 5 -14 12
l-11 17h1q-9 14 -16.5 28t-11.5 28l1 -1q-25 53 -25 120v150q0 70 25 120l-1 -1q4 16 12.5 30.5t17.5 28.5l-1 -1l9 15q9 6 11.5 9t5.5 6l6 7q19 17 42.5 32.5t51.5 26.5v49q-5 -5 -11.5 -10t-10.5 -10l-51 -47q-7 -7 -13 0q-4 4 -8.5 10t-8.5 11q-1 0 -4 3q-2 0 -5.5 2
t0.5 1q-2 1 -3.5 2.5l-2.5 2.5l-4 6q-2 2 -2 4l-26 20q-6 5 -12.5 10t-13.5 10q-9 8 -16.5 13.5t-15.5 10.5h1q-23 9 -20.5 19.5t16.5 29.5q9 13 18.5 14t20.5 1q26 -15 47.5 -29.5t41.5 -34.5l8 -9q20 17 41 35t40 35h38q3 0 9 -1t12.5 -5.5t11 -12.5t4.5 -22v-121v-7.5
t-3 -15t-10 -17t-21 -13.5q-25 -8 -45 -19t-37 -30q-64 -64 -64 -158v-150q0 -100 64 -156q20 -21 44.5 -34t53.5 -21h-1q14 -2 26 -3.5t25 -1.5q45 2 80.5 16.5t66.5 43.5q60 55 60 156v554q0 10 9 10h61z" />
    <glyph glyph-name="khokhuatthai" unicode="&#xe03;" horiz-adv-x="793" 
d="M673 862q10 0 10 -10v-554q0 -32 -6 -62.5t-15 -56.5q-11 -28 -27.5 -52t-35.5 -41q-21 -21 -43.5 -35.5t-51.5 -24.5h1q-23 -9 -47.5 -13.5t-53.5 -6.5h-24q-5 0 -13 1t-14 2q-3 0 -6 1t-6 1q-11 2 -25.5 6t-30.5 9q-27 10 -51.5 24.5t-44.5 35.5l-9 8q-4 5 -14 12
l-11 17h1q-9 14 -16.5 28t-11.5 28l1 -1q-25 53 -25 120v150q0 70 25 120l-1 -1q4 16 12.5 30.5t17.5 28.5l-1 -1l9 15q9 6 11.5 9t5.5 6l6 7q19 17 42.5 32.5t51.5 26.5v49q-5 -5 -11.5 -10t-10.5 -10l-51 -47q-7 -7 -13 0q-4 4 -8.5 10t-8.5 11q-1 0 -4 3q-2 0 -5.5 2
t0.5 1q-2 1 -3.5 2.5l-2.5 2.5l-4 6q-2 2 -2 4l-26 20q-6 5 -12.5 10t-13.5 10q-9 8 -16.5 13.5t-15.5 10.5h1q-23 9 -20.5 19.5t16.5 29.5q9 13 18.5 14t20.5 1q26 -15 47.5 -29.5t41.5 -34.5l8 -9q20 17 41 35t40 35h38q3 0 9 -1t12.5 -5.5t11 -12.5t4.5 -22v-121v-7.5
t-3 -15t-10 -17t-21 -13.5q-25 -8 -45 -19t-37 -30q-64 -64 -64 -158v-150q0 -100 64 -156q20 -21 44.5 -34t53.5 -21h-1q14 -2 26 -3.5t25 -1.5q45 2 80.5 16.5t66.5 43.5q60 55 60 156v554q0 10 9 10h61z" />
    <glyph glyph-name="khokhwaithai" unicode="&#xa4;" horiz-adv-x="842" 
d="M656 797q51 -39 74 -90.5t23 -114.5v-579q0 -10 -10 -10h-62q-10 0 -10 10v579q0 41 -19 81v-1q-10 19 -24 35t-31 32h1q-17 14 -37.5 23.5t-44.5 17.5q-48 16 -99 16q-25 0 -51 -4t-51 -14q-45 -14 -76 -38q-31 -30 -54 -68q-10 -19 -15.5 -39.5t-5.5 -40.5v-141l6 6
q40 40 93 60h-1q57 23 122 23h5q10 0 10 -10v-59q0 -10 -10 -10h-5q-97 0 -159 -62q-61 -61 -61 -155v-231q0 -10 -10 -10h-62q-9 0 -9 10v579q0 63 24.5 114.5t75.5 90.5q101 83 234 83q70 0 128.5 -20.5t110.5 -62.5z" />
    <glyph glyph-name="khokhwaithai" unicode="&#xe04;" horiz-adv-x="842" 
d="M656 797q51 -39 74 -90.5t23 -114.5v-579q0 -10 -10 -10h-62q-10 0 -10 10v579q0 41 -19 81v-1q-10 19 -24 35t-31 32h1q-17 14 -37.5 23.5t-44.5 17.5q-48 16 -99 16q-25 0 -51 -4t-51 -14q-45 -14 -76 -38q-31 -30 -54 -68q-10 -19 -15.5 -39.5t-5.5 -40.5v-141l6 6
q40 40 93 60h-1q57 23 122 23h5q10 0 10 -10v-59q0 -10 -10 -10h-5q-97 0 -159 -62q-61 -61 -61 -155v-231q0 -10 -10 -10h-62q-9 0 -9 10v579q0 63 24.5 114.5t75.5 90.5q101 83 234 83q70 0 128.5 -20.5t110.5 -62.5z" />
    <glyph glyph-name="khokhonthai" unicode="&#xa5;" horiz-adv-x="930" 
d="M457 802q7 9 17.5 21.5t25.5 23t33 18t40 7.5q112 3 179 -84q31 -39 49 -86.5t18 -101.5v-592q0 -10 -10 -10h-65q-10 0 -10 10v592q0 39 -9 71.5t-29 59.5q-20 29 -45 44t-55 21q-6 0 -19 -2t-29 -12t-32 -30.5t-27 -57.5q-2 -7 -10 -7h-47q-8 0 -10 8q-7 31 -20 54
q-11 20 -30 34.5t-48 9.5q-57 -7 -99 -62q-16 -23 -24.5 -50.5t-10.5 -46.5t-3 -21v-1v1q-1 -1 -1 -2l1 1v-147l1 1q21 20 46 34.5t51 28.5q27 11 58.5 15.5t66.5 4.5q10 0 10 -11l-3 -57q0 -9 -10 -9q-96 0 -159 -60q-61 -61 -61 -160v-244q0 -10 -10 -10h-62q-10 0 -10 10
v592q0 29 3 54t12 51t20.5 46.5t35 49t56 45t57 21.5t51.5 5q7 1 9 0q8 0 21 -3.5t28 -11t30.5 -21t28.5 -34.5z" />
    <glyph glyph-name="khokhonthai" unicode="&#xe05;" horiz-adv-x="930" 
d="M457 802q7 9 17.5 21.5t25.5 23t33 18t40 7.5q112 3 179 -84q31 -39 49 -86.5t18 -101.5v-592q0 -10 -10 -10h-65q-10 0 -10 10v592q0 39 -9 71.5t-29 59.5q-20 29 -45 44t-55 21q-6 0 -19 -2t-29 -12t-32 -30.5t-27 -57.5q-2 -7 -10 -7h-47q-8 0 -10 8q-7 31 -20 54
q-11 20 -30 34.5t-48 9.5q-57 -7 -99 -62q-16 -23 -24.5 -50.5t-10.5 -46.5t-3 -21v-1v1q-1 -1 -1 -2l1 1v-147l1 1q21 20 46 34.5t51 28.5q27 11 58.5 15.5t66.5 4.5q10 0 10 -11l-3 -57q0 -9 -10 -9q-96 0 -159 -60q-61 -61 -61 -160v-244q0 -10 -10 -10h-62q-10 0 -10 10
v592q0 29 3 54t12 51t20.5 46.5t35 49t56 45t57 21.5t51.5 5q7 1 9 0q8 0 21 -3.5t28 -11t30.5 -21t28.5 -34.5z" />
    <glyph glyph-name="khorakhangthai" unicode="&#xa6;" horiz-adv-x="912" 
d="M721 846q0 10 9 10h65q10 0 10 -10v-562q0 -64 -25 -122v1q-11 -27 -26 -52.5t-35 -42.5v1q-22 -20 -46.5 -35.5t-49 -24.5t-50 -14t-54.5 -7h-112q-5 2 -12.5 2.5t-12.5 0.5q-2 0 -4.5 0.5t-4.5 0.5q-28 5 -61 19l1 -1q-26 8 -50 23.5t-44 34.5q-4 2 -10 8l-46 -89
q-5 -9 -14 -4l-53 30q-9 5 -4 14l68 123l-6 12q-22 58 -22 122v156q0 63 22 118v-1q8 23 18.5 40t23.5 33q6 6 9 12q3 4 13 14q42 37 96 59h1v49l-25 -22l-51 -47q-9 -7 -15 2q-9 15 -35 39.5t-67 51t-38.5 38t14.5 26.5q10 12 22 15t20 1q24 -15 46.5 -29.5t42.5 -33.5
l11 -12q20 18 40.5 37.5t39.5 37.5h36q4 0 10.5 -1t12.5 -5.5t10.5 -13t4.5 -23.5v-126q0 -10 -4 -20q-3 -8 -10.5 -17t-20.5 -14q-23 -8 -44 -20t-39 -32q-30 -32 -46.5 -70t-16.5 -86v-156q0 -51 16.5 -89.5t46.5 -69.5q20 -22 46 -35t55 -18q20 -5 35 -5h107q86 3 141 58
q30 31 45.5 69.5t15.5 89.5v562z" />
    <glyph glyph-name="khorakhangthai" unicode="&#xe06;" horiz-adv-x="912" 
d="M721 846q0 10 9 10h65q10 0 10 -10v-562q0 -64 -25 -122v1q-11 -27 -26 -52.5t-35 -42.5v1q-22 -20 -46.5 -35.5t-49 -24.5t-50 -14t-54.5 -7h-112q-5 2 -12.5 2.5t-12.5 0.5q-2 0 -4.5 0.5t-4.5 0.5q-28 5 -61 19l1 -1q-26 8 -50 23.5t-44 34.5q-4 2 -10 8l-46 -89
q-5 -9 -14 -4l-53 30q-9 5 -4 14l68 123l-6 12q-22 58 -22 122v156q0 63 22 118v-1q8 23 18.5 40t23.5 33q6 6 9 12q3 4 13 14q42 37 96 59h1v49l-25 -22l-51 -47q-9 -7 -15 2q-9 15 -35 39.5t-67 51t-38.5 38t14.5 26.5q10 12 22 15t20 1q24 -15 46.5 -29.5t42.5 -33.5
l11 -12q20 18 40.5 37.5t39.5 37.5h36q4 0 10.5 -1t12.5 -5.5t10.5 -13t4.5 -23.5v-126q0 -10 -4 -20q-3 -8 -10.5 -17t-20.5 -14q-23 -8 -44 -20t-39 -32q-30 -32 -46.5 -70t-16.5 -86v-156q0 -51 16.5 -89.5t46.5 -69.5q20 -22 46 -35t55 -18q20 -5 35 -5h107q86 3 141 58
q30 31 45.5 69.5t15.5 89.5v562z" />
    <glyph glyph-name="ngonguthai" unicode="&#xa7;" horiz-adv-x="651" 
d="M549 865q10 0 10 -10v-563q0 -32 -7 -64t-18 -62q-11 -25 -25 -46t-34 -41l-2 -2q0 -1 -1 -1q-20 -18 -44 -34t-56 -28q-20 -5 -39.5 -9.5t-42.5 -6.5q-16 -2 -26.5 3.5t-18.5 12.5q-7 10 -8 14q-1 3 -1 5l-158 640q-2 10 8 12l65 16q9 2 11 -8l151 -617q30 8 54.5 22
t47.5 35q29 31 45.5 71t16.5 88v563q0 10 10 10h62zM469 76q2 0 3 1q-1 -1 -3 -1z" />
    <glyph glyph-name="ngonguthai" unicode="&#xe07;" horiz-adv-x="651" 
d="M549 865q10 0 10 -10v-563q0 -32 -7 -64t-18 -62q-11 -25 -25 -46t-34 -41l-2 -2q0 -1 -1 -1q-20 -18 -44 -34t-56 -28q-20 -5 -39.5 -9.5t-42.5 -6.5q-16 -2 -26.5 3.5t-18.5 12.5q-7 10 -8 14q-1 3 -1 5l-158 640q-2 10 8 12l65 16q9 2 11 -8l151 -617q30 8 54.5 22
t47.5 35q29 31 45.5 71t16.5 88v563q0 10 10 10h62zM469 76q2 0 3 1q-1 -1 -3 -1z" />
    <glyph glyph-name="chochanthai" unicode="&#xa8;" horiz-adv-x="780" 
d="M582 811q11 -9 19.5 -18t16.5 -17q63 -75 63 -175v-319q0 -53 -16 -96t-47 -80q-8 -9 -17 -17t-20 -16q-20 -15 -40 -26.5t-43 -19.5q-11 -5 -20.5 -8t-18.5 -6l-23 -6q-4 -2 -8 0t-5 7l-13 57q-26 100 -49.5 197t-48.5 197h-61q-10 0 -10 10v61q0 10 10 10h123q7 0 9 -8
l105 -431q11 5 20 11.5t19 14.5h-1q33 26 54 62v-1q9 20 15 40.5t6 43.5v323q0 23 -6.5 45t-14.5 41q-11 16 -24.5 32.5t-28.5 28.5q-17 14 -39 26t-47 20l1 -1q-21 6 -46 9.5t-52 3.5q-47 0 -95 -12q-23 -9 -45 -20.5t-40 -25.5l1 1q-15 -14 -29.5 -30t-24.5 -33v3
q0 -2 -0.5 -3t-0.5 -2t-1 -3q-2 -4 -2 -6q-4 -11 -14 -6l-55 35q-3 2 -4.5 6t0.5 8q8 14 19 28.5t22 28.5l15 14q8 10 14 15q55 38 114.5 59t125.5 21q68 0 126.5 -19.5t110.5 -53.5h1z" />
    <glyph glyph-name="chochanthai" unicode="&#xe08;" horiz-adv-x="780" 
d="M582 811q11 -9 19.5 -18t16.5 -17q63 -75 63 -175v-319q0 -53 -16 -96t-47 -80q-8 -9 -17 -17t-20 -16q-20 -15 -40 -26.5t-43 -19.5q-11 -5 -20.5 -8t-18.5 -6l-23 -6q-4 -2 -8 0t-5 7l-13 57q-26 100 -49.5 197t-48.5 197h-61q-10 0 -10 10v61q0 10 10 10h123q7 0 9 -8
l105 -431q11 5 20 11.5t19 14.5h-1q33 26 54 62v-1q9 20 15 40.5t6 43.5v323q0 23 -6.5 45t-14.5 41q-11 16 -24.5 32.5t-28.5 28.5q-17 14 -39 26t-47 20l1 -1q-21 6 -46 9.5t-52 3.5q-47 0 -95 -12q-23 -9 -45 -20.5t-40 -25.5l1 1q-15 -14 -29.5 -30t-24.5 -33v3
q0 -2 -0.5 -3t-0.5 -2t-1 -3q-2 -4 -2 -6q-4 -11 -14 -6l-55 35q-3 2 -4.5 6t0.5 8q8 14 19 28.5t22 28.5l15 14q8 10 14 15q55 38 114.5 59t125.5 21q68 0 126.5 -19.5t110.5 -53.5h1z" />
    <glyph glyph-name="chochingthai" unicode="&#xa9;" horiz-adv-x="930" 
d="M709 798q5 -5 10 -8.5t10 -8.5q67 -79 67 -174v-323q0 -33 -6 -64t-22 -59l28 -150q1 -5 -2 -8.5t-8 -3.5h-60q-8 0 -10 8l-18 70l-3 -3q-52 -36 -109.5 -55.5t-123.5 -19.5q-69 0 -126.5 19.5t-108.5 54.5l1 -1q-12 7 -21 14.5t-17 17.5q-63 72 -63 177v129q-1 10 -5 20
q-3 8 -8.5 17.5t-13.5 15.5q-7 4 -6.5 9t7.5 8l57 32q7 3 12 -2q10 -12 18 -27q7 -13 13 -31.5t6 -40.5v-125q0 -23 6 -44.5t15 -38.5q21 -37 53 -62q16 -17 36 -28t43 -19v1q23 -7 49 -11t53 -4q23 0 47.5 4t48.5 11l-1 -1q23 9 44.5 19.5t38.5 26.5q16 14 29.5 28.5
t21.5 30.5q12 18 18.5 41.5t6.5 45.5v321q0 21 -6 41.5t-17 35.5q-9 20 -20.5 34t-25.5 28l-7 7l2 -1q-18 11 -39.5 22.5t-45.5 19.5q-21 8 -45.5 12t-49.5 4q-56 0 -100 -17q-26 -8 -46 -19t-37 -25t-30 -28.5t-23 -35.5q-15 -26 -18 -57q0 -9 -9 -9h-64q-10 0 -10 11
q3 42 19.5 78.5t43.5 68.5q8 8 16.5 16t21.5 16h-1q100 76 237 76q131 0 238 -79z" />
    <glyph glyph-name="chochingthai" unicode="&#xe09;" horiz-adv-x="930" 
d="M709 798q5 -5 10 -8.5t10 -8.5q67 -79 67 -174v-323q0 -33 -6 -64t-22 -59l28 -150q1 -5 -2 -8.5t-8 -3.5h-60q-8 0 -10 8l-18 70l-3 -3q-52 -36 -109.5 -55.5t-123.5 -19.5q-69 0 -126.5 19.5t-108.5 54.5l1 -1q-12 7 -21 14.5t-17 17.5q-63 72 -63 177v129q-1 10 -5 20
q-3 8 -8.5 17.5t-13.5 15.5q-7 4 -6.5 9t7.5 8l57 32q7 3 12 -2q10 -12 18 -27q7 -13 13 -31.5t6 -40.5v-125q0 -23 6 -44.5t15 -38.5q21 -37 53 -62q16 -17 36 -28t43 -19v1q23 -7 49 -11t53 -4q23 0 47.5 4t48.5 11l-1 -1q23 9 44.5 19.5t38.5 26.5q16 14 29.5 28.5
t21.5 30.5q12 18 18.5 41.5t6.5 45.5v321q0 21 -6 41.5t-17 35.5q-9 20 -20.5 34t-25.5 28l-7 7l2 -1q-18 11 -39.5 22.5t-45.5 19.5q-21 8 -45.5 12t-49.5 4q-56 0 -100 -17q-26 -8 -46 -19t-37 -25t-30 -28.5t-23 -35.5q-15 -26 -18 -57q0 -9 -9 -9h-64q-10 0 -10 11
q3 42 19.5 78.5t43.5 68.5q8 8 16.5 16t21.5 16h-1q100 76 237 76q131 0 238 -79z" />
    <glyph glyph-name="chochangthai" unicode="&#xaa;" horiz-adv-x="865" 
d="M739 821q0 -8 -6 -21t-22 -13q-10 0 -21.5 -1t-22.5 -6q-56 -13 -99 -53l-6 -9q26 -10 48.5 -24.5t42.5 -30.5q5 -6 10 -12.5t10 -14.5v1q13 -17 23.5 -33.5t19.5 -40.5v1q10 -26 16.5 -55.5t6.5 -62.5v-156q0 -33 -6 -64t-17 -59q-8 -18 -18.5 -34.5t-24.5 -34.5l1 1
q-8 -16 -21 -26v1q-20 -19 -44.5 -34t-53.5 -26h1q-13 -6 -28 -10t-32 -6h-4.5t-5.5 -1q-11 -2 -23 -3t-27 -1l-8 1l-3 2q-28 0 -56 5q-11 2 -21.5 4.5t-18.5 4.5q-5 1 -10 2.5t-10 2.5q-28 11 -53 26.5t-45 35.5l-6 6q-9 9 -14 18q-11 14 -22.5 32t-20.5 36
q-12 26 -18.5 58.5t-6.5 64.5v156q0 30 6.5 61.5t18.5 57.5q8 20 19.5 38.5t23.5 33.5q4 6 10 13t12 12q18 18 42.5 34t48.5 24l-6 6q-44 44 -100 54q-22 8 -47 8q-16 0 -21 11.5t-7 18.5v9q0 12 3.5 19t8 11t8.5 5t5 1q14 0 26 -0.5t26 -5.5q14 -2 25 -4.5t22 -5.5h-1
l10 -3q27 -10 52.5 -26.5t44.5 -33.5q15 -11 24 -24.5t17 -27.5l-2 2q2 -3 6 -8t3 -3l8 -11q2 -16 -4.5 -26.5t-16.5 -17.5q-11 -8 -26 -12q-3 -2 -8 -2q-47 -14 -86 -50q-30 -29 -45 -69.5t-15 -88.5v-156q0 -48 15 -88.5t45 -69.5q21 -23 47 -36t59 -19q24 -8 55 -8h3
q4 0 4 -2q31 0 55 7q30 6 56.5 19.5t47.5 36.5q32 29 46.5 68t14.5 90v156q0 48 -14.5 87.5t-46.5 68.5q-38 36 -82 52q-4 0 -10 2q-1 0 -9.5 3t-17.5 9.5t-16 17t-5 27.5q8 8 10 11q0 1 1 2.5t1 2.5q8 14 19.5 28.5t22.5 25.5q19 18 44.5 34t51.5 26q14 4 30 8t30 6l55 7
q5 -4 12 -11t7 -24v-8zM401 726v-1v1z" />
    <glyph glyph-name="chochangthai" unicode="&#xe0a;" horiz-adv-x="865" 
d="M739 821q0 -8 -6 -21t-22 -13q-10 0 -21.5 -1t-22.5 -6q-56 -13 -99 -53l-6 -9q26 -10 48.5 -24.5t42.5 -30.5q5 -6 10 -12.5t10 -14.5v1q13 -17 23.5 -33.5t19.5 -40.5v1q10 -26 16.5 -55.5t6.5 -62.5v-156q0 -33 -6 -64t-17 -59q-8 -18 -18.5 -34.5t-24.5 -34.5l1 1
q-8 -16 -21 -26v1q-20 -19 -44.5 -34t-53.5 -26h1q-13 -6 -28 -10t-32 -6h-4.5t-5.5 -1q-11 -2 -23 -3t-27 -1l-8 1l-3 2q-28 0 -56 5q-11 2 -21.5 4.5t-18.5 4.5q-5 1 -10 2.5t-10 2.5q-28 11 -53 26.5t-45 35.5l-6 6q-9 9 -14 18q-11 14 -22.5 32t-20.5 36
q-12 26 -18.5 58.5t-6.5 64.5v156q0 30 6.5 61.5t18.5 57.5q8 20 19.5 38.5t23.5 33.5q4 6 10 13t12 12q18 18 42.5 34t48.5 24l-6 6q-44 44 -100 54q-22 8 -47 8q-16 0 -21 11.5t-7 18.5v9q0 12 3.5 19t8 11t8.5 5t5 1q14 0 26 -0.5t26 -5.5q14 -2 25 -4.5t22 -5.5h-1
l10 -3q27 -10 52.5 -26.5t44.5 -33.5q15 -11 24 -24.5t17 -27.5l-2 2q2 -3 6 -8t3 -3l8 -11q2 -16 -4.5 -26.5t-16.5 -17.5q-11 -8 -26 -12q-3 -2 -8 -2q-47 -14 -86 -50q-30 -29 -45 -69.5t-15 -88.5v-156q0 -48 15 -88.5t45 -69.5q21 -23 47 -36t59 -19q24 -8 55 -8h3
q4 0 4 -2q31 0 55 7q30 6 56.5 19.5t47.5 36.5q32 29 46.5 68t14.5 90v156q0 48 -14.5 87.5t-46.5 68.5q-38 36 -82 52q-4 0 -10 2q-1 0 -9.5 3t-17.5 9.5t-16 17t-5 27.5q8 8 10 11q0 1 1 2.5t1 2.5q8 14 19.5 28.5t22.5 25.5q19 18 44.5 34t51.5 26q14 4 30 8t30 6l55 7
q5 -4 12 -11t7 -24v-8zM401 726v-1v1z" />
    <glyph glyph-name="sosothai" unicode="&#xab;" horiz-adv-x="815" 
d="M724 820q0 -9 -5.5 -23.5t-23.5 -14.5q-17 0 -35 -3q-2 0 -4 -0.5t-4 -0.5q-28 -8 -54.5 -21.5t-44.5 -33.5l-6 -7q26 -11 48.5 -26.5t42.5 -32.5q5 -5 8.5 -9.5t6.5 -9.5l1 -2l4 -5l3 -3q11 -14 22.5 -29.5t22.5 -43.5q8 -24 13 -52.5t5 -62.5v-156q0 -32 -5.5 -61
t-13.5 -55q-11 -23 -23 -40.5t-24 -34.5q-4 -4 -4 -5q-4 -5 -8 -10.5t-9 -8.5q-20 -19 -45 -33t-51 -24h2q-11 -7 -23 -10t-25 -6l-12 -3q-15 -2 -29.5 -4t-30.5 -2h-7q-17 0 -32.5 2t-28.5 4q-2 0 -6 1t-5 1q-28 6 -48 17h2q-29 10 -53 23.5t-42 32.5q-4 2 -8 6.5t-7 8.5
l-10 10q-11 16 -21.5 34t-18.5 37q-10 27 -16 59t-6 61v156q0 68 22 122v-1q8 23 18 39t22 31q4 3 6.5 6t5.5 7q2 3 4.5 6t6.5 7q17 16 40 32t52 28v48l-20 -21l-54 -47q-5 -4 -9.5 -3.5t-5.5 5.5q-2 7 -5.5 10.5t-6.5 5.5q0 1 -1.5 2.5l-2.5 2.5q-2 1 -3.5 3t-2.5 3l-4 3
q-2 3 -3.5 5t-2.5 3l-20 17q-20 20 -32 28q-10 8 -19 13t-17 10q-21 11 -18.5 21t14.5 28q8 14 19 15t21 1q53 -29 91 -63l11 -13l77 73h40q3 0 9.5 -1t13 -5.5t11.5 -12.5t5 -23v-121q-1 -10 -5 -21q-4 -9 -11 -18.5t-21 -16.5q-49 -13 -83 -48q-62 -62 -62 -160v-156
q0 -48 15.5 -88t47.5 -69q18 -22 46 -35t55 -21q2 0 4 -0.5t4 -0.5q11 -2 23.5 -3t27.5 -1h4q19 0 40 3l14 2q26 8 54.5 22t45.5 34q32 29 47.5 69t15.5 88v156q0 96 -63 161q-30 35 -84 47q-1 0 -2 1v1h-6q-14 4 -25 12q-9 7 -15.5 17t-2.5 26l10 22q22 33 41 52
q41 38 96 59h-1q15 6 30.5 10t29.5 7l27 2q6 0 14 0.5t16 0.5q5 -3 12 -10t7 -25v-3zM299 720q-2 0 -4 -2l6 2h-2z" />
    <glyph glyph-name="sosothai" unicode="&#xe0b;" horiz-adv-x="815" 
d="M724 820q0 -9 -5.5 -23.5t-23.5 -14.5q-17 0 -35 -3q-2 0 -4 -0.5t-4 -0.5q-28 -8 -54.5 -21.5t-44.5 -33.5l-6 -7q26 -11 48.5 -26.5t42.5 -32.5q5 -5 8.5 -9.5t6.5 -9.5l1 -2l4 -5l3 -3q11 -14 22.5 -29.5t22.5 -43.5q8 -24 13 -52.5t5 -62.5v-156q0 -32 -5.5 -61
t-13.5 -55q-11 -23 -23 -40.5t-24 -34.5q-4 -4 -4 -5q-4 -5 -8 -10.5t-9 -8.5q-20 -19 -45 -33t-51 -24h2q-11 -7 -23 -10t-25 -6l-12 -3q-15 -2 -29.5 -4t-30.5 -2h-7q-17 0 -32.5 2t-28.5 4q-2 0 -6 1t-5 1q-28 6 -48 17h2q-29 10 -53 23.5t-42 32.5q-4 2 -8 6.5t-7 8.5
l-10 10q-11 16 -21.5 34t-18.5 37q-10 27 -16 59t-6 61v156q0 68 22 122v-1q8 23 18 39t22 31q4 3 6.5 6t5.5 7q2 3 4.5 6t6.5 7q17 16 40 32t52 28v48l-20 -21l-54 -47q-5 -4 -9.5 -3.5t-5.5 5.5q-2 7 -5.5 10.5t-6.5 5.5q0 1 -1.5 2.5l-2.5 2.5q-2 1 -3.5 3t-2.5 3l-4 3
q-2 3 -3.5 5t-2.5 3l-20 17q-20 20 -32 28q-10 8 -19 13t-17 10q-21 11 -18.5 21t14.5 28q8 14 19 15t21 1q53 -29 91 -63l11 -13l77 73h40q3 0 9.5 -1t13 -5.5t11.5 -12.5t5 -23v-121q-1 -10 -5 -21q-4 -9 -11 -18.5t-21 -16.5q-49 -13 -83 -48q-62 -62 -62 -160v-156
q0 -48 15.5 -88t47.5 -69q18 -22 46 -35t55 -21q2 0 4 -0.5t4 -0.5q11 -2 23.5 -3t27.5 -1h4q19 0 40 3l14 2q26 8 54.5 22t45.5 34q32 29 47.5 69t15.5 88v156q0 96 -63 161q-30 35 -84 47q-1 0 -2 1v1h-6q-14 4 -25 12q-9 7 -15.5 17t-2.5 26l10 22q22 33 41 52
q41 38 96 59h-1q15 6 30.5 10t29.5 7l27 2q6 0 14 0.5t16 0.5q5 -3 12 -10t7 -25v-3zM299 720q-2 0 -4 -2l6 2h-2z" />
    <glyph glyph-name="chochoethai" unicode="&#xac;" horiz-adv-x="1460" 
d="M1260 862q0 10 10 10h64q10 0 10 -10v-591q0 -102 -67 -176l1 1q-8 -10 -16 -17.5t-17 -15.5q-52 -38 -110.5 -57.5t-127.5 -19.5q-67 0 -125 19t-109 55q-5 4 -8 6.5t-5 4.5l-4.5 4.5l-7.5 7.5l-18 -78q-2 -8 -9 -8h-64q-5 0 -8 3.5t-2 8.5l22 116v468q0 23 -5.5 43.5
t-13.5 37.5v-1q-12 21 -26 36.5t-32 31.5v-1q-17 14 -35 24t-42 18q-47 15 -101 15q-50 0 -98 -15h1q-22 -9 -42.5 -18.5t-37.5 -22.5l-10 -11q-13 -13 -24.5 -26t-20.5 -31q-9 -17 -14.5 -38.5t-5.5 -41.5v-326q0 -22 5.5 -43.5t14.5 -38.5q11 -19 24.5 -35t30.5 -32
q17 -12 36.5 -22.5t42.5 -18.5v1q20 -6 41.5 -9t43.5 -5q9 0 9 -10v-58q0 -10 -10 -10q-61 2 -116.5 20.5t-103.5 53.5q-11 9 -19 17l-16 16q-64 74 -64 174v322q0 51 16 95.5t48 80.5l16 16t19 17q50 36 109 55t125 19q69 0 127 -19t111 -55l-1 1q8 -5 14 -11l13 -13l7 -7
q67 -75 67 -175l2 -71v-255q0 -22 4.5 -43.5t13.5 -38.5h-1q11 -18 25 -33.5t34 -33.5l-1 1q17 -12 37.5 -23t42.5 -19q23 -5 48 -9t50 -4t50.5 4t50.5 10l-1 -1q23 8 42.5 19t39.5 26l-1 -1q17 15 30.5 30.5t25.5 33.5h-1q9 19 13 41t4 45v591v0z" />
    <glyph glyph-name="chochoethai" unicode="&#xe0c;" horiz-adv-x="1460" 
d="M1260 862q0 10 10 10h64q10 0 10 -10v-591q0 -102 -67 -176l1 1q-8 -10 -16 -17.5t-17 -15.5q-52 -38 -110.5 -57.5t-127.5 -19.5q-67 0 -125 19t-109 55q-5 4 -8 6.5t-5 4.5l-4.5 4.5l-7.5 7.5l-18 -78q-2 -8 -9 -8h-64q-5 0 -8 3.5t-2 8.5l22 116v468q0 23 -5.5 43.5
t-13.5 37.5v-1q-12 21 -26 36.5t-32 31.5v-1q-17 14 -35 24t-42 18q-47 15 -101 15q-50 0 -98 -15h1q-22 -9 -42.5 -18.5t-37.5 -22.5l-10 -11q-13 -13 -24.5 -26t-20.5 -31q-9 -17 -14.5 -38.5t-5.5 -41.5v-326q0 -22 5.5 -43.5t14.5 -38.5q11 -19 24.5 -35t30.5 -32
q17 -12 36.5 -22.5t42.5 -18.5v1q20 -6 41.5 -9t43.5 -5q9 0 9 -10v-58q0 -10 -10 -10q-61 2 -116.5 20.5t-103.5 53.5q-11 9 -19 17l-16 16q-64 74 -64 174v322q0 51 16 95.5t48 80.5l16 16t19 17q50 36 109 55t125 19q69 0 127 -19t111 -55l-1 1q8 -5 14 -11l13 -13l7 -7
q67 -75 67 -175l2 -71v-255q0 -22 4.5 -43.5t13.5 -38.5h-1q11 -18 25 -33.5t34 -33.5l-1 1q17 -12 37.5 -23t42.5 -19q23 -5 48 -9t50 -4t50.5 4t50.5 10l-1 -1q23 8 42.5 19t39.5 26l-1 -1q17 15 30.5 30.5t25.5 33.5h-1q9 19 13 41t4 45v591v0z" />
    <glyph glyph-name="yoyingthai" unicode="&#xad;" horiz-adv-x="1457" 
d="M1248 -123q10 0 10 -10v-64q0 -10 -10 -10h-423q-9 0 -9 10v115q0 10 9 10h66q10 0 10 -10v-41h347zM1332 876q10 0 10 -10v-593q0 -51 -17 -95.5t-48 -80.5q-8 -8 -17 -16l-18 -16q-104 -75 -237 -75q-66 0 -126.5 19.5t-113.5 55.5l-18 16l-14 14q-18 24 -30 44
q-16 32 -25.5 64.5t-9.5 68.5v326q0 20 -5.5 40t-15.5 39q-10 20 -23.5 35t-29.5 28q-17 14 -36.5 25t-43.5 17q-23 10 -49 14.5t-52 4.5q-25 0 -50.5 -4.5t-48.5 -14.5q-23 -5 -41.5 -16.5t-37.5 -25.5q-19 -13 -32 -28t-23 -35q-10 -19 -15.5 -40.5t-5.5 -41.5v-323
q0 -23 5.5 -44t15.5 -38q11 -19 24 -35.5t31 -30.5q19 -15 38 -24.5t43 -16.5q21 -7 41.5 -11t40.5 -6q9 -2 9 -10v-56q0 -10 -10 -10q-61 2 -116 21t-106 52l-18 17l-15 15q-65 75 -65 177v323q0 48 17 92t49 79q7 9 15.5 17t18.5 16q53 37 110 57t126 20q66 0 126 -19
t112 -54q8 -10 16 -18t17 -16q67 -72 67 -174v-323q2 -24 6.5 -44.5t13.5 -37.5q10 -18 24.5 -35t31.5 -31q17 -16 38 -26t42 -16q22 -8 47 -12t51 -4q54 0 99 16q25 6 45 16.5t40 28.5q16 11 29 27t22 35q8 17 14 38t6 45v594q0 10 10 10h62z" />
    <glyph glyph-name="yoyingthai" unicode="&#xe0d;" horiz-adv-x="1457" 
d="M1248 -123q10 0 10 -10v-64q0 -10 -10 -10h-423q-9 0 -9 10v115q0 10 9 10h66q10 0 10 -10v-41h347zM1332 876q10 0 10 -10v-593q0 -51 -17 -95.5t-48 -80.5q-8 -8 -17 -16l-18 -16q-104 -75 -237 -75q-66 0 -126.5 19.5t-113.5 55.5l-18 16l-14 14q-18 24 -30 44
q-16 32 -25.5 64.5t-9.5 68.5v326q0 20 -5.5 40t-15.5 39q-10 20 -23.5 35t-29.5 28q-17 14 -36.5 25t-43.5 17q-23 10 -49 14.5t-52 4.5q-25 0 -50.5 -4.5t-48.5 -14.5q-23 -5 -41.5 -16.5t-37.5 -25.5q-19 -13 -32 -28t-23 -35q-10 -19 -15.5 -40.5t-5.5 -41.5v-323
q0 -23 5.5 -44t15.5 -38q11 -19 24 -35.5t31 -30.5q19 -15 38 -24.5t43 -16.5q21 -7 41.5 -11t40.5 -6q9 -2 9 -10v-56q0 -10 -10 -10q-61 2 -116 21t-106 52l-18 17l-15 15q-65 75 -65 177v323q0 48 17 92t49 79q7 9 15.5 17t18.5 16q53 37 110 57t126 20q66 0 126 -19
t112 -54q8 -10 16 -18t17 -16q67 -72 67 -174v-323q2 -24 6.5 -44.5t13.5 -37.5q10 -18 24.5 -35t31.5 -31q17 -16 38 -26t42 -16q22 -8 47 -12t51 -4q54 0 99 16q25 6 45 16.5t40 28.5q16 11 29 27t22 35q8 17 14 38t6 45v594q0 10 10 10h62z" />
    <glyph glyph-name="yoyingthai" unicode="&#xde;" horiz-adv-x="1457" 
d="M1248 -123q10 0 10 -10v-64q0 -10 -10 -10h-423q-9 0 -9 10v115q0 10 9 10h66q10 0 10 -10v-41h347zM1332 876q10 0 10 -10v-593q0 -51 -17 -95.5t-48 -80.5q-8 -8 -17 -16l-18 -16q-104 -75 -237 -75q-66 0 -126.5 19.5t-113.5 55.5l-18 16l-14 14q-18 24 -30 44
q-16 32 -25.5 64.5t-9.5 68.5v326q0 20 -5.5 40t-15.5 39q-10 20 -23.5 35t-29.5 28q-17 14 -36.5 25t-43.5 17q-23 10 -49 14.5t-52 4.5q-25 0 -50.5 -4.5t-48.5 -14.5q-23 -5 -41.5 -16.5t-37.5 -25.5q-19 -13 -32 -28t-23 -35q-10 -19 -15.5 -40.5t-5.5 -41.5v-323
q0 -23 5.5 -44t15.5 -38q11 -19 24 -35.5t31 -30.5q19 -15 38 -24.5t43 -16.5q21 -7 41.5 -11t40.5 -6q9 -2 9 -10v-56q0 -10 -10 -10q-61 2 -116 21t-106 52l-18 17l-15 15q-65 75 -65 177v323q0 48 17 92t49 79q7 9 15.5 17t18.5 16q53 37 110 57t126 20q66 0 126 -19
t112 -54q8 -10 16 -18t17 -16q67 -72 67 -174v-323q2 -24 6.5 -44.5t13.5 -37.5q10 -18 24.5 -35t31.5 -31q17 -16 38 -26t42 -16q22 -8 47 -12t51 -4q54 0 99 16q25 6 45 16.5t40 28.5q16 11 29 27t22 35q8 17 14 38t6 45v594q0 10 10 10h62z" />
    <glyph glyph-name="dochadathai" unicode="&#xae;" horiz-adv-x="975" 
d="M707 795q52 -38 76 -90.5t24 -120.5v-692l-4 -9l-88 -175l1 5q0 -1 -1 -1.5t-1 -1.5q0 -6 -5 -9t-10 0l-199 104q-17 -22 -37 -39t-48 -28h1l-19 -9.5t-22 -10.5q-51 -13 -104 -13q-64 0 -127 21q-5 2 -6.5 6t0.5 7l20 54q4 7 12 4q38 -12 85 -16q23 0 45 2.5t42 9.5
q20 5 38 16t35 24q3 2 5.5 5t5.5 7l10 11l-1 -1q7 11 13.5 22t13.5 28q4 10 13 5l55 -28l144 -75q12 25 26 51t26 52v659q0 48 -18.5 88t-48.5 69q-36 26 -81.5 40.5t-98.5 14.5q-134 0 -217 -82q-2 -2 -4 -5.5t-2 -5.5q2 -3 5 -5q4 -2 8 -6t7 -9v-658q0 -10 -10 -10h-59
q-9 0 -9 10v574q0 3 -0.5 10t-3 13.5t-6.5 11.5t-11 5h-18q-7 1 -11 6q-5 5 -8 13.5t-3 25.5q2 2 4 6q2 5 10 17q116 172 328 172q136 0 228 -69z" />
    <glyph glyph-name="dochadathai" unicode="&#xe0e;" horiz-adv-x="975" 
d="M707 795q52 -38 76 -90.5t24 -120.5v-692l-4 -9l-88 -175l1 5q0 -1 -1 -1.5t-1 -1.5q0 -6 -5 -9t-10 0l-199 104q-17 -22 -37 -39t-48 -28h1l-19 -9.5t-22 -10.5q-51 -13 -104 -13q-64 0 -127 21q-5 2 -6.5 6t0.5 7l20 54q4 7 12 4q38 -12 85 -16q23 0 45 2.5t42 9.5
q20 5 38 16t35 24q3 2 5.5 5t5.5 7l10 11l-1 -1q7 11 13.5 22t13.5 28q4 10 13 5l55 -28l144 -75q12 25 26 51t26 52v659q0 48 -18.5 88t-48.5 69q-36 26 -81.5 40.5t-98.5 14.5q-134 0 -217 -82q-2 -2 -4 -5.5t-2 -5.5q2 -3 5 -5q4 -2 8 -6t7 -9v-658q0 -10 -10 -10h-59
q-9 0 -9 10v574q0 3 -0.5 10t-3 13.5t-6.5 11.5t-11 5h-18q-7 1 -11 6q-5 5 -8 13.5t-3 25.5q2 2 4 6q2 5 10 17q116 172 328 172q136 0 228 -69z" />
    <glyph glyph-name="topatakthai" unicode="&#xaf;" horiz-adv-x="887" 
d="M658 795q102 -76 102 -211v-863l-2 -8q0 -10 -10 -10h-55l-9 4q-45 23 -90 43.5t-90 43.5l-45 -87l-4 -4q-6 -6 -11 -2l-199 104q-18 -21 -37.5 -38t-46.5 -29q-8 -5 -20.5 -10t-27.5 -10q-1 0 -1.5 -0.5t-1.5 -0.5l4 1q-8 -5 -16 -5q-10 0 -10 10v63q0 7 6 9
q17 7 33.5 15.5t30.5 22.5q5 5 10.5 12t9.5 12q8 8 14.5 19t11.5 26q2 7 10 7l5 2l56 -29l143 -75q5 9 8.5 16t8.5 15v-1l28 55q4 9 13 5l55 -25l147 -71v768q0 100 -70 157q-35 26 -79.5 40.5t-98.5 14.5q-138 0 -217 -83l-3 -5l2 2l-2 -4q-1 -1 -1 -2q1 -5 6 -7
q2 -2 5.5 -5t7.5 -8v-653q0 -10 -9 -10h-60q-10 0 -10 10v566l-2 8q-2 10 -5 22t-12 12h-20q-7 1 -11 6q-5 5 -8 13.5t-3 25.5q2 2 4 6q2 5 10 17q117 172 328 172q136 0 228 -69z" />
    <glyph glyph-name="topatakthai" unicode="&#xe0f;" horiz-adv-x="887" 
d="M658 795q102 -76 102 -211v-863l-2 -8q0 -10 -10 -10h-55l-9 4q-45 23 -90 43.5t-90 43.5l-45 -87l-4 -4q-6 -6 -11 -2l-199 104q-18 -21 -37.5 -38t-46.5 -29q-8 -5 -20.5 -10t-27.5 -10q-1 0 -1.5 -0.5t-1.5 -0.5l4 1q-8 -5 -16 -5q-10 0 -10 10v63q0 7 6 9
q17 7 33.5 15.5t30.5 22.5q5 5 10.5 12t9.5 12q8 8 14.5 19t11.5 26q2 7 10 7l5 2l56 -29l143 -75q5 9 8.5 16t8.5 15v-1l28 55q4 9 13 5l55 -25l147 -71v768q0 100 -70 157q-35 26 -79.5 40.5t-98.5 14.5q-138 0 -217 -83l-3 -5l2 2l-2 -4q-1 -1 -1 -2q1 -5 6 -7
q2 -2 5.5 -5t7.5 -8v-653q0 -10 -9 -10h-60q-10 0 -10 10v566l-2 8q-2 10 -5 22t-12 12h-20q-7 1 -11 6q-5 5 -8 13.5t-3 25.5q2 2 4 6q2 5 10 17q117 172 328 172q136 0 228 -69z" />
    <glyph glyph-name="thothanthai" unicode="&#xb0;" horiz-adv-x="797" 
d="M127 666q-2 -3 -2.5 -5t-3.5 -5q-5 -5 -12 -1l-51 34q-9 5 -4 13q8 13 17.5 26.5t19.5 27.5l34 32q51 37 108 56.5t123 19.5t123.5 -19.5t107.5 -55.5q1 -2 3 -3l15 73q2 8 9 8h60q5 0 8 -3.5t2 -8.5l-28 -149q14 -28 21 -57t7 -62v-315q0 -98 -62 -166q-8 -10 -17 -18
t-19 -16q-17 -14 -37 -25.5t-43 -19.5l-18 -7h1l-19 -7q-12 -2 -20 2.5t-14 11.5t-9.5 15.5t-4.5 14.5l-3 13l-95 383h-60q-9 0 -9 10v61q0 10 9 10h117q8 0 10 -8l105 -421q10 5 18.5 11t18.5 14q15 12 27.5 27t24.5 35v-1q9 19 14.5 39t5.5 42v315q0 23 -6 43t-14 37
q-12 18 -24.5 34t-27.5 30q-19 13 -40 23t-41 18q-42 14 -96 14q-48 0 -93 -15q-51 -16 -82 -40h1q-33 -28 -54 -64zM603 -40q0 10 10 10h57q9 0 9 -10v-222q0 -9 -9 -9h-53q-3 0 -6 3l-5 3l3 -2l-173 83q-11 -20 -20.5 -40.5t-20.5 -40.5l1 3l-1 -1q-1 0 -1 -1
q0 -6 -4.5 -9t-9.5 0l-193 99q-15 -20 -36 -36t-42 -28q-8 -5 -18 -9.5t-26 -9.5h1q-8 -5 -18 -5t-10 10v60q0 7 6 9q17 7 32.5 15.5t27.5 20.5q5 4 10 10.5t8 11.5q9 10 15.5 21t14.5 26q4 9 13 5l53 -26l137 -72l16 29v-1l24 53q4 8 13 4l56 -23l139 -67v136z" />
    <glyph glyph-name="thothanthai" unicode="&#xe10;" horiz-adv-x="797" 
d="M127 666q-2 -3 -2.5 -5t-3.5 -5q-5 -5 -12 -1l-51 34q-9 5 -4 13q8 13 17.5 26.5t19.5 27.5l34 32q51 37 108 56.5t123 19.5t123.5 -19.5t107.5 -55.5q1 -2 3 -3l15 73q2 8 9 8h60q5 0 8 -3.5t2 -8.5l-28 -149q14 -28 21 -57t7 -62v-315q0 -98 -62 -166q-8 -10 -17 -18
t-19 -16q-17 -14 -37 -25.5t-43 -19.5l-18 -7h1l-19 -7q-12 -2 -20 2.5t-14 11.5t-9.5 15.5t-4.5 14.5l-3 13l-95 383h-60q-9 0 -9 10v61q0 10 9 10h117q8 0 10 -8l105 -421q10 5 18.5 11t18.5 14q15 12 27.5 27t24.5 35v-1q9 19 14.5 39t5.5 42v315q0 23 -6 43t-14 37
q-12 18 -24.5 34t-27.5 30q-19 13 -40 23t-41 18q-42 14 -96 14q-48 0 -93 -15q-51 -16 -82 -40h1q-33 -28 -54 -64zM603 -40q0 10 10 10h57q9 0 9 -10v-222q0 -9 -9 -9h-53q-3 0 -6 3l-5 3l3 -2l-173 83q-11 -20 -20.5 -40.5t-20.5 -40.5l1 3l-1 -1q-1 0 -1 -1
q0 -6 -4.5 -9t-9.5 0l-193 99q-15 -20 -36 -36t-42 -28q-8 -5 -18 -9.5t-26 -9.5h1q-8 -5 -18 -5t-10 10v60q0 7 6 9q17 7 32.5 15.5t27.5 20.5q5 4 10 10.5t8 11.5q9 10 15.5 21t14.5 26q4 9 13 5l53 -26l137 -72l16 29v-1l24 53q4 8 13 4l56 -23l139 -67v136z" />
    <glyph glyph-name="thonangmonthothai" unicode="&#xb1;" horiz-adv-x="941" 
d="M780 761q28 -35 44 -76t16 -90v-579q0 -10 -10 -10h-63q-10 0 -10 10v581q0 43 -20 79q-5 9 -10 16l-10 14q-6 7 -19 19.5t-30 23.5t-38 17t-45 2q-21 -3 -37.5 -14t-29.5 -25t-22 -28t-14 -24l-284 -661q-2 -6 -9 -6h-67q-10 0 -10 10v430q0 32 7 62t19 58q7 18 17 34.5
t22 32.5l22 25q17 17 39 30.5t48 24.5l5 3v48q-5 -5 -11.5 -10t-11.5 -10l-50 -48q-4 -4 -8.5 -3t-6.5 6t-6.5 10t-9.5 11q-4 0 -3.5 1t-1.5 3q-1 1 -1 2q-9 5 -12 11l-2 2q-7 7 -16 14.5t-18 15.5l-13 10q-11 8 -19 13t-18 10q-17 13 -16 23.5t14 27.5q11 12 23.5 13.5
t17.5 -2.5q23 -14 44 -28t41 -31l11 -12l79 72h37q3 0 9 -1t12 -5t10.5 -12.5t4.5 -22.5v-123q-1 -10 -5 -20q-4 -8 -10.5 -17.5t-20.5 -15.5q-46 -14 -79 -45q-60 -62 -60 -157v-237q51 122 104 243t105 242q2 6 13 30t30 51t47 50.5t65 28.5q2 0 2 -0.5t2 0.5t5 2t7 1h16
q8 -3 11 -3.5t3.5 -0.5t1 0.5t2.5 0.5l17 -2q25 -9 45.5 -17.5t37.5 -21.5q16 -7 29 -19q7 -4 14.5 -10.5t12.5 -11.5l8 -8q1 -1 2 -1.5t2 -1.5t1 -2z" />
    <glyph glyph-name="thonangmonthothai" unicode="&#xe11;" horiz-adv-x="941" 
d="M780 761q28 -35 44 -76t16 -90v-579q0 -10 -10 -10h-63q-10 0 -10 10v581q0 43 -20 79q-5 9 -10 16l-10 14q-6 7 -19 19.5t-30 23.5t-38 17t-45 2q-21 -3 -37.5 -14t-29.5 -25t-22 -28t-14 -24l-284 -661q-2 -6 -9 -6h-67q-10 0 -10 10v430q0 32 7 62t19 58q7 18 17 34.5
t22 32.5l22 25q17 17 39 30.5t48 24.5l5 3v48q-5 -5 -11.5 -10t-11.5 -10l-50 -48q-4 -4 -8.5 -3t-6.5 6t-6.5 10t-9.5 11q-4 0 -3.5 1t-1.5 3q-1 1 -1 2q-9 5 -12 11l-2 2q-7 7 -16 14.5t-18 15.5l-13 10q-11 8 -19 13t-18 10q-17 13 -16 23.5t14 27.5q11 12 23.5 13.5
t17.5 -2.5q23 -14 44 -28t41 -31l11 -12l79 72h37q3 0 9 -1t12 -5t10.5 -12.5t4.5 -22.5v-123q-1 -10 -5 -20q-4 -8 -10.5 -17.5t-20.5 -15.5q-46 -14 -79 -45q-60 -62 -60 -157v-237q51 122 104 243t105 242q2 6 13 30t30 51t47 50.5t65 28.5q2 0 2 -0.5t2 0.5t5 2t7 1h16
q8 -3 11 -3.5t3.5 -0.5t1 0.5t2.5 0.5l17 -2q25 -9 45.5 -17.5t37.5 -21.5q16 -7 29 -19q7 -4 14.5 -10.5t12.5 -11.5l8 -8q1 -1 2 -1.5t2 -1.5t1 -2z" />
    <glyph glyph-name="thophuthaothai" unicode="&#xb2;" horiz-adv-x="1468" 
d="M1265 848q0 10 10 10h63q10 0 10 -10v-581q0 -48 -16.5 -91t-49.5 -79h1q-10 -11 -21 -21v1l-11 -11q-102 -75 -233 -75t-230 73l-22 21l-18 -77q-2 -8 -10 -8h-60q-5 0 -7.5 3.5t-1.5 8.5l32 182l-1 2v-1q-4 17 -7 34.5t-3 34.5l3 252v71q0 72 -36 120q-39 58 -100 66
q-21 2 -40 -7q-17 -8 -34.5 -28t-28.5 -60q-2 -7 -10 -7h-48q-8 0 -10 8q-8 30 -20 52q-11 19 -29.5 32.5t-46.5 9.5q-27 -4 -53 -20t-45 -46q-30 -38 -35 -101l-3 -215v-127q0 -19 5.5 -38.5t21.5 -47.5t48 -53q16 -15 36 -25t42 -17v1q20 -5 41 -10t40 -5q10 0 10 -10v-56
q0 -10 -10 -10q-61 2 -116.5 21t-104.5 54l-16 15l-14 13q-61 73 -61 171v320q0 54 14 102q6 22 19.5 44.5t27.5 40.5q14 17 34 31.5t40 25.5h-1q20 11 44 15t50 4h6q5 0 17.5 -2.5t28.5 -10t32.5 -20.5t29.5 -34q7 9 18 21t26 22.5t34 17.5t42 6q51 0 93.5 -18.5
t76.5 -60.5q32 -42 48.5 -86.5t16.5 -97.5v-323q0 -19 4 -39t14 -38q10 -20 23 -34.5t30 -27.5q34 -29 78 -43h-1q24 -6 47.5 -11t49.5 -5q25 0 50 5t49 11h-1q23 7 43 18t34 25q17 13 31 27.5t23 33.5q10 18 14 38.5t4 42.5v581z" />
    <glyph glyph-name="thophuthaothai" unicode="&#xe12;" horiz-adv-x="1468" 
d="M1265 848q0 10 10 10h63q10 0 10 -10v-581q0 -48 -16.5 -91t-49.5 -79h1q-10 -11 -21 -21v1l-11 -11q-102 -75 -233 -75t-230 73l-22 21l-18 -77q-2 -8 -10 -8h-60q-5 0 -7.5 3.5t-1.5 8.5l32 182l-1 2v-1q-4 17 -7 34.5t-3 34.5l3 252v71q0 72 -36 120q-39 58 -100 66
q-21 2 -40 -7q-17 -8 -34.5 -28t-28.5 -60q-2 -7 -10 -7h-48q-8 0 -10 8q-8 30 -20 52q-11 19 -29.5 32.5t-46.5 9.5q-27 -4 -53 -20t-45 -46q-30 -38 -35 -101l-3 -215v-127q0 -19 5.5 -38.5t21.5 -47.5t48 -53q16 -15 36 -25t42 -17v1q20 -5 41 -10t40 -5q10 0 10 -10v-56
q0 -10 -10 -10q-61 2 -116.5 21t-104.5 54l-16 15l-14 13q-61 73 -61 171v320q0 54 14 102q6 22 19.5 44.5t27.5 40.5q14 17 34 31.5t40 25.5h-1q20 11 44 15t50 4h6q5 0 17.5 -2.5t28.5 -10t32.5 -20.5t29.5 -34q7 9 18 21t26 22.5t34 17.5t42 6q51 0 93.5 -18.5
t76.5 -60.5q32 -42 48.5 -86.5t16.5 -97.5v-323q0 -19 4 -39t14 -38q10 -20 23 -34.5t30 -27.5q34 -29 78 -43h-1q24 -6 47.5 -11t49.5 -5q25 0 50 5t49 11h-1q23 7 43 18t34 25q17 13 31 27.5t23 33.5q10 18 14 38.5t4 42.5v581z" />
    <glyph glyph-name="nonenthai" unicode="&#xb3;" horiz-adv-x="1390" 
d="M1203 857q0 10 10 10h60q10 0 10 -10v-580q0 -31 -6 -61t-22 -59l28 -141q1 -5 -2 -8.5t-8 -3.5h-60q-8 0 -10 8l-13 66l-4 -4q-48 -35 -106.5 -54t-124.5 -19t-123.5 18.5t-105.5 52.5q-11 8 -20.5 16.5t-19.5 21.5l-7 10l-7 12q-2 2 -3 2.5t-2 1.5q-9 14 -16.5 30.5
t-12.5 31.5h1q-14 37 -14 77v320q0 45 -16 80v-1q-11 17 -25 32.5t-31 30.5v-1q-16 14 -35 23t-42 17q-50 15 -98 15q-47 0 -99 -15q-20 -8 -41 -18t-38 -22q-15 -16 -29.5 -32t-24.5 -30l1 1q-8 -19 -14 -39.5t-6 -43.5v-312q0 -20 6 -40t17 -37q8 -17 21 -32t29 -28h-1
q18 -13 37.5 -24.5t42.5 -19.5h-1q49 -12 100 -12q10 0 10 -10v-54q0 -10 -10 -10q-66 0 -124 16t-109 53l-17 15l-18 18q-32 34 -47 75.5t-15 92.5v309q0 50 13.5 90.5t43.5 75.5q9 8 19.5 17t21.5 15h-1q51 40 108.5 58.5t124.5 18.5q130 0 232 -72l3 -4q10 -8 18 -14
t13 -17q32 -35 49.5 -76t17.5 -89l-3 -175v-145q0 -22 5.5 -42t13.5 -37q18 -38 53 -63q17 -17 37.5 -26t40.5 -17v1q50 -14 97 -14q26 0 49 3.5t47 10.5v-1q21 8 42 17.5t38 28.5q18 11 31 26.5t23 34.5q8 17 13 37t5 41v582v0z" />
    <glyph glyph-name="nonenthai" unicode="&#xe13;" horiz-adv-x="1390" 
d="M1203 857q0 10 10 10h60q10 0 10 -10v-580q0 -31 -6 -61t-22 -59l28 -141q1 -5 -2 -8.5t-8 -3.5h-60q-8 0 -10 8l-13 66l-4 -4q-48 -35 -106.5 -54t-124.5 -19t-123.5 18.5t-105.5 52.5q-11 8 -20.5 16.5t-19.5 21.5l-7 10l-7 12q-2 2 -3 2.5t-2 1.5q-9 14 -16.5 30.5
t-12.5 31.5h1q-14 37 -14 77v320q0 45 -16 80v-1q-11 17 -25 32.5t-31 30.5v-1q-16 14 -35 23t-42 17q-50 15 -98 15q-47 0 -99 -15q-20 -8 -41 -18t-38 -22q-15 -16 -29.5 -32t-24.5 -30l1 1q-8 -19 -14 -39.5t-6 -43.5v-312q0 -20 6 -40t17 -37q8 -17 21 -32t29 -28h-1
q18 -13 37.5 -24.5t42.5 -19.5h-1q49 -12 100 -12q10 0 10 -10v-54q0 -10 -10 -10q-66 0 -124 16t-109 53l-17 15l-18 18q-32 34 -47 75.5t-15 92.5v309q0 50 13.5 90.5t43.5 75.5q9 8 19.5 17t21.5 15h-1q51 40 108.5 58.5t124.5 18.5q130 0 232 -72l3 -4q10 -8 18 -14
t13 -17q32 -35 49.5 -76t17.5 -89l-3 -175v-145q0 -22 5.5 -42t13.5 -37q18 -38 53 -63q17 -17 37.5 -26t40.5 -17v1q50 -14 97 -14q26 0 49 3.5t47 10.5v-1q21 8 42 17.5t38 28.5q18 11 31 26.5t23 34.5q8 17 13 37t5 41v582v0z" />
    <glyph glyph-name="dodekthai" unicode="&#xb4;" horiz-adv-x="858" 
d="M772 10q0 -10 -10 -10h-66q-10 0 -10 10v578q0 22 -5.5 41.5t-13.5 39.5v-1q-11 17 -26 32.5t-32 29.5h1q-19 13 -39 23.5t-43.5 18.5t-50 11.5t-55.5 3.5q-26 0 -52 -3.5t-49.5 -11.5t-44 -18.5t-39.5 -23.5q-17 -14 -31 -29t-24 -33q-20 -37 -20 -82v-249
q0 -12 0.5 -40t1 -62l1 -68t0.5 -57q0 -17 6.5 -24t15.5 -8q2 1 7 1.5t7 0.5q22 4 33 7q22 8 42.5 17.5t40.5 26.5q17 11 30 26.5t24 34.5q5 5 15 34q2 6 9 6h66q12 0 10 -12q-7 -32 -21.5 -61t-40.5 -56l-11 -11q-6 -5 -25 -22q-85 -57 -188 -70h1q-10 -2 -19.5 -2.5
t-17.5 -0.5q-33 2 -49.5 22.5t-21.5 43.5q-2 9 -2.5 17.5t-0.5 15.5v15v475q0 99 70 169q9 9 17 16.5t18 14.5q53 38 113 57.5t129 19.5q140 0 247 -74q9 -7 17.5 -15t16.5 -16q33 -35 51 -77.5t18 -92.5v-578z" />
    <glyph glyph-name="dodekthai" unicode="&#xe14;" horiz-adv-x="858" 
d="M772 10q0 -10 -10 -10h-66q-10 0 -10 10v578q0 22 -5.5 41.5t-13.5 39.5v-1q-11 17 -26 32.5t-32 29.5h1q-19 13 -39 23.5t-43.5 18.5t-50 11.5t-55.5 3.5q-26 0 -52 -3.5t-49.5 -11.5t-44 -18.5t-39.5 -23.5q-17 -14 -31 -29t-24 -33q-20 -37 -20 -82v-249
q0 -12 0.5 -40t1 -62l1 -68t0.5 -57q0 -17 6.5 -24t15.5 -8q2 1 7 1.5t7 0.5q22 4 33 7q22 8 42.5 17.5t40.5 26.5q17 11 30 26.5t24 34.5q5 5 15 34q2 6 9 6h66q12 0 10 -12q-7 -32 -21.5 -61t-40.5 -56l-11 -11q-6 -5 -25 -22q-85 -57 -188 -70h1q-10 -2 -19.5 -2.5
t-17.5 -0.5q-33 2 -49.5 22.5t-21.5 43.5q-2 9 -2.5 17.5t-0.5 15.5v15v475q0 99 70 169q9 9 17 16.5t18 14.5q53 38 113 57.5t129 19.5q140 0 247 -74q9 -7 17.5 -15t16.5 -16q33 -35 51 -77.5t18 -92.5v-578z" />
    <glyph glyph-name="totaothai" unicode="&#xb5;" horiz-adv-x="900" 
d="M793 10q0 -10 -9 -10h-65q-10 0 -10 10v601q0 71 -39 122q-17 26 -41 40t-53 18h-13q-6 0 -13.5 -1t-15.5 -4h1q-16 -10 -34 -29t-29 -58q-2 -7 -10 -7h-51q-8 0 -10 8q-4 17 -11 34q-6 14 -15.5 28.5t-24.5 23.5h1q-9 2 -20 4.5t-23 0.5q-29 -4 -53 -18t-42 -40
q-17 -23 -26 -48.5t-8 -221t1 -229.5t1 -120q0 -20 8 -26t16 -6q11 0 28 5q8 0 16 4q23 5 45 16.5t39 24.5t31.5 27.5t24.5 34.5q3 4 7 14l-1 -4q0 1 0.5 1.5t0.5 1.5q0 10 10 10h69q5 0 8.5 -4t1.5 -9q-9 -28 -23.5 -51t-34.5 -46q-9 -9 -17.5 -17t-20.5 -16
q-41 -31 -88 -47t-99 -23h1q-10 -2 -20.5 -3.5t-18.5 0.5q-33 3 -48.5 21.5t-20 35t-5 298t3.5 307.5t13 48v-1q9 25 20.5 43.5t25.5 34.5q33 34 76 56q20 10 42.5 14.5t47.5 5.5q25 0 36 -4.5t32 -16t37 -30.5q5 2 8.5 1.5t8.5 -0.5h8q12 12 31 25.5t44 21.5l-1 -1
q7 2 15.5 4.5t14.5 2.5q56 0 97.5 -20.5t76.5 -59.5q29 -36 47.5 -80.5t18.5 -95.5v-601z" />
    <glyph glyph-name="totaothai" unicode="&#xe15;" horiz-adv-x="900" 
d="M793 10q0 -10 -9 -10h-65q-10 0 -10 10v601q0 71 -39 122q-17 26 -41 40t-53 18h-13q-6 0 -13.5 -1t-15.5 -4h1q-16 -10 -34 -29t-29 -58q-2 -7 -10 -7h-51q-8 0 -10 8q-4 17 -11 34q-6 14 -15.5 28.5t-24.5 23.5h1q-9 2 -20 4.5t-23 0.5q-29 -4 -53 -18t-42 -40
q-17 -23 -26 -48.5t-8 -221t1 -229.5t1 -120q0 -20 8 -26t16 -6q11 0 28 5q8 0 16 4q23 5 45 16.5t39 24.5t31.5 27.5t24.5 34.5q3 4 7 14l-1 -4q0 1 0.5 1.5t0.5 1.5q0 10 10 10h69q5 0 8.5 -4t1.5 -9q-9 -28 -23.5 -51t-34.5 -46q-9 -9 -17.5 -17t-20.5 -16
q-41 -31 -88 -47t-99 -23h1q-10 -2 -20.5 -3.5t-18.5 0.5q-33 3 -48.5 21.5t-20 35t-5 298t3.5 307.5t13 48v-1q9 25 20.5 43.5t25.5 34.5q33 34 76 56q20 10 42.5 14.5t47.5 5.5q25 0 36 -4.5t32 -16t37 -30.5q5 2 8.5 1.5t8.5 -0.5h8q12 12 31 25.5t44 21.5l-1 -1
q7 2 15.5 4.5t14.5 2.5q56 0 97.5 -20.5t76.5 -59.5q29 -36 47.5 -80.5t18.5 -95.5v-601z" />
    <glyph glyph-name="thothungthai" unicode="&#xb6;" horiz-adv-x="802" 
d="M715 679q17 -43 17 -90v-574q0 -10 -11 -10h-63q-9 0 -9 10v574q0 23 -4.5 42t-12.5 36q-6 9 -12 17.5t-13 16.5t-14.5 15.5t-17.5 15.5h1q-15 12 -34 23q-18 10 -39 18q-4 0 -6 1t-6 1q-11 2 -21.5 4t-21.5 4t-23 3t-24 1h-228h-17v-11v-190v-96v-219q0 -24 4 -41
q2 -10 5 -19.5t8 -17.5q5 -9 11 -17.5t13 -16.5q16 -18 32 -31h-2q10 -7 19 -13.5t18 -11.5q10 -5 20 -9t21 -8l11 -2q5 -1 11 -2l12 -2q6 -2 11.5 -2.5t10.5 -2.5q12 -2 9 -12l-13 -55q-2 -11 -11 -9q-25 4 -47 10t-43 14q-22 10 -42.5 21t-40.5 27l1 -2q-23 12 -35 30
l1 -1q-67 78 -67 173v219v96v201v51q0 7 3 12q2 5 7 8.5t15 3.5h58h245h1q66 0 123 -17q59 -20 107 -55q6 -5 10.5 -8t8.5 -7q8 -7 14 -17q34 -37 50 -79z" />
    <glyph glyph-name="thothungthai" unicode="&#xe16;" horiz-adv-x="802" 
d="M715 679q17 -43 17 -90v-574q0 -10 -11 -10h-63q-9 0 -9 10v574q0 23 -4.5 42t-12.5 36q-6 9 -12 17.5t-13 16.5t-14.5 15.5t-17.5 15.5h1q-15 12 -34 23q-18 10 -39 18q-4 0 -6 1t-6 1q-11 2 -21.5 4t-21.5 4t-23 3t-24 1h-228h-17v-11v-190v-96v-219q0 -24 4 -41
q2 -10 5 -19.5t8 -17.5q5 -9 11 -17.5t13 -16.5q16 -18 32 -31h-2q10 -7 19 -13.5t18 -11.5q10 -5 20 -9t21 -8l11 -2q5 -1 11 -2l12 -2q6 -2 11.5 -2.5t10.5 -2.5q12 -2 9 -12l-13 -55q-2 -11 -11 -9q-25 4 -47 10t-43 14q-22 10 -42.5 21t-40.5 27l1 -2q-23 12 -35 30
l1 -1q-67 78 -67 173v219v96v201v51q0 7 3 12q2 5 7 8.5t15 3.5h58h245h1q66 0 123 -17q59 -20 107 -55q6 -5 10.5 -8t8.5 -7q8 -7 14 -17q34 -37 50 -79z" />
    <glyph glyph-name="thothahanthai" unicode="&#xb7;" horiz-adv-x="847" 
d="M96 587q0 25 4.5 51t13.5 48l-31 169q-1 5 2 8.5t8 3.5h60q8 0 10 -8l17 -78l16 13q100 73 233 73q66 0 124 -17.5t107 -53.5q50 -41 76 -92.5t26 -113.5v-572q0 -10 -9 -10h-64q-10 0 -10 10v572q0 22 -4.5 42.5t-15.5 39.5q-19 37 -53 64q-18 14 -37 24t-42 18v-1
q-50 14 -98 14q-50 0 -98 -14v1q-21 -8 -41 -18.5t-38 -23.5q-16 -13 -30.5 -30t-24.5 -36q-10 -17 -14 -37.5t-4 -42.5v-575q0 -10 -9 -10h-64q-10 0 -10 10v572v0z" />
    <glyph glyph-name="thothahanthai" unicode="&#x2219;" horiz-adv-x="847" 
d="M96 587q0 25 4.5 51t13.5 48l-31 169q-1 5 2 8.5t8 3.5h60q8 0 10 -8l17 -78l16 13q100 73 233 73q66 0 124 -17.5t107 -53.5q50 -41 76 -92.5t26 -113.5v-572q0 -10 -9 -10h-64q-10 0 -10 10v572q0 22 -4.5 42.5t-15.5 39.5q-19 37 -53 64q-18 14 -37 24t-42 18v-1
q-50 14 -98 14q-50 0 -98 -14v1q-21 -8 -41 -18.5t-38 -23.5q-16 -13 -30.5 -30t-24.5 -36q-10 -17 -14 -37.5t-4 -42.5v-575q0 -10 -9 -10h-64q-10 0 -10 10v572v0z" />
    <glyph glyph-name="thothahanthai" unicode="&#xe17;" horiz-adv-x="847" 
d="M96 587q0 25 4.5 51t13.5 48l-31 169q-1 5 2 8.5t8 3.5h60q8 0 10 -8l17 -78l16 13q100 73 233 73q66 0 124 -17.5t107 -53.5q50 -41 76 -92.5t26 -113.5v-572q0 -10 -9 -10h-64q-10 0 -10 10v572q0 22 -4.5 42.5t-15.5 39.5q-19 37 -53 64q-18 14 -37 24t-42 18v-1
q-50 14 -98 14q-50 0 -98 -14v1q-21 -8 -41 -18.5t-38 -23.5q-16 -13 -30.5 -30t-24.5 -36q-10 -17 -14 -37.5t-4 -42.5v-575q0 -10 -9 -10h-64q-10 0 -10 10v572v0z" />
    <glyph glyph-name="thothongthai" unicode="&#xb8;" horiz-adv-x="861" 
d="M768 415q4 -2 6 -6q5 -15 7 -29.5t2 -28.5v-98q0 -45 -17 -82t-49 -68q-9 -9 -17.5 -17t-18.5 -16q-97 -73 -231 -73q-136 0 -234 73l1 -1q-8 5 -14.5 10.5t-13.5 12.5l-9 9q-30 37 -46.5 80t-16.5 93v178q0 10 10 10h61q10 0 10 -10v-178q0 -46 20 -81q17 -35 52 -62
q18 -16 39 -26.5t41 -18.5l-1 1q50 -14 101 -14q25 0 48 3.5t48 10.5v-1q23 8 43.5 19t37.5 26q37 25 52 62q10 17 15.5 38.5t5.5 42.5v78l-573 198q-10 0 -10 10v68q6 39 22 72t41 65q29 27 37 32l-1 -1q100 76 234 76q66 0 123.5 -19t107.5 -55q6 -5 12.5 -10.5
t12.5 -10.5l10 -10q21 -25 36 -52t23 -57q3 -12 -10 -12h-66q-7 0 -9 7l-4 7l-7 15q-8 17 -22 33t-32 32h1q-17 12 -37.5 23.5t-40.5 17.5q-45 15 -98 15t-98 -15v-1q-22 -7 -43.5 -18.5t-38.5 -23.5q-16 -14 -29.5 -29.5t-22.5 -33.5q-8 -14 -12.5 -30.5t-6.5 -33.5
l514 -177z" />
    <glyph glyph-name="thothongthai" unicode="&#xe18;" horiz-adv-x="861" 
d="M768 415q4 -2 6 -6q5 -15 7 -29.5t2 -28.5v-98q0 -45 -17 -82t-49 -68q-9 -9 -17.5 -17t-18.5 -16q-97 -73 -231 -73q-136 0 -234 73l1 -1q-8 5 -14.5 10.5t-13.5 12.5l-9 9q-30 37 -46.5 80t-16.5 93v178q0 10 10 10h61q10 0 10 -10v-178q0 -46 20 -81q17 -35 52 -62
q18 -16 39 -26.5t41 -18.5l-1 1q50 -14 101 -14q25 0 48 3.5t48 10.5v-1q23 8 43.5 19t37.5 26q37 25 52 62q10 17 15.5 38.5t5.5 42.5v78l-573 198q-10 0 -10 10v68q6 39 22 72t41 65q29 27 37 32l-1 -1q100 76 234 76q66 0 123.5 -19t107.5 -55q6 -5 12.5 -10.5
t12.5 -10.5l10 -10q21 -25 36 -52t23 -57q3 -12 -10 -12h-66q-7 0 -9 7l-4 7l-7 15q-8 17 -22 33t-32 32h1q-17 12 -37.5 23.5t-40.5 17.5q-45 15 -98 15t-98 -15v-1q-22 -7 -43.5 -18.5t-38.5 -23.5q-16 -14 -29.5 -29.5t-22.5 -33.5q-8 -14 -12.5 -30.5t-6.5 -33.5
l514 -177z" />
    <glyph glyph-name="nonuthai" unicode="&#xb9;" horiz-adv-x="869" 
d="M769 284q0 -25 -4.5 -50.5t-14.5 -47.5l32 -168q1 -5 -2 -8.5t-8 -3.5h-60q-8 0 -10 8l-17 76l-8 -6l-8 -6q-101 -72 -233 -72q-66 0 -124 17.5t-107 53.5q-50 40 -76 91.5t-26 112.5v568q0 10 9 10h64q10 0 10 -10v-568q0 -22 4.5 -42.5t15.5 -38.5q18 -37 53 -64
t79 -42v1q50 -14 98 -14t98 14v-1q21 8 41 18.5t38 23.5q15 13 30 30t25 36q10 17 14 37t4 42v571q0 10 9 10h64q10 0 10 -10v-568z" />
    <glyph glyph-name="nonuthai" unicode="&#xe19;" horiz-adv-x="869" 
d="M769 284q0 -25 -4.5 -50.5t-14.5 -47.5l32 -168q1 -5 -2 -8.5t-8 -3.5h-60q-8 0 -10 8l-17 76l-8 -6l-8 -6q-101 -72 -233 -72q-66 0 -124 17.5t-107 53.5q-50 40 -76 91.5t-26 112.5v568q0 10 9 10h64q10 0 10 -10v-568q0 -22 4.5 -42.5t15.5 -38.5q18 -37 53 -64
t79 -42v1q50 -14 98 -14t98 14v-1q21 8 41 18.5t38 23.5q15 13 30 30t25 36q10 17 14 37t4 42v571q0 10 9 10h64q10 0 10 -10v-568z" />
    <glyph glyph-name="bobaimaithai" unicode="&#xba;" horiz-adv-x="860" 
d="M676 851q0 10 10 10h64q10 0 10 -10v-576q0 -66 -26 -116t-76 -92q-49 -38 -107 -56t-124 -18q-137 0 -233 71q-99 82 -99 208v576q0 10 10 10h62q10 0 10 -10v-576q0 -44 19 -84q8 -18 23 -33.5t32 -29.5q34 -27 79 -42q21 -6 46 -9.5t51 -3.5t50 3.5t44 9.5
q23 8 43.5 18.5t39.5 23.5q16 14 30 31t23 36q11 17 15 37.5t4 42.5v579z" />
    <glyph glyph-name="bobaimaithai" unicode="&#xe1a;" horiz-adv-x="860" 
d="M676 851q0 10 10 10h64q10 0 10 -10v-576q0 -66 -26 -116t-76 -92q-49 -38 -107 -56t-124 -18q-137 0 -233 71q-99 82 -99 208v576q0 10 10 10h62q10 0 10 -10v-576q0 -44 19 -84q8 -18 23 -33.5t32 -29.5q34 -27 79 -42q21 -6 46 -9.5t51 -3.5t50 3.5t44 9.5
q23 8 43.5 18.5t39.5 23.5q16 14 30 31t23 36q11 17 15 37.5t4 42.5v579z" />
    <glyph glyph-name="poplathai" unicode="&#xbb;" horiz-adv-x="845" 
d="M658 1069q0 10 10 10h60q10 0 10 -10v-791q0 -65 -24 -116t-75 -94q-52 -37 -108.5 -55.5t-122.5 -18.5q-139 0 -235 72q-52 42 -75 94t-23 115v583q0 9 10 9h60q9 0 9 -9v-583q0 -23 6 -44t15 -40q8 -18 22 -34t31 -30q33 -25 79 -42v1q46 -15 101 -15q23 0 47.5 3.5
t47.5 11.5v-1q23 8 42.5 18t39.5 24l-1 -1q15 14 29.5 31t23.5 36q10 17 15.5 38t5.5 44v794z" />
    <glyph glyph-name="poplathai" unicode="&#xe1b;" horiz-adv-x="845" 
d="M658 1069q0 10 10 10h60q10 0 10 -10v-791q0 -65 -24 -116t-75 -94q-52 -37 -108.5 -55.5t-122.5 -18.5q-139 0 -235 72q-52 42 -75 94t-23 115v583q0 9 10 9h60q9 0 9 -9v-583q0 -23 6 -44t15 -40q8 -18 22 -34t31 -30q33 -25 79 -42v1q46 -15 101 -15q23 0 47.5 3.5
t47.5 11.5v-1q23 8 42.5 18t39.5 24l-1 -1q15 14 29.5 31t23.5 36q10 17 15.5 38t5.5 44v794z" />
    <glyph glyph-name="phophungthai" unicode="&#xbc;" horiz-adv-x="976" 
d="M814 856q0 10 10 10h61q10 0 10 -10v-581q0 -57 -16 -102.5t-45 -85.5q-32 -38 -81 -59.5t-102 -21.5q-8 0 -10 7l-141 443l-146 -448q-1 -3 -4 -5.5t-7 -1.5q-27 4 -56 16.5t-57.5 33t-55 47t-47.5 58.5q-40 63 -63.5 138.5t-23.5 160.5q0 189 73 300q40 53 96 81
t129 28h6q10 0 10 -10l-2 -57q0 -6 -6 -8.5t-11 2.5q-54 -1 -94 -27t-68 -76q-50 -85 -50 -233q0 -65 18.5 -128t52.5 -123q26 -40 49.5 -63t48.5 -34l172 516q2 7 10 7h66q8 0 10 -7l154 -532q23 5 41.5 20.5t33.5 38.5q35 53 35 125v581z" />
    <glyph glyph-name="phophungthai" unicode="&#xe1c;" horiz-adv-x="976" 
d="M814 856q0 10 10 10h61q10 0 10 -10v-581q0 -57 -16 -102.5t-45 -85.5q-32 -38 -81 -59.5t-102 -21.5q-8 0 -10 7l-141 443l-146 -448q-1 -3 -4 -5.5t-7 -1.5q-27 4 -56 16.5t-57.5 33t-55 47t-47.5 58.5q-40 63 -63.5 138.5t-23.5 160.5q0 189 73 300q40 53 96 81
t129 28h6q10 0 10 -10l-2 -57q0 -6 -6 -8.5t-11 2.5q-54 -1 -94 -27t-68 -76q-50 -85 -50 -233q0 -65 18.5 -128t52.5 -123q26 -40 49.5 -63t48.5 -34l172 516q2 7 10 7h66q8 0 10 -7l154 -532q23 5 41.5 20.5t33.5 38.5q35 53 35 125v581z" />
    <glyph glyph-name="fofathai" unicode="&#xbd;" horiz-adv-x="1090" 
d="M870 1041q0 9 10 9h64q10 0 10 -9v-763q0 -56 -16 -102.5t-45 -84.5q-32 -38 -81.5 -59t-103.5 -21q-8 0 -10 7l-139 437q-35 -109 -72.5 -221t-72.5 -221q-1 -3 -4 -5.5t-7 -1.5q-59 8 -117.5 48t-101.5 106v-1q-43 63 -63.5 137.5t-20.5 159.5q0 193 73 299
q38 52 93 79.5t132 27.5h6q10 0 10 -10v-55q0 -10 -10 -10h-6q-110 0 -166 -98q-25 -42 -38.5 -100t-13.5 -133q0 -128 71 -249h-1q28 -43 51 -64.5t50 -33.5l169 512q2 7 10 7h67q8 0 10 -7l154 -526q23 5 40.5 20.5t32.5 38.5q36 56 36 124v763z" />
    <glyph glyph-name="fofathai" unicode="&#xe1d;" horiz-adv-x="1090" 
d="M870 1041q0 9 10 9h64q10 0 10 -9v-763q0 -56 -16 -102.5t-45 -84.5q-32 -38 -81.5 -59t-103.5 -21q-8 0 -10 7l-139 437q-35 -109 -72.5 -221t-72.5 -221q-1 -3 -4 -5.5t-7 -1.5q-59 8 -117.5 48t-101.5 106v-1q-43 63 -63.5 137.5t-20.5 159.5q0 193 73 299
q38 52 93 79.5t132 27.5h6q10 0 10 -10v-55q0 -10 -10 -10h-6q-110 0 -166 -98q-25 -42 -38.5 -100t-13.5 -133q0 -128 71 -249h-1q28 -43 51 -64.5t50 -33.5l169 512q2 7 10 7h67q8 0 10 -7l154 -526q23 5 40.5 20.5t32.5 38.5q36 56 36 124v763z" />
    <glyph glyph-name="phophanthai" unicode="&#xbe;" horiz-adv-x="974" 
d="M878 868q10 0 10 -10v-597q0 -112 -61 -193q-26 -32 -64.5 -52.5t-83.5 -25.5q-14 0 -24 5t-16.5 11.5t-10 13.5t-4.5 11l-15 47l-114 367q-30 -97 -60 -192.5t-59 -191.5l-14 -38l1 1q-3 -9 -8 -16q-5 -6 -13 -11t-22 -5q-45 4 -87.5 24.5t-70.5 54.5q-29 39 -44.5 87.5
t-15.5 105.5v586q0 10 10 10h61q10 0 10 -10v-586q0 -38 9.5 -69.5t25.5 -60.5l-1 1q19 -24 36 -39t40 -21l156 547q2 7 10 7h74q8 0 10 -7l156 -550q23 6 40.5 21t32.5 38q16 26 25 59t9 71v597q0 10 10 10h62z" />
    <glyph glyph-name="phophanthai" unicode="&#xe1e;" horiz-adv-x="974" 
d="M878 868q10 0 10 -10v-597q0 -112 -61 -193q-26 -32 -64.5 -52.5t-83.5 -25.5q-14 0 -24 5t-16.5 11.5t-10 13.5t-4.5 11l-15 47l-114 367q-30 -97 -60 -192.5t-59 -191.5l-14 -38l1 1q-3 -9 -8 -16q-5 -6 -13 -11t-22 -5q-45 4 -87.5 24.5t-70.5 54.5q-29 39 -44.5 87.5
t-15.5 105.5v586q0 10 10 10h61q10 0 10 -10v-586q0 -38 9.5 -69.5t25.5 -60.5l-1 1q19 -24 36 -39t40 -21l156 547q2 7 10 7h74q8 0 10 -7l156 -550q23 6 40.5 21t32.5 38q16 26 25 59t9 71v597q0 10 10 10h62z" />
    <glyph glyph-name="fofanthai" unicode="&#xbf;" horiz-adv-x="1000" 
d="M801 1053q0 10 10 10h60q9 0 9 -10v-777q0 -57 -14.5 -105t-45.5 -86q-25 -32 -63 -53t-82 -25q-15 0 -25 5t-16 12t-9.5 14t-4.5 11l1 -1q-4 11 -8.5 22t-8.5 22l-114 367l-119 -382l-13 -40q0 -1 -2 -6t-6.5 -10t-11.5 -9.5t-19 -4.5q-45 5 -87.5 26t-68.5 54
q-31 39 -45.5 87t-14.5 105v580q0 10 10 10h60q9 0 9 -10v-580q0 -39 9.5 -71t26.5 -58q14 -23 31 -38t42 -21q38 137 76.5 271.5t76.5 270.5q2 7 10 7h75q8 0 10 -7l154 -545q24 7 41 21.5t31 37.5q17 26 26.5 58.5t9.5 70.5v777z" />
    <glyph glyph-name="fofanthai" unicode="&#xe1f;" horiz-adv-x="1000" 
d="M801 1053q0 10 10 10h60q9 0 9 -10v-777q0 -57 -14.5 -105t-45.5 -86q-25 -32 -63 -53t-82 -25q-15 0 -25 5t-16 12t-9.5 14t-4.5 11l1 -1q-4 11 -8.5 22t-8.5 22l-114 367l-119 -382l-13 -40q0 -1 -2 -6t-6.5 -10t-11.5 -9.5t-19 -4.5q-45 5 -87.5 26t-68.5 54
q-31 39 -45.5 87t-14.5 105v580q0 10 10 10h60q9 0 9 -10v-580q0 -39 9.5 -71t26.5 -58q14 -23 31 -38t42 -21q38 137 76.5 271.5t76.5 270.5q2 7 10 7h75q8 0 10 -7l154 -545q24 7 41 21.5t31 37.5q17 26 26.5 58.5t9.5 70.5v777z" />
    <glyph glyph-name="phosamphaothai" unicode="&#xc0;" horiz-adv-x="936" 
d="M727 798q101 -80 101 -206v-580q0 -10 -10 -10h-63q-10 0 -10 10v580q0 45 -20 81q-10 19 -23.5 35.5t-32.5 29.5q-17 14 -35.5 24.5t-41.5 18.5q-24 8 -48.5 12t-50.5 4q-27 0 -50.5 -4t-49.5 -12q-23 -8 -43.5 -18.5t-37.5 -24.5q-17 -12 -29.5 -29t-22.5 -36
q-23 -38 -23 -81v-493l-8 -37l-5 -18l-8 -34q-2 -8 -10 -8h-68l-79 21q-7 2 -7 9v40q0 10 10 10h83l12 51v456q0 126 102 207q49 38 106.5 58t127.5 20q67 0 125 -19.5t109 -56.5z" />
    <glyph glyph-name="phosamphaothai" unicode="&#xe20;" horiz-adv-x="936" 
d="M727 798q101 -80 101 -206v-580q0 -10 -10 -10h-63q-10 0 -10 10v580q0 45 -20 81q-10 19 -23.5 35.5t-32.5 29.5q-17 14 -35.5 24.5t-41.5 18.5q-24 8 -48.5 12t-50.5 4q-27 0 -50.5 -4t-49.5 -12q-23 -8 -43.5 -18.5t-37.5 -24.5q-17 -12 -29.5 -29t-22.5 -36
q-23 -38 -23 -81v-493l-8 -37l-5 -18l-8 -34q-2 -8 -10 -8h-68l-79 21q-7 2 -7 9v40q0 10 10 10h83l12 51v456q0 126 102 207q49 38 106.5 58t127.5 20q67 0 125 -19.5t109 -56.5z" />
    <glyph glyph-name="momathai" unicode="&#xc1;" horiz-adv-x="870" 
d="M695 852q0 10 10 10h63q10 0 10 -10v-586q0 -123 -99 -199q-51 -35 -107.5 -53.5t-124.5 -18.5q-64 0 -122 18.5t-109 53.5q-6 6 -5.5 6.5t-5.5 4.5l-19 -71q-2 -8 -10 -8h-60q-5 0 -8 3.5t-2 8.5l33 155q-10 24 -15.5 50t-5.5 52v584q0 10 10 10h63q10 0 10 -10v-586
q0 -20 3.5 -40.5t14.5 -36.5q9 -19 23 -34t31 -31h-1q18 -14 37.5 -23t44.5 -17q20 -8 44.5 -11.5t48.5 -3.5q56 0 98 15q22 7 41 16.5t36 23.5h-1q17 16 31 30.5t25 33.5q18 33 18 78v586z" />
    <glyph glyph-name="momathai" unicode="&#xe21;" horiz-adv-x="870" 
d="M695 852q0 10 10 10h63q10 0 10 -10v-586q0 -123 -99 -199q-51 -35 -107.5 -53.5t-124.5 -18.5q-64 0 -122 18.5t-109 53.5q-6 6 -5.5 6.5t-5.5 4.5l-19 -71q-2 -8 -10 -8h-60q-5 0 -8 3.5t-2 8.5l33 155q-10 24 -15.5 50t-5.5 52v584q0 10 10 10h63q10 0 10 -10v-586
q0 -20 3.5 -40.5t14.5 -36.5q9 -19 23 -34t31 -31h-1q18 -14 37.5 -23t44.5 -17q20 -8 44.5 -11.5t48.5 -3.5q56 0 98 15q22 7 41 16.5t36 23.5h-1q17 16 31 30.5t25 33.5q18 33 18 78v586z" />
    <glyph glyph-name="yoyakthai" unicode="&#xc2;" horiz-adv-x="843" 
d="M684 862q0 10 10 10h63q9 0 9 -10v-598q0 -130 -104 -210q-48 -30 -95 -46.5t-104 -16.5q-54 0 -93 4.5t-69.5 13.5t-55 21.5t-48.5 29.5q-46 36 -74.5 91t-28.5 116q0 47 16.5 85.5t48.5 68.5q-81 66 -81 171q0 66 25.5 120t80.5 93q47 32 105.5 49.5t128.5 17.5h16
q10 0 10 -10v-57q0 -10 -10 -10h-16q-54 0 -97.5 -11t-79.5 -37q-80 -56 -80 -152q0 -76 70 -121l14 -6h189q10 0 10 -10v-60q0 -10 -10 -10l-174 1l-13 -10q-70 -39 -70 -115q0 -47 21.5 -84t60.5 -65q30 -23 73.5 -35.5t96.5 -12.5q27 0 52 3.5t49 9.5l-1 -1
q22 8 42.5 17.5t37.5 23.5t31 28.5t24 31.5v-1q9 19 14.5 39.5t5.5 45.5v598z" />
    <glyph glyph-name="yoyakthai" unicode="&#xe22;" horiz-adv-x="843" 
d="M684 862q0 10 10 10h63q9 0 9 -10v-598q0 -130 -104 -210q-48 -30 -95 -46.5t-104 -16.5q-54 0 -93 4.5t-69.5 13.5t-55 21.5t-48.5 29.5q-46 36 -74.5 91t-28.5 116q0 47 16.5 85.5t48.5 68.5q-81 66 -81 171q0 66 25.5 120t80.5 93q47 32 105.5 49.5t128.5 17.5h16
q10 0 10 -10v-57q0 -10 -10 -10h-16q-54 0 -97.5 -11t-79.5 -37q-80 -56 -80 -152q0 -76 70 -121l14 -6h189q10 0 10 -10v-60q0 -10 -10 -10l-174 1l-13 -10q-70 -39 -70 -115q0 -47 21.5 -84t60.5 -65q30 -23 73.5 -35.5t96.5 -12.5q27 0 52 3.5t49 9.5l-1 -1
q22 8 42.5 17.5t37.5 23.5t31 28.5t24 31.5v-1q9 19 14.5 39.5t5.5 45.5v598z" />
    <glyph glyph-name="roruathai" unicode="&#xc3;" horiz-adv-x="807" 
d="M623 456q98 -69 98 -184q0 -66 -26 -119.5t-80 -94.5q-47 -32 -104.5 -48.5t-129.5 -16.5t-131 14.5t-106 48.5l-15 15q-7 7 0 14l45 45q4 4 10 2q5 -2 7 -3.5t5 -4.5l4 -3q17 -13 37 -23t43 -15q48 -14 101 -14t97.5 11.5t80.5 36.5q39 29 59 66.5t20 88.5
q0 37 -19.5 66t-56.5 54l1 -1q-27 15 -72 29.5t-101 25.5q-31 5 -59 10.5t-53 10.5q-6 1 -11 2.5t-10 2.5l-42 14q-8 2 -15.5 4.5t-14.5 4.5l-15 5q-57 27 -83.5 62.5t-26.5 84.5q0 54 23.5 94t68.5 72q49 32 103 48.5t116 16.5q129 0 223 -58v1q49 -29 77.5 -71t39.5 -101
q1 -5 -2 -8.5t-8 -3.5h-67q-7 0 -9 7q-11 35 -34 63.5t-58 48.5q-36 18 -78 28.5t-84 10.5t-81.5 -10t-77.5 -32q-32 -19 -49.5 -44t-17.5 -54q0 -52 88 -86q14 -8 57 -16q22 -5 51.5 -11.5t65.5 -12.5q33 -7 65 -15t61 -18q30 -11 52 -21t37 -18z" />
    <glyph glyph-name="roruathai" unicode="&#xe23;" horiz-adv-x="807" 
d="M623 456q98 -69 98 -184q0 -66 -26 -119.5t-80 -94.5q-47 -32 -104.5 -48.5t-129.5 -16.5t-131 14.5t-106 48.5l-15 15q-7 7 0 14l45 45q4 4 10 2q5 -2 7 -3.5t5 -4.5l4 -3q17 -13 37 -23t43 -15q48 -14 101 -14t97.5 11.5t80.5 36.5q39 29 59 66.5t20 88.5
q0 37 -19.5 66t-56.5 54l1 -1q-27 15 -72 29.5t-101 25.5q-31 5 -59 10.5t-53 10.5q-6 1 -11 2.5t-10 2.5l-42 14q-8 2 -15.5 4.5t-14.5 4.5l-15 5q-57 27 -83.5 62.5t-26.5 84.5q0 54 23.5 94t68.5 72q49 32 103 48.5t116 16.5q129 0 223 -58v1q49 -29 77.5 -71t39.5 -101
q1 -5 -2 -8.5t-8 -3.5h-67q-7 0 -9 7q-11 35 -34 63.5t-58 48.5q-36 18 -78 28.5t-84 10.5t-81.5 -10t-77.5 -32q-32 -19 -49.5 -44t-17.5 -54q0 -52 88 -86q14 -8 57 -16q22 -5 51.5 -11.5t65.5 -12.5q33 -7 65 -15t61 -18q30 -11 52 -21t37 -18z" />
    <glyph glyph-name="ruthai" unicode="&#xc4;" horiz-adv-x="898" 
d="M666 812q103 -81 103 -214v-886l-2 -8q0 -10 -10 -10h-62q-10 0 -10 10v874q0 104 -72 164q-35 30 -81 43.5t-99 13.5q-72 0 -127 -20.5t-97 -65.5q-5 -5 -5 -10l5 -4q4 -3 7.5 -4.5t8.5 -12.5v-595h48q10 0 10 -10v-64q0 -10 -10 -10h-121q-9 0 -9 10v585q0 3 -0.5 9.5
t-2.5 13t-6 11t-10 4.5h-22q-6 2 -10 8q-4 5 -7 14t-3 25q1 3 3 7q2 3 4.5 7.5t5.5 9.5q121 173 338 173q67 0 126 -16.5t107 -51.5z" />
    <glyph glyph-name="ruthai" unicode="&#xe24;" horiz-adv-x="898" 
d="M666 812q103 -81 103 -214v-886l-2 -8q0 -10 -10 -10h-62q-10 0 -10 10v874q0 104 -72 164q-35 30 -81 43.5t-99 13.5q-72 0 -127 -20.5t-97 -65.5q-5 -5 -5 -10l5 -4q4 -3 7.5 -4.5t8.5 -12.5v-595h48q10 0 10 -10v-64q0 -10 -10 -10h-121q-9 0 -9 10v585q0 3 -0.5 9.5
t-2.5 13t-6 11t-10 4.5h-22q-6 2 -10 8q-4 5 -7 14t-3 25q1 3 3 7q2 3 4.5 7.5t5.5 9.5q121 173 338 173q67 0 126 -16.5t107 -51.5z" />
    <glyph glyph-name="lolingthai" unicode="&#xc5;" horiz-adv-x="807" 
d="M712 666q0 -8 1 -13q0 -4 0.5 -8.5t0.5 -10.5v-632q0 -10 -10 -10h-63q-10 0 -10 10v506q-14 -9 -28 -13h1q-15 -7 -36.5 -14.5t-47.5 -13.5l-24 -6q-23 -5 -49 -11t-56 -12q-114 -19 -170 -52q-59 -36 -69 -87q-2 -5 -2.5 -23.5t5.5 -38.5q6 -27 15 -65.5t17.5 -74
t15 -62t7.5 -30.5q2 -5 -1 -9t-8 -4h-68q-8 0 -10 8l-47 217q-7 31 -7 60q0 37 9 63t14 37q13 20 31 38.5t40 34.5q36 24 87 40q26 7 57.5 15t67.5 16l49 11l64 13l24 7l39 10l-2 -1q80 33 80 84q0 55 -69 95q-37 20 -73.5 30t-78.5 10q-45 0 -84 -8.5t-74 -28.5
q-68 -38 -87 -109q-2 -7 -10 -7h-66q-4 0 -7 3.5t-2 8.5q15 111 113 169q91 54 217 54q61 0 113 -16.5t100 -48.5l-1 1q14 -8 26.5 -18.5t21.5 -21.5q16 -21 27.5 -43.5t16.5 -46.5v-2z" />
    <glyph glyph-name="lolingthai" unicode="&#xe25;" horiz-adv-x="807" 
d="M712 666q0 -8 1 -13q0 -4 0.5 -8.5t0.5 -10.5v-632q0 -10 -10 -10h-63q-10 0 -10 10v506q-14 -9 -28 -13h1q-15 -7 -36.5 -14.5t-47.5 -13.5l-24 -6q-23 -5 -49 -11t-56 -12q-114 -19 -170 -52q-59 -36 -69 -87q-2 -5 -2.5 -23.5t5.5 -38.5q6 -27 15 -65.5t17.5 -74
t15 -62t7.5 -30.5q2 -5 -1 -9t-8 -4h-68q-8 0 -10 8l-47 217q-7 31 -7 60q0 37 9 63t14 37q13 20 31 38.5t40 34.5q36 24 87 40q26 7 57.5 15t67.5 16l49 11l64 13l24 7l39 10l-2 -1q80 33 80 84q0 55 -69 95q-37 20 -73.5 30t-78.5 10q-45 0 -84 -8.5t-74 -28.5
q-68 -38 -87 -109q-2 -7 -10 -7h-66q-4 0 -7 3.5t-2 8.5q15 111 113 169q91 54 217 54q61 0 113 -16.5t100 -48.5l-1 1q14 -8 26.5 -18.5t21.5 -21.5q16 -21 27.5 -43.5t16.5 -46.5v-2z" />
    <glyph glyph-name="luthai" unicode="&#xc6;" horiz-adv-x="884" 
d="M672 811q52 -41 78.5 -93.5t26.5 -120.5v-894q0 -10 -10 -10h-64q-10 0 -10 10v874q0 103 -73 164q-35 30 -81 43.5t-100 13.5q-70 0 -126.5 -20.5t-97.5 -65.5l-4 -4t-2 -4q4 -4 6 -5q4 -2 8 -5.5t9 -11.5v-670q0 -10 -10 -10h-110q-10 0 -10 10v64q0 10 10 10h35v511
q0 3 -0.5 9.5t-2 13t-5 11t-8.5 4.5h-21q-7 2 -11 8q-4 5 -7 14t-3 25q1 3 4 7q2 3 4.5 7.5t5.5 9.5q60 88 144.5 130.5t191.5 42.5q143 0 233 -68z" />
    <glyph glyph-name="luthai" unicode="&#xe26;" horiz-adv-x="884" 
d="M672 811q52 -41 78.5 -93.5t26.5 -120.5v-894q0 -10 -10 -10h-64q-10 0 -10 10v874q0 103 -73 164q-35 30 -81 43.5t-100 13.5q-70 0 -126.5 -20.5t-97.5 -65.5l-4 -4t-2 -4q4 -4 6 -5q4 -2 8 -5.5t9 -11.5v-670q0 -10 -10 -10h-110q-10 0 -10 10v64q0 10 10 10h35v511
q0 3 -0.5 9.5t-2 13t-5 11t-8.5 4.5h-21q-7 2 -11 8q-4 5 -7 14t-3 25q1 3 4 7q2 3 4.5 7.5t5.5 9.5q60 88 144.5 130.5t191.5 42.5q143 0 233 -68z" />
    <glyph glyph-name="wowaenthai" unicode="&#xc7;" horiz-adv-x="749" 
d="M603 767q69 -73 69 -178v-323q0 -50 -17 -95t-51 -81q-4 -6 -11 -13.5t-13 -12.5l-9 -9q-22 -14 -43 -26t-43 -21h-7q-7 0 -9 6l-24 51q-4 9 5 13q14 5 33 17t29 20q18 15 30.5 29t20.5 30q14 21 19 43.5t5 45.5v329q0 20 -4.5 41t-15.5 40q-21 40 -55 65
q-17 14 -35 24.5t-38 15.5q-26 8 -53 14t-55 6q-25 0 -53 -6t-54 -14q-19 -5 -37 -15.5t-37 -24.5q-35 -28 -53 -65l-3 -3q0 -1 -0.5 -1t-0.5 -1q0 -7 -5.5 -9.5t-10.5 1.5l-55 35q-2 1 -3 3.5t-1 4.5l2 7q8 14 17 27.5t22 26.5l34 33q105 78 238 78q69 0 127.5 -19
t112.5 -57l6 -6q6 -5 14 -13.5t13 -13.5z" />
    <glyph glyph-name="wowaenthai" unicode="&#xe27;" horiz-adv-x="749" 
d="M603 767q69 -73 69 -178v-323q0 -50 -17 -95t-51 -81q-4 -6 -11 -13.5t-13 -12.5l-9 -9q-22 -14 -43 -26t-43 -21h-7q-7 0 -9 6l-24 51q-4 9 5 13q14 5 33 17t29 20q18 15 30.5 29t20.5 30q14 21 19 43.5t5 45.5v329q0 20 -4.5 41t-15.5 40q-21 40 -55 65
q-17 14 -35 24.5t-38 15.5q-26 8 -53 14t-55 6q-25 0 -53 -6t-54 -14q-19 -5 -37 -15.5t-37 -24.5q-35 -28 -53 -65l-3 -3q0 -1 -0.5 -1t-0.5 -1q0 -7 -5.5 -9.5t-10.5 1.5l-55 35q-2 1 -3 3.5t-1 4.5l2 7q8 14 17 27.5t22 26.5l34 33q105 78 238 78q69 0 127.5 -19
t112.5 -57l6 -6q6 -5 14 -13.5t13 -13.5z" />
    <glyph glyph-name="sosalathai" unicode="&#xc8;" horiz-adv-x="902" 
d="M787 881q12 -2 8 -13l-60 -161q13 -28 20 -56t7 -60v-578q0 -10 -10 -10h-64q-10 0 -10 10v578q0 21 -6 41.5t-14 39.5v-1q-10 19 -24.5 36.5t-28.5 30.5q-19 14 -40 24t-41 18v-1q-51 15 -98 15q-29 0 -52.5 -3.5t-46.5 -10.5q-23 -8 -43.5 -18t-36.5 -24
q-20 -14 -33 -31t-24 -36l1 1q-9 -19 -14.5 -39.5t-5.5 -41.5v-138l3 4q22 20 45 34t51 25q60 23 123 23q10 0 10 -10v-59q0 -10 -10 -10q-47 -2 -89 -16.5t-72 -44.5q-29 -29 -45 -68.5t-16 -87.5v-230q0 -10 -10 -10h-62q-10 0 -10 10v578q0 124 101 208q49 38 108 59
t128 21t126.5 -21t106.5 -59q6 -8 10 -12l40 97q4 8 10 6z" />
    <glyph glyph-name="sosalathai" unicode="&#xe28;" horiz-adv-x="902" 
d="M787 881q12 -2 8 -13l-60 -161q13 -28 20 -56t7 -60v-578q0 -10 -10 -10h-64q-10 0 -10 10v578q0 21 -6 41.5t-14 39.5v-1q-10 19 -24.5 36.5t-28.5 30.5q-19 14 -40 24t-41 18v-1q-51 15 -98 15q-29 0 -52.5 -3.5t-46.5 -10.5q-23 -8 -43.5 -18t-36.5 -24
q-20 -14 -33 -31t-24 -36l1 1q-9 -19 -14.5 -39.5t-5.5 -41.5v-138l3 4q22 20 45 34t51 25q60 23 123 23q10 0 10 -10v-59q0 -10 -10 -10q-47 -2 -89 -16.5t-72 -44.5q-29 -29 -45 -68.5t-16 -87.5v-230q0 -10 -10 -10h-62q-10 0 -10 10v578q0 124 101 208q49 38 108 59
t128 21t126.5 -21t106.5 -59q6 -8 10 -12l40 97q4 8 10 6z" />
    <glyph glyph-name="sorusithai" unicode="&#xc9;" horiz-adv-x="933" 
d="M765 641h86q13 0 10 -12l-16 -62q-2 -8 -9 -8h-71v-276q0 -127 -100 -206q-52 -37 -110 -55.5t-126 -18.5q-132 0 -236 74q-100 84 -100 209v577q0 10 10 10h64q10 0 10 -10v-580q0 -21 5.5 -42.5t15.5 -38.5q8 -18 22 -34t32 -32h-1q17 -14 37 -24.5t45 -18.5
q21 -6 45.5 -10t50.5 -4q29 0 53.5 4t45.5 10q44 15 80 43h-1q35 31 57 67q9 17 13 37t4 43v276h-105q-10 0 -10 10v112q0 10 10 10h64q10 0 10 -10v-40h31v219q0 10 10 10h64q10 0 10 -10v-219z" />
    <glyph glyph-name="sorusithai" unicode="&#xe29;" horiz-adv-x="933" 
d="M765 641h86q13 0 10 -12l-16 -62q-2 -8 -9 -8h-71v-276q0 -127 -100 -206q-52 -37 -110 -55.5t-126 -18.5q-132 0 -236 74q-100 84 -100 209v577q0 10 10 10h64q10 0 10 -10v-580q0 -21 5.5 -42.5t15.5 -38.5q8 -18 22 -34t32 -32h-1q17 -14 37 -24.5t45 -18.5
q21 -6 45.5 -10t50.5 -4q29 0 53.5 4t45.5 10q44 15 80 43h-1q35 31 57 67q9 17 13 37t4 43v276h-105q-10 0 -10 10v112q0 10 10 10h64q10 0 10 -10v-40h31v219q0 10 10 10h64q10 0 10 -10v-219z" />
    <glyph glyph-name="sosuathai" unicode="&#xca;" horiz-adv-x="862" 
d="M792 883q13 0 9 -13l-69 -186q2 -8 2.5 -15t0.5 -18v-645q0 -10 -9 -10h-64q-10 0 -10 10v516q-7 -5 -13.5 -8t-14.5 -6h1q-15 -7 -37 -14t-47 -14h1q-5 -2 -12 -2.5t-13 -2.5q-23 -5 -50.5 -11.5t-59.5 -12.5q-60 -11 -102.5 -23.5t-71.5 -29.5v1q-24 -16 -41 -34.5
t-25 -41.5q-1 -2 -2 -8.5t-1 -22.5q0 -14 2.5 -35.5t9.5 -51.5t15 -65t15 -64q7 -28 11.5 -46.5t4.5 -23.5q0 -10 -10 -10h-67q-6 0 -8 7q-1 2 -2.5 8l-3.5 14l-10 42.5t-12.5 53.5t-12 55.5t-9.5 49.5q-6 33 -6 61q0 38 8.5 64t14.5 37q23 41 73 77q35 22 88 37
q25 8 57 16.5t67 16.5t65.5 13.5t49.5 9.5q26 6 42 11t24 7h-1q39 18 59.5 38.5t20.5 47.5q0 28 -17.5 52.5t-49.5 44.5q-36 19 -75 29t-81 10q-45 0 -85 -8.5t-76 -27.5q-68 -38 -91 -112q-2 -7 -10 -7h-67q-5 0 -7.5 3.5t-2.5 8.5q20 114 117 173q48 26 103 40.5t119 14.5
q122 0 215 -67l-1 1q21 -11 39 -29l35 93q2 7 10 7z" />
    <glyph glyph-name="sosuathai" unicode="&#xe2a;" horiz-adv-x="862" 
d="M792 883q13 0 9 -13l-69 -186q2 -8 2.5 -15t0.5 -18v-645q0 -10 -9 -10h-64q-10 0 -10 10v516q-7 -5 -13.5 -8t-14.5 -6h1q-15 -7 -37 -14t-47 -14h1q-5 -2 -12 -2.5t-13 -2.5q-23 -5 -50.5 -11.5t-59.5 -12.5q-60 -11 -102.5 -23.5t-71.5 -29.5v1q-24 -16 -41 -34.5
t-25 -41.5q-1 -2 -2 -8.5t-1 -22.5q0 -14 2.5 -35.5t9.5 -51.5t15 -65t15 -64q7 -28 11.5 -46.5t4.5 -23.5q0 -10 -10 -10h-67q-6 0 -8 7q-1 2 -2.5 8l-3.5 14l-10 42.5t-12.5 53.5t-12 55.5t-9.5 49.5q-6 33 -6 61q0 38 8.5 64t14.5 37q23 41 73 77q35 22 88 37
q25 8 57 16.5t67 16.5t65.5 13.5t49.5 9.5q26 6 42 11t24 7h-1q39 18 59.5 38.5t20.5 47.5q0 28 -17.5 52.5t-49.5 44.5q-36 19 -75 29t-81 10q-45 0 -85 -8.5t-76 -27.5q-68 -38 -91 -112q-2 -7 -10 -7h-67q-5 0 -7.5 3.5t-2.5 8.5q20 114 117 173q48 26 103 40.5t119 14.5
q122 0 215 -67l-1 1q21 -11 39 -29l35 93q2 7 10 7z" />
    <glyph glyph-name="hohipthai" unicode="&#xcb;" horiz-adv-x="870" 
d="M786 846q8 -4 3 -13l-156 -277q15 -10 26 -15q100 -82 100 -209v-321q0 -10 -10 -10h-62q-10 0 -10 10v321q0 23 -5.5 43.5t-14.5 40.5q-9 18 -23.5 34t-30.5 30h1q-37 28 -83 44q-23 8 -47.5 11.5t-48.5 3.5q-56 0 -102 -15q-21 -8 -41.5 -19.5t-37.5 -24.5
q-34 -26 -53 -63q-17 -32 -21 -70v-341q0 -10 -10 -10h-62q-10 0 -10 10v856q0 10 10 10h62q10 0 10 -10v-338q5 5 9 8.5t10 8.5q103 73 236 73q35 0 67.5 -5t63.5 -16q42 72 82 141t81 141q5 9 13 4z" />
    <glyph glyph-name="hohipthai" unicode="&#xe2b;" horiz-adv-x="870" 
d="M786 846q8 -4 3 -13l-156 -277q15 -10 26 -15q100 -82 100 -209v-321q0 -10 -10 -10h-62q-10 0 -10 10v321q0 23 -5.5 43.5t-14.5 40.5q-9 18 -23.5 34t-30.5 30h1q-37 28 -83 44q-23 8 -47.5 11.5t-48.5 3.5q-56 0 -102 -15q-21 -8 -41.5 -19.5t-37.5 -24.5
q-34 -26 -53 -63q-17 -32 -21 -70v-341q0 -10 -10 -10h-62q-10 0 -10 10v856q0 10 10 10h62q10 0 10 -10v-338q5 5 9 8.5t10 8.5q103 73 236 73q35 0 67.5 -5t63.5 -16q42 72 82 141t81 141q5 9 13 4z" />
    <glyph glyph-name="lochulathai" unicode="&#xcc;" horiz-adv-x="1059" 
d="M908 885h82q10 0 10 -10v-64q0 -10 -10 -10h-82v-531q0 -57 -16 -106t-45 -89q-25 -32 -64 -53.5t-84 -25.5q-13 0 -22 4t-15 9.5t-10 11.5t-58 173.5t-83 261.5q-30 -99 -60.5 -194.5t-71.5 -232.5q-4 -10 -10 -17q-5 -6 -13.5 -11t-19.5 -5q-47 4 -89 23.5t-68 51.5
q-31 43 -48.5 94t-17.5 108v591q0 10 10 10h65q10 0 10 -10v-591q0 -80 35 -131q15 -23 33 -38.5t43 -21.5l155 550q2 7 10 7h75q7 0 9 -7l159 -552q25 6 42.5 21.5t32.5 38.5q17 26 26.5 59t9.5 71v531h-105q-10 0 -10 10v107q0 10 10 10h61q9 0 9 -10v-33h35v178
q0 10 10 10h61q9 0 9 -10v-178z" />
    <glyph glyph-name="lochulathai" unicode="&#xe2c;" horiz-adv-x="1059" 
d="M908 885h82q10 0 10 -10v-64q0 -10 -10 -10h-82v-531q0 -57 -16 -106t-45 -89q-25 -32 -64 -53.5t-84 -25.5q-13 0 -22 4t-15 9.5t-10 11.5t-58 173.5t-83 261.5q-30 -99 -60.5 -194.5t-71.5 -232.5q-4 -10 -10 -17q-5 -6 -13.5 -11t-19.5 -5q-47 4 -89 23.5t-68 51.5
q-31 43 -48.5 94t-17.5 108v591q0 10 10 10h65q10 0 10 -10v-591q0 -80 35 -131q15 -23 33 -38.5t43 -21.5l155 550q2 7 10 7h75q7 0 9 -7l159 -552q25 6 42.5 21.5t32.5 38.5q17 26 26.5 59t9.5 71v531h-105q-10 0 -10 10v107q0 10 10 10h61q9 0 9 -10v-33h35v178
q0 10 10 10h61q9 0 9 -10v-178z" />
    <glyph glyph-name="oangthai" unicode="&#xcd;" horiz-adv-x="843" 
d="M659 805q10 -8 18 -16t15 -17q32 -35 49.5 -79t17.5 -93v-321q0 -53 -17 -95.5t-51 -80.5l1 1q-7 -9 -15 -17t-18 -17q-104 -74 -236 -74q-69 0 -126 18.5t-108 55.5l1 -1q-13 8 -22 16t-16 16l1 -1q-66 75 -66 176v246q0 10 9 10h142q10 0 10 -10v-61q0 -10 -10 -10h-68
v-175q0 -23 4 -43t14 -37q11 -19 24.5 -35t32.5 -32h-1q34 -28 79 -42q25 -7 48.5 -11t51.5 -4q24 0 49 4t49 11q23 7 42.5 17.5t37.5 24.5h-1q35 31 57 67q9 17 13 38.5t4 41.5v324q0 20 -4 41.5t-13 38.5q-23 39 -56 64q-18 14 -37.5 25.5t-42.5 18.5v-1q-24 7 -48 12
t-50 5q-25 0 -50 -5t-50 -12v1q-22 -7 -42 -18.5t-37 -25.5q-18 -13 -31.5 -28.5t-24.5 -35.5v1q-8 -17 -13 -37t-5 -41q0 -10 -10 -10h-64q-9 0 -9 10q2 96 64 165q27 28 39 36l-1 -1q101 77 234 77q68 0 126.5 -19t109.5 -56z" />
    <glyph glyph-name="oangthai" unicode="&#xe2d;" horiz-adv-x="843" 
d="M659 805q10 -8 18 -16t15 -17q32 -35 49.5 -79t17.5 -93v-321q0 -53 -17 -95.5t-51 -80.5l1 1q-7 -9 -15 -17t-18 -17q-104 -74 -236 -74q-69 0 -126 18.5t-108 55.5l1 -1q-13 8 -22 16t-16 16l1 -1q-66 75 -66 176v246q0 10 9 10h142q10 0 10 -10v-61q0 -10 -10 -10h-68
v-175q0 -23 4 -43t14 -37q11 -19 24.5 -35t32.5 -32h-1q34 -28 79 -42q25 -7 48.5 -11t51.5 -4q24 0 49 4t49 11q23 7 42.5 17.5t37.5 24.5h-1q35 31 57 67q9 17 13 38.5t4 41.5v324q0 20 -4 41.5t-13 38.5q-23 39 -56 64q-18 14 -37.5 25.5t-42.5 18.5v-1q-24 7 -48 12
t-50 5q-25 0 -50 -5t-50 -12v1q-22 -7 -42 -18.5t-37 -25.5q-18 -13 -31.5 -28.5t-24.5 -35.5v1q-8 -17 -13 -37t-5 -41q0 -10 -10 -10h-64q-9 0 -9 10q2 96 64 165q27 28 39 36l-1 -1q101 77 234 77q68 0 126.5 -19t109.5 -56z" />
    <glyph glyph-name="honokhukthai" unicode="&#xce;" horiz-adv-x="874" 
d="M701 756q5 -5 8 -10t5 -9l-2 2l2 -3q20 -31 29.5 -65t9.5 -71v-321q0 -52 -16.5 -94.5t-47.5 -80.5l-17.5 -17.5t-18.5 -16.5q-104 -74 -236 -74q-66 0 -125 19t-109 55q-6 5 -14 12t-15 12l-8 7q-31 37 -48 80.5t-17 94.5v246q0 10 9 10h145q10 0 10 -10v-61
q0 -10 -10 -10h-71v-175q0 -23 5.5 -43.5t15.5 -37.5q9 -18 22.5 -34t31.5 -32h-1q18 -14 38.5 -24.5t41.5 -17.5q24 -7 47.5 -11t51.5 -4q26 0 50 4t48 11q23 8 43.5 17.5t35.5 23.5q20 15 34 31t23 36q10 17 15 38.5t5 42.5v324q0 13 -3 29t-8.5 28.5t-8.5 23.5
q-6 10 -12 19t-15.5 21t-26.5 24.5t-37 23.5t-42 19v-1q-24 7 -49.5 12t-51.5 5t-50 -5t-50 -12l1 1q-44 -16 -80 -44q-34 -24 -53 -63q-8 -15 -13.5 -33.5t-7.5 -37.5q-2 -9 -10 -9h-62q-9 0 -9 10q2 46 18 86t45 73q17 20 37 33q50 36 109.5 56.5t124.5 20.5
q64 0 117.5 -16t102.5 -49l43 73q5 9 14 4l54 -32q9 -5 4 -14z" />
    <glyph glyph-name="honokhukthai" unicode="&#xe2e;" horiz-adv-x="874" 
d="M701 756q5 -5 8 -10t5 -9l-2 2l2 -3q20 -31 29.5 -65t9.5 -71v-321q0 -52 -16.5 -94.5t-47.5 -80.5l-17.5 -17.5t-18.5 -16.5q-104 -74 -236 -74q-66 0 -125 19t-109 55q-6 5 -14 12t-15 12l-8 7q-31 37 -48 80.5t-17 94.5v246q0 10 9 10h145q10 0 10 -10v-61
q0 -10 -10 -10h-71v-175q0 -23 5.5 -43.5t15.5 -37.5q9 -18 22.5 -34t31.5 -32h-1q18 -14 38.5 -24.5t41.5 -17.5q24 -7 47.5 -11t51.5 -4q26 0 50 4t48 11q23 8 43.5 17.5t35.5 23.5q20 15 34 31t23 36q10 17 15 38.5t5 42.5v324q0 13 -3 29t-8.5 28.5t-8.5 23.5
q-6 10 -12 19t-15.5 21t-26.5 24.5t-37 23.5t-42 19v-1q-24 7 -49.5 12t-51.5 5t-50 -5t-50 -12l1 1q-44 -16 -80 -44q-34 -24 -53 -63q-8 -15 -13.5 -33.5t-7.5 -37.5q-2 -9 -10 -9h-62q-9 0 -9 10q2 46 18 86t45 73q17 20 37 33q50 36 109.5 56.5t124.5 20.5
q64 0 117.5 -16t102.5 -49l43 73q5 9 14 4l54 -32q9 -5 4 -14z" />
    <glyph glyph-name="paiyannoithai" unicode="&#xcf;" horiz-adv-x="749" 
d="M638 867q10 0 10 -10v-844q0 -10 -10 -10h-59q-10 0 -10 10v667q-1 0 -2 -1v1l-11 -10q-92 -68 -215 -68q-121 0 -215 68q-47 35 -68.5 81t-23.5 103q0 10 10 10h56q8 0 10 -9q2 -20 6.5 -37.5t15.5 -34.5q7 -17 20 -31t28 -25q16 -12 34 -23t38 -17q20 -7 43 -11t46 -4
q24 0 47 4t43 11q17 6 36 17t36 23q14 10 27 25t21 32q8 16 13 34.5t5 38.5q0 10 10 10h59z" />
    <glyph glyph-name="paiyannoithai" unicode="&#xe2f;" horiz-adv-x="749" 
d="M638 867q10 0 10 -10v-844q0 -10 -10 -10h-59q-10 0 -10 10v667q-1 0 -2 -1v1l-11 -10q-92 -68 -215 -68q-121 0 -215 68q-47 35 -68.5 81t-23.5 103q0 10 10 10h56q8 0 10 -9q2 -20 6.5 -37.5t15.5 -34.5q7 -17 20 -31t28 -25q16 -12 34 -23t38 -17q20 -7 43 -11t46 -4
q24 0 47 4t43 11q17 6 36 17t36 23q14 10 27 25t21 32q8 16 13 34.5t5 38.5q0 10 10 10h59z" />
    <glyph glyph-name="saraathai" unicode="&#xd0;" horiz-adv-x="447" 
d="M355 662q0 8 10 8t10 -8v-61q0 -8 -10 -8t-10 8v61zM375 601q0 -10 -10 -10h-281q-10 0 -10 10v118q0 9 10 9h62q10 0 10 -9v-48h209q10 0 10 -9v-61zM375 200q0 -10 -10 -10h-281q-10 0 -10 10v118q0 9 10 9h62q10 0 10 -9v-48h209q10 0 10 -9v-61z" />
    <glyph glyph-name="saraathai" unicode="&#xe30;" horiz-adv-x="447" 
d="M355 662q0 8 10 8t10 -8v-61q0 -8 -10 -8t-10 8v61zM375 601q0 -10 -10 -10h-281q-10 0 -10 10v118q0 9 10 9h62q10 0 10 -9v-48h209q10 0 10 -9v-61zM375 200q0 -10 -10 -10h-281q-10 0 -10 10v118q0 9 10 9h62q10 0 10 -9v-48h209q10 0 10 -9v-61z" />
    <glyph glyph-name="maihanakatthai" unicode="&#xd1;" 
d="M-41 990q0 -10 -10 -10h-436q-9 0 -9 10v147q0 10 9 10h67q10 0 10 -10v-70h359q10 0 10 -10v-67z" />
    <glyph glyph-name="maihanakatthai" unicode="&#xe31;" 
d="M-41 990q0 -10 -10 -10h-436q-9 0 -9 10v147q0 10 9 10h67q10 0 10 -10v-70h359q10 0 10 -10v-67z" />
    <glyph glyph-name="saraaathai" unicode="&#xd2;" horiz-adv-x="731" 
d="M20 719q55 72 130.5 107t170.5 35q67 0 124 -18.5t102 -50.5q48 -36 74 -89t26 -114v-574q0 -10 -10 -10h-60q-10 0 -10 10v555q0 48 -18.5 87.5t-49.5 68.5q-35 26 -80 40.5t-98 14.5q-151 0 -232 -104q-4 -7 -12 -3l-54 30z" />
    <glyph glyph-name="saraaathai" unicode="&#xe32;" horiz-adv-x="731" 
d="M20 719q55 72 130.5 107t170.5 35q67 0 124 -18.5t102 -50.5q48 -36 74 -89t26 -114v-574q0 -10 -10 -10h-60q-10 0 -10 10v555q0 48 -18.5 87.5t-49.5 68.5q-35 26 -80 40.5t-98 14.5q-151 0 -232 -104q-4 -7 -12 -3l-54 30z" />
    <glyph glyph-name="saraamthai" unicode="&#xd3;" horiz-adv-x="737" 
d="M-254 1058q0 28 10 52.5t28 42.5t42.5 28t53.5 10q28 0 52.5 -10t42.5 -28t28 -42.5t10 -52.5q0 -29 -10 -53.5t-28 -42.5t-42.5 -28t-52.5 -10q-29 0 -53.5 10t-42.5 28t-28 42.5t-10 53.5zM-178 1057q0 -25 16.5 -41t41.5 -16q24 0 40.5 16t16.5 41q0 24 -16.5 41
t-40.5 17q-25 0 -41.5 -17t-16.5 -41zM21 704l54 -30q8 -4 12 3q81 104 232 104q53 0 98 -14.5t80 -40.5q31 -29 49.5 -68.5t18.5 -87.5v-560q0 -10 10 -10h60q10 0 10 10v579q0 61 -26 114t-74 89q-45 32 -102 50.5t-124 18.5q-95 0 -170.5 -35t-130.5 -107z" />
    <glyph glyph-name="saraamthai" unicode="&#xe33;" horiz-adv-x="737" 
d="M-254 1058q0 28 10 52.5t28 42.5t42.5 28t53.5 10q28 0 52.5 -10t42.5 -28t28 -42.5t10 -52.5q0 -29 -10 -53.5t-28 -42.5t-42.5 -28t-52.5 -10q-29 0 -53.5 10t-42.5 28t-28 42.5t-10 53.5zM-178 1057q0 -25 16.5 -41t41.5 -16q24 0 40.5 16t16.5 41q0 24 -16.5 41
t-40.5 17q-25 0 -41.5 -17t-16.5 -41zM21 704l54 -30q8 -4 12 3q81 104 232 104q53 0 98 -14.5t80 -40.5q31 -29 49.5 -68.5t18.5 -87.5v-560q0 -10 10 -10h60q10 0 10 10v579q0 61 -26 114t-74 89q-45 32 -102 50.5t-124 18.5q-95 0 -170.5 -35t-130.5 -107z" />
    <glyph glyph-name="saraithai" unicode="&#xd4;" 
d="M-127 1057q10 0 10 -10v-60q0 -10 -10 -10h-510q-5 0 -8 3t-2 8l11 60q2 9 9 9h500z" />
    <glyph glyph-name="saraithai" unicode="&#xe34;" 
d="M-127 1057q10 0 10 -10v-60q0 -10 -10 -10h-510q-5 0 -8 3t-2 8l11 60q2 9 9 9h500z" />
    <glyph glyph-name="saraiithai" unicode="&#xd5;" 
d="M-190 1129q0 9 10 9h64q9 0 9 -9v-148q0 -10 -9 -10h-598q-5 0 -8 3.5t-2 8.5l12 64q2 8 10 8h512v74z" />
    <glyph glyph-name="saraiithai" unicode="&#xe35;" 
d="M-190 1129q0 9 10 9h64q9 0 9 -9v-148q0 -10 -9 -10h-598q-5 0 -8 3.5t-2 8.5l12 64q2 8 10 8h512v74z" />
    <glyph glyph-name="sarauethai" unicode="&#xd6;" 
d="M-124 1178q19 0 37 -7.5t32 -21t22 -31.5t8 -39q0 -40 -27 -68t-66 -31h-450q-12 0 -10 12l17 67q2 8 9 8h329q-1 4 -0.5 6.5t0.5 5.5q0 42 28 70.5t71 28.5zM-121 1059q9 0 15 6t6 14q0 9 -6 15t-15 6t-15.5 -6t-6.5 -15q0 -8 6.5 -14t15.5 -6z" />
    <glyph glyph-name="sarauethai" unicode="&#xe36;" 
d="M-124 1178q19 0 37 -7.5t32 -21t22 -31.5t8 -39q0 -40 -27 -68t-66 -31h-450q-12 0 -10 12l17 67q2 8 9 8h329q-1 4 -0.5 6.5t0.5 5.5q0 42 28 70.5t71 28.5zM-121 1059q9 0 15 6t6 14q0 9 -6 15t-15 6t-15.5 -6t-6.5 -15q0 -8 6.5 -14t15.5 -6z" />
    <glyph glyph-name="saraueethai" unicode="&#xd7;" 
d="M-611 980q-12 0 -10 12l15 67q2 8 10 8h286v74q0 10 10 10h68q10 0 10 -10v-74h55v74q0 10 10 10h66q9 0 9 -10v-151q0 -10 -9 -10h-520z" />
    <glyph glyph-name="saraueethai" unicode="&#xe37;" 
d="M-611 980q-12 0 -10 12l15 67q2 8 10 8h286v74q0 10 10 10h68q10 0 10 -10v-74h55v74q0 10 10 10h66q9 0 9 -10v-151q0 -10 -9 -10h-520z" />
    <glyph glyph-name="sarauthai" unicode="&#xd8;" 
d="M-183 -283q-10 0 -10 10v114h-87q-9 0 -9 10v61q0 9 9 9h160q9 0 9 -9v-185q0 -10 -9 -10h-63z" />
    <glyph glyph-name="sarauthai" unicode="&#xe38;" 
d="M-183 -283q-10 0 -10 10v114h-87q-9 0 -9 10v61q0 9 9 9h160q9 0 9 -9v-185q0 -10 -9 -10h-63z" />
    <glyph glyph-name="sarauuthai" unicode="&#xd9;" 
d="M-125 -208q0 -69 -51 -109q-49 -41 -114 -41q-62 0 -111 41q-27 20 -39 47.5t-12 61.5v121q0 9 10 9h63q9 0 9 -9v-119q0 -34 23 -53q24 -18 52 -18h13q28 0 52 18q23 19 23 53v119q0 9 9 9h63q10 0 10 -9v-121v0z" />
    <glyph glyph-name="sarauuthai" unicode="&#xe39;" 
d="M-125 -208q0 -69 -51 -109q-49 -41 -114 -41q-62 0 -111 41q-27 20 -39 47.5t-12 61.5v121q0 9 10 9h63q9 0 9 -9v-119q0 -34 23 -53q24 -18 52 -18h13q28 0 52 18q23 19 23 53v119q0 9 9 9h63q10 0 10 -9v-121v0z" />
    <glyph glyph-name="phinthuthai" unicode="&#xda;" 
d="M-123 -79q24 0 44 -18.5t20 -46.5q0 -27 -20 -45t-44 -18q-27 0 -45.5 18t-18.5 45q0 28 18.5 46.5t45.5 18.5z" />
    <glyph glyph-name="phinthuthai" unicode="&#xe3a;" 
d="M-123 -79q24 0 44 -18.5t20 -46.5q0 -27 -20 -45t-44 -18q-27 0 -45.5 18t-18.5 45q0 28 18.5 46.5t45.5 18.5z" />
    <glyph glyph-name="nptp3.001march2007p" unicode="&#xdb;" 
 />
    <glyph glyph-name="nptp3.001march2007p" unicode="&#xe3b;" 
 />
    <glyph glyph-name="nptp3.001march2007u" unicode="&#xdc;" 
 />
    <glyph glyph-name="nptp3.001march2007u" unicode="&#xe3c;" 
 />
    <glyph glyph-name="nptp3.001march2007c" unicode="&#xdd;" 
 />
    <glyph glyph-name="nptp3.001march2007c" unicode="&#xe3d;" 
 />
    <glyph glyph-name="nptp3.001march2007r" unicode="&#xe3e;" 
 />
    <glyph glyph-name="bahtthai" unicode="&#xdf;" horiz-adv-x="792" 
d="M653 956q57 -66 57 -161v-41q-5 -59 -25 -97t-42 -63q-8 -8 -19 -16t-13 -9q9 -4 16.5 -8.5l12.5 -7.5q26 -17 40 -46t21 -57q8 -33 9 -69v-153q-2 -38 -17.5 -70.5t-39.5 -61.5q-8 -9 -17.5 -18t-17.5 -14l1 1q-38 -29 -81.5 -45t-90.5 -21v-103q0 -10 -9 -10h-69
q-9 0 -9 10v102q-51 5 -94 20t-81 45l1 -1q-10 6 -17 14t-15 18q-62 65 -62 160v792q0 10 9 10h67q9 0 9 -10v-67q3 2 9 5l-1 -1q38 29 81.5 48t93.5 24v128q0 10 9 10h69q9 0 9 -10v-128q47 -6 90.5 -24t81.5 -44l17 -16l16 -15h1zM360 601v371q-13 -2 -25 -5t-20 -6h1
q-21 -8 -39.5 -16.5t-33.5 -21.5h1q-15 -14 -28.5 -28t-22.5 -31q-16 -29 -16 -72v-191h183zM313 95q22 -10 47 -13v441h-183v-263q0 -40 16 -73q8 -15 21.5 -29t29.5 -27q14 -13 31.5 -21.5t36.5 -13.5zM605 459q-14 17 -34.5 28.5t-43 18.5t-44 10.5t-36.5 5.5v-439
q10 2 20 5t20 7q43 10 70 35q34 25 49 57q5 11 10 24.5t10 28.5v167q-2 13 -8 26t-14 27zM447 602q54 4 88 23t53.5 44t27.5 51.5t10 46.5v30q-2 20 -6 37t-14 34q-8 14 -19.5 28t-28.5 27q-12 11 -27 17.5t-30 14.5l-13 6h1q-8 3 -19 5.5t-23 4.5v-369zM447 592v10
q-4 -1 -9 -1z" />
    <glyph glyph-name="bahtthai" unicode="&#xe3f;" horiz-adv-x="792" 
d="M653 956q57 -66 57 -161v-41q-5 -59 -25 -97t-42 -63q-8 -8 -19 -16t-13 -9q9 -4 16.5 -8.5l12.5 -7.5q26 -17 40 -46t21 -57q8 -33 9 -69v-153q-2 -38 -17.5 -70.5t-39.5 -61.5q-8 -9 -17.5 -18t-17.5 -14l1 1q-38 -29 -81.5 -45t-90.5 -21v-103q0 -10 -9 -10h-69
q-9 0 -9 10v102q-51 5 -94 20t-81 45l1 -1q-10 6 -17 14t-15 18q-62 65 -62 160v792q0 10 9 10h67q9 0 9 -10v-67q3 2 9 5l-1 -1q38 29 81.5 48t93.5 24v128q0 10 9 10h69q9 0 9 -10v-128q47 -6 90.5 -24t81.5 -44l17 -16l16 -15h1zM360 601v371q-13 -2 -25 -5t-20 -6h1
q-21 -8 -39.5 -16.5t-33.5 -21.5h1q-15 -14 -28.5 -28t-22.5 -31q-16 -29 -16 -72v-191h183zM313 95q22 -10 47 -13v441h-183v-263q0 -40 16 -73q8 -15 21.5 -29t29.5 -27q14 -13 31.5 -21.5t36.5 -13.5zM605 459q-14 17 -34.5 28.5t-43 18.5t-44 10.5t-36.5 5.5v-439
q10 2 20 5t20 7q43 10 70 35q34 25 49 57q5 11 10 24.5t10 28.5v167q-2 13 -8 26t-14 27zM447 602q54 4 88 23t53.5 44t27.5 51.5t10 46.5v30q-2 20 -6 37t-14 34q-8 14 -19.5 28t-28.5 27q-12 11 -27 17.5t-30 14.5l-13 6h1q-8 3 -19 5.5t-23 4.5v-369zM447 592v10
q-4 -1 -9 -1z" />
    <glyph glyph-name="saraethai" unicode="&#xe0;" horiz-adv-x="343" 
d="M210 184q0 -2 1 -16.5t3.5 -34.5t6.5 -41.5t11 -36.5l10 -29q3 -10 -7 -12l-55 -14q-6 -2 -10 6l-21 49q-5 11 -7.5 23t-4.5 23q-3 16 -4 31.5t-2 28.5q-1 15 -1 28v659q0 10 9 10h61q10 0 10 -10v-664v0z" />
    <glyph glyph-name="saraethai" unicode="&#xe40;" horiz-adv-x="343" 
d="M210 184q0 -2 1 -16.5t3.5 -34.5t6.5 -41.5t11 -36.5l10 -29q3 -10 -7 -12l-55 -14q-6 -2 -10 6l-21 49q-5 11 -7.5 23t-4.5 23q-3 16 -4 31.5t-2 28.5q-1 15 -1 28v659q0 10 9 10h61q10 0 10 -10v-664v0z" />
    <glyph glyph-name="saraaethai" unicode="&#xe1;" horiz-adv-x="733" 
d="M225 180q0 -2 1 -16.5t3.5 -34.5t7 -41.5t10.5 -37.5l11 -30q4 -10 -8 -12l-55 -14q-7 -2 -11 6l-21 50q-5 11 -7.5 23.5t-4.5 23.5q-3 16 -4.5 31.5t-2.5 28.5q-1 15 -1 28v668q0 10 10 10h62q10 0 10 -10v-673zM588 180q0 -2 1 -16.5t4 -34.5t7.5 -41.5t11.5 -37.5
l9 -30q4 -10 -6 -12l-56 -14q-8 -2 -12 6l-20 50q-5 11 -7.5 23.5t-4.5 23.5q-4 16 -5.5 31.5t-2.5 28.5q-1 15 -1 28v668q0 10 11 10h62q9 0 9 -10v-673z" />
    <glyph glyph-name="saraaethai" unicode="&#xe41;" horiz-adv-x="733" 
d="M225 180q0 -2 1 -16.5t3.5 -34.5t7 -41.5t10.5 -37.5l11 -30q4 -10 -8 -12l-55 -14q-7 -2 -11 6l-21 50q-5 11 -7.5 23.5t-4.5 23.5q-3 16 -4.5 31.5t-2.5 28.5q-1 15 -1 28v668q0 10 10 10h62q10 0 10 -10v-673zM588 180q0 -2 1 -16.5t4 -34.5t7.5 -41.5t11.5 -37.5
l9 -30q4 -10 -6 -12l-56 -14q-8 -2 -12 6l-20 50q-5 11 -7.5 23.5t-4.5 23.5q-4 16 -5.5 31.5t-2.5 28.5q-1 15 -1 28v668q0 10 11 10h62q9 0 9 -10v-673z" />
    <glyph glyph-name="saraothai" unicode="&#xe2;" horiz-adv-x="277" 
d="M399 1305q28 -24 45.5 -58t26.5 -72q2 -5 -1.5 -8t-8.5 -3h-64q-8 0 -10 7q-6 26 -20.5 43.5t-40.5 34.5l1 -1q-30 19 -64.5 29t-87.5 10t-87.5 -10t-65.5 -29l1 1q-26 -19 -41.5 -37t-22.5 -44q54 -23 107 -45.5t107 -44.5l6 -3q6 -2 6 -9v-1055q0 -10 -10 -10h-56
q-10 0 -10 10v1007l-143 59h1l-50 17h1q-5 0 -12.5 3t-14.5 9.5t-12.5 17.5t-5.5 28q8 43 27.5 84t55.5 71q42 31 93.5 47.5t112.5 16.5h24q62 0 113 -17.5t92 -46.5h1z" />
    <glyph glyph-name="saraothai" unicode="&#xe42;" horiz-adv-x="277" 
d="M399 1305q28 -24 45.5 -58t26.5 -72q2 -5 -1.5 -8t-8.5 -3h-64q-8 0 -10 7q-6 26 -20.5 43.5t-40.5 34.5l1 -1q-30 19 -64.5 29t-87.5 10t-87.5 -10t-65.5 -29l1 1q-26 -19 -41.5 -37t-22.5 -44q54 -23 107 -45.5t107 -44.5l6 -3q6 -2 6 -9v-1055q0 -10 -10 -10h-56
q-10 0 -10 10v1007l-143 59h1l-50 17h1q-5 0 -12.5 3t-14.5 9.5t-12.5 17.5t-5.5 28q8 43 27.5 84t55.5 71q42 31 93.5 47.5t112.5 16.5h24q62 0 113 -17.5t92 -46.5h1z" />
    <glyph glyph-name="saraaimaimuanthai" unicode="&#xe3;" horiz-adv-x="296" 
d="M421 1146q-5 -10 -15.5 -19t-23.5 -17t-26 -14t-23 -10q-3 -3 -7 -5q-2 -1 -3 -1l-4 -2l-135 -55v-1006q0 -10 -10 -10h-55q-10 0 -10 10v1030q0 9 0.5 16t4.5 15l1 1l2 4l217 90q-6 27 -22 45t-42 37h1q-58 38 -139 38h-24q-37 -4 -67 -16q-26 -11 -49 -30.5t-29 -54.5
q-2 -8 -10 -8h-64q-5 0 -8 3t-2 8q2 17 9 35q6 16 16.5 36t30.5 41q24 24 70 44.5t109 25.5h18q61 0 112.5 -16.5t92.5 -47.5q2 -1 2.5 -3t1.5 -4v7q32 -30 53 -71.5t27 -84.5v-11v0z" />
    <glyph glyph-name="saraaimaimuanthai" unicode="&#xe43;" horiz-adv-x="296" 
d="M421 1146q-5 -10 -15.5 -19t-23.5 -17t-26 -14t-23 -10q-3 -3 -7 -5q-2 -1 -3 -1l-4 -2l-135 -55v-1006q0 -10 -10 -10h-55q-10 0 -10 10v1030q0 9 0.5 16t4.5 15l1 1l2 4l217 90q-6 27 -22 45t-42 37h1q-58 38 -139 38h-24q-37 -4 -67 -16q-26 -11 -49 -30.5t-29 -54.5
q-2 -8 -10 -8h-64q-5 0 -8 3t-2 8q2 17 9 35q6 16 16.5 36t30.5 41q24 24 70 44.5t109 25.5h18q61 0 112.5 -16.5t92.5 -47.5q2 -1 2.5 -3t1.5 -4v7q32 -30 53 -71.5t27 -84.5v-11v0z" />
    <glyph glyph-name="saraaimaimalaithai" unicode="&#xe4;" horiz-adv-x="332" 
d="M362 1307q1 -1 1.5 -1t1.5 -2q35 -29 54.5 -70t25.5 -83q0 -17 -5.5 -28t-12.5 -17.5t-14 -9.5t-11 -4l-46 -16q-37 -15 -73 -30t-73 -30v-1006q0 -10 -10 -10h-59q-9 0 -9 10v1030v9t1 4q1 5 1 7.5v4.5t2 6v-2q0 1 0.5 1.5t0.5 1.5l4 3h-2l3 2l218 89q-7 27 -23 45
t-42 37l1 -1q-8 5 -14 8t-15 7l-135 -59l-7 -1l-128 54q-9 4 -5 13l28 59q4 9 13 5l75 -31l18 -7l15 10l126 49q23 -5 44 -15.5t43 -24.5zM137 1079l-1 -1q0 2 3 4z" />
    <glyph glyph-name="saraaimaimalaithai" unicode="&#xe44;" horiz-adv-x="332" 
d="M362 1307q1 -1 1.5 -1t1.5 -2q35 -29 54.5 -70t25.5 -83q0 -17 -5.5 -28t-12.5 -17.5t-14 -9.5t-11 -4l-46 -16q-37 -15 -73 -30t-73 -30v-1006q0 -10 -10 -10h-59q-9 0 -9 10v1030v9t1 4q1 5 1 7.5v4.5t2 6v-2q0 1 0.5 1.5t0.5 1.5l4 3h-2l3 2l218 89q-7 27 -23 45
t-42 37l1 -1q-8 5 -14 8t-15 7l-135 -59l-7 -1l-128 54q-9 4 -5 13l28 59q4 9 13 5l75 -31l18 -7l15 10l126 49q23 -5 44 -15.5t43 -24.5zM137 1079l-1 -1q0 2 3 4z" />
    <glyph glyph-name="lakkhangyaothai" unicode="&#xe5;" horiz-adv-x="973" 
d="M785 625q0 31 -14 59.5t-39 50t-59 34t-73 12.5h-536q-9 0 -9 9v60q0 10 9 10h536q55 0 103 -19t84 -51.5t56.5 -75t20.5 -89.5v-1004q0 -10 -9 -10h-61q-9 0 -9 10v1004z" />
    <glyph glyph-name="lakkhangyaothai" unicode="&#xe45;" horiz-adv-x="973" 
d="M785 625q0 31 -14 59.5t-39 50t-59 34t-73 12.5h-536q-9 0 -9 9v60q0 10 9 10h536q55 0 103 -19t84 -51.5t56.5 -75t20.5 -89.5v-1004q0 -10 -9 -10h-61q-9 0 -9 10v1004z" />
    <glyph glyph-name="maiyamokthai" unicode="&#xe6;" horiz-adv-x="905" 
d="M559 856q111 0 176 -86q37 -42 54 -89t17 -102v-789q0 -9 -10 -9h-65q-10 0 -10 9v789q0 37 -9 70t-29 62q-20 28 -46 44.5t-57 19.5q-22 2 -42 -8q-17 -8 -35.5 -29.5t-29.5 -63.5q-2 -6 -10 -6h-51q-3 0 -6 2.5t-3 4.5q-8 30 -21 54q-6 10 -13.5 19t-17 16t-21 10
t-25.5 1q-31 -3 -56 -19.5t-45 -44.5q-8 -12 -15 -26t-11 -28h33q10 0 10 -10v-53q0 -10 -10 -10h-114q-9 0 -9 10v55l3 13l7 25l-1 -1q8 24 20.5 46.5t28.5 41.5v-1q15 18 30.5 30t34.5 23l10 7q22 10 47.5 15t48.5 5h2q3 2 7 0q8 0 21.5 -2.5t28.5 -10t30.5 -21.5
t28.5 -38q7 9 18.5 22t27 25t35.5 20t43 8z" />
    <glyph glyph-name="maiyamokthai" unicode="&#xe46;" horiz-adv-x="905" 
d="M559 856q111 0 176 -86q37 -42 54 -89t17 -102v-789q0 -9 -10 -9h-65q-10 0 -10 9v789q0 37 -9 70t-29 62q-20 28 -46 44.5t-57 19.5q-22 2 -42 -8q-17 -8 -35.5 -29.5t-29.5 -63.5q-2 -6 -10 -6h-51q-3 0 -6 2.5t-3 4.5q-8 30 -21 54q-6 10 -13.5 19t-17 16t-21 10
t-25.5 1q-31 -3 -56 -19.5t-45 -44.5q-8 -12 -15 -26t-11 -28h33q10 0 10 -10v-53q0 -10 -10 -10h-114q-9 0 -9 10v55l3 13l7 25l-1 -1q8 24 20.5 46.5t28.5 41.5v-1q15 18 30.5 30t34.5 23l10 7q22 10 47.5 15t48.5 5h2q3 2 7 0q8 0 21.5 -2.5t28.5 -10t30.5 -21.5
t28.5 -38q7 9 18.5 22t27 25t35.5 20t43 8z" />
    <glyph glyph-name="maitaikhuthai" unicode="&#xe7;" 
d="M-537 1210q39 39 92 39h272q9 0 9 -9v-68q0 -9 -9 -9h-269q-9 0 -18.5 -3.5t-18.5 -8.5l1 1q-5 -5 -14.5 -15.5t-9.5 -27.5q0 -10 6 -21t21 -24l-4 1l2 -1h1q8 -4 17 -7.5t17 -3.5h28l107 58q5 2 10 0l108 -62q7 -4 4 -13l-26 -49q-4 -10 -13 -5l-79 42l-105 -55h-37
q-28 0 -50.5 8t-39.5 28h1l-15 14q-3 1 -5 5q-1 2 -1 3q-3 3 -5 9q-3 2 -5 12q0 1 -0.5 1t-0.5 1l-3 3q-8 15 -10.5 28t-2.5 24q0 23 7.5 43t17.5 36q4 5 3.5 6t1.5 3t1.5 2t0.5 2q1 3 5 7l5 2l-1 -4q0 1 0.5 1t0.5 1z" />
    <glyph glyph-name="maitaikhuthai" unicode="&#xe47;" 
d="M-537 1210q39 39 92 39h272q9 0 9 -9v-68q0 -9 -9 -9h-269q-9 0 -18.5 -3.5t-18.5 -8.5l1 1q-5 -5 -14.5 -15.5t-9.5 -27.5q0 -10 6 -21t21 -24l-4 1l2 -1h1q8 -4 17 -7.5t17 -3.5h28l107 58q5 2 10 0l108 -62q7 -4 4 -13l-26 -49q-4 -10 -13 -5l-79 42l-105 -55h-37
q-28 0 -50.5 8t-39.5 28h1l-15 14q-3 1 -5 5q-1 2 -1 3q-3 3 -5 9q-3 2 -5 12q0 1 -0.5 1t-0.5 1l-3 3q-8 15 -10.5 28t-2.5 24q0 23 7.5 43t17.5 36q4 5 3.5 6t1.5 3t1.5 2t0.5 2q1 3 5 7l5 2l-1 -4q0 1 0.5 1t0.5 1z" />
    <glyph glyph-name="maiekthai" unicode="&#xe8;" 
d="M-193 1228v166q0 10 10 10h70q10 0 10 -10v-166h-90z" />
    <glyph glyph-name="maiekthai" unicode="&#xe48;" 
d="M-193 1228v166q0 10 10 10h70q10 0 10 -10v-166h-90z" />
    <glyph glyph-name="maithothai" unicode="&#xe9;" 
d="M21 1354q10 0 10 -10v-63q0 -10 -10 -10h-241q-4 0 -7 3l-23 25q-3 3 -3 6v75h-51q-9 0 -9 9v68q0 9 9 9h76q15 0 24.5 -4.5t16 -11.5t10 -15t6.5 -14v-67h192z" />
    <glyph glyph-name="maithothai" unicode="&#xe49;" 
d="M21 1354q10 0 10 -10v-63q0 -10 -10 -10h-241q-4 0 -7 3l-23 25q-3 3 -3 6v75h-51q-9 0 -9 9v68q0 9 9 9h76q15 0 24.5 -4.5t16 -11.5t10 -15t6.5 -14v-67h192z" />
    <glyph glyph-name="maitrithai" unicode="&#xea;" 
d="M-252 1224q0 -10 -10 -10h-147q-10 0 -10 10v72q0 30 11 53t32 43q22 17 47.5 25.5t58.5 8.5h8q10 0 21 -3q8 -2 17.5 -6.5t16.5 -12.5q8 6 24 13.5t39 8.5h5h7.5t8.5 -2q127 -9 127 -128v-1h130q4 0 7 -3t2 -7l-8 -62q0 -9 -9 -9h-195q-10 0 -10 10v62q0 29 -12.5 42.5
t-37.5 15.5q-8 0 -20.5 -3t-20.5 -17q-2 -5 -8 -5h-47q-8 7 -17 12q-8 5 -17 9t-20 4h-5q-2 0 -5 -2q-23 -3 -34.5 -13.5t-12.5 -33.5q18 0 36.5 -1t37.5 -1q10 0 10 -9v-60z" />
    <glyph glyph-name="maitrithai" unicode="&#xe4a;" 
d="M-252 1224q0 -10 -10 -10h-147q-10 0 -10 10v72q0 30 11 53t32 43q22 17 47.5 25.5t58.5 8.5h8q10 0 21 -3q8 -2 17.5 -6.5t16.5 -12.5q8 6 24 13.5t39 8.5h5h7.5t8.5 -2q127 -9 127 -128v-1h130q4 0 7 -3t2 -7l-8 -62q0 -9 -9 -9h-195q-10 0 -10 10v62q0 29 -12.5 42.5
t-37.5 15.5q-8 0 -20.5 -3t-20.5 -17q-2 -5 -8 -5h-47q-8 7 -17 12q-8 5 -17 9t-20 4h-5q-2 0 -5 -2q-23 -3 -34.5 -13.5t-12.5 -33.5q18 0 36.5 -1t37.5 -1q10 0 10 -9v-60z" />
    <glyph glyph-name="maichattawathai" unicode="&#xeb;" 
d="M-170 1374v68q0 10 10 10h63q9 0 9 -10v-68h69q9 0 9 -10v-59q0 -10 -9 -10h-69v-68q0 -10 -9 -10h-63q-10 0 -10 10v68h-68q-10 0 -10 10v59q0 10 10 10h68z" />
    <glyph glyph-name="maichattawathai" unicode="&#xe4b;" 
d="M-170 1374v68q0 10 10 10h63q9 0 9 -10v-68h69q9 0 9 -10v-59q0 -10 -9 -10h-69v-68q0 -10 -9 -10h-63q-10 0 -10 10v68h-68q-10 0 -10 10v59q0 10 10 10h68z" />
    <glyph glyph-name="thanthakhatthai" unicode="&#xec;" 
d="M-139 1230q0 -10 -10 -10h-151v-80q0 -10 -9 -10h-63q-10 0 -10 10v145q0 9 10 9h223q10 0 10 -9v-55z" />
    <glyph glyph-name="thanthakhatthai" unicode="&#xe4c;" 
d="M-139 1230q0 -10 -10 -10h-151v-80q0 -10 -9 -10h-63q-10 0 -10 10v145q0 9 10 9h223q10 0 10 -9v-55z" />
    <glyph glyph-name="nikhahitthai" unicode="&#xed;" 
d="M-166 1060q0 -18 14 -30.5t30 -12.5q19 0 31.5 12.5t12.5 30.5q0 19 -12.5 31.5t-31.5 12.5q-16 0 -30 -12.5t-14 -31.5zM-122 1170q22 0 42 -8.5t35 -23.5t23.5 -35t8.5 -43q0 -22 -8.5 -42t-23 -35t-34.5 -23.5t-43 -8.5q-22 0 -42 8.5t-35 23.5t-23.5 35t-8.5 42
q0 23 9 43t24.5 35t35 23.5t40.5 8.5z" />
    <glyph glyph-name="nikhahitthai" unicode="&#xe4d;" 
d="M-166 1060q0 -18 14 -30.5t30 -12.5q19 0 31.5 12.5t12.5 30.5q0 19 -12.5 31.5t-31.5 12.5q-16 0 -30 -12.5t-14 -31.5zM-122 1170q22 0 42 -8.5t35 -23.5t23.5 -35t8.5 -43q0 -22 -8.5 -42t-23 -35t-34.5 -23.5t-43 -8.5q-22 0 -42 8.5t-35 23.5t-23.5 35t-8.5 42
q0 23 9 43t24.5 35t35 23.5t40.5 8.5z" />
    <glyph glyph-name="yamakkanthai" unicode="&#xee;" 
d="M-431 1101q0 80 97 132q-23 23 -23 55q0 34 22 64.5t57 53t80 35.5t90 13q32 -1 63.5 -4.5t63.5 -15.5l23 -9q6 -2 6 -9v-63q0 -13 -13 -9l-11 4v-1q-23 7 -40 12.5t-31.5 9t-28.5 5t-32 1.5q-26 0 -55.5 -7.5t-55 -19.5t-42.5 -28t-17 -32q0 -15 68 -32l23 -8q3 0 5 -3
t2 -6v-50q0 -10 -10 -10h-29h-7t-7 1q-3 0 -5 0.5t-4 0.5q-17 0 -36.5 -8.5t-36 -20.5t-27 -26t-10.5 -25q0 -27 24.5 -44.5t64.5 -17.5q75 0 104 55l11 16q2 5 9 5h61q6 0 8.5 -4.5t0.5 -9.5l-20 -47q-51 -94 -174 -94q-37 0 -68 11t-53 29.5t-34.5 44.5t-12.5 56z" />
    <glyph glyph-name="yamakkanthai" unicode="&#xe4e;" 
d="M-431 1101q0 80 97 132q-23 23 -23 55q0 34 22 64.5t57 53t80 35.5t90 13q32 -1 63.5 -4.5t63.5 -15.5l23 -9q6 -2 6 -9v-63q0 -13 -13 -9l-11 4v-1q-23 7 -40 12.5t-31.5 9t-28.5 5t-32 1.5q-26 0 -55.5 -7.5t-55 -19.5t-42.5 -28t-17 -32q0 -15 68 -32l23 -8q3 0 5 -3
t2 -6v-50q0 -10 -10 -10h-29h-7t-7 1q-3 0 -5 0.5t-4 0.5q-17 0 -36.5 -8.5t-36 -20.5t-27 -26t-10.5 -25q0 -27 24.5 -44.5t64.5 -17.5q75 0 104 55l11 16q2 5 9 5h61q6 0 8.5 -4.5t0.5 -9.5l-20 -47q-51 -94 -174 -94q-37 0 -68 11t-53 29.5t-34.5 44.5t-12.5 56z" />
    <glyph glyph-name="fongmanthai" unicode="&#xef;" horiz-adv-x="862" 
d="M419 90q-70 0 -131.5 26.5t-107 72t-72 107t-26.5 131.5q0 71 27 132.5t73 107t107 71.5t130 26q67 0 128.5 -25.5t108.5 -70.5t74.5 -107t27.5 -134q0 -71 -26.5 -132.5t-72 -107t-107.5 -71.5t-133 -26zM689 427q0 55 -21.5 104.5t-58.5 86t-86 58t-104 21.5
q-56 0 -105 -21.5t-85.5 -58t-58 -86t-21.5 -104.5t20.5 -104t56.5 -86t85.5 -58.5t107.5 -21.5t107.5 21.5t85.5 58.5t56.5 86t20.5 104zM419 217q-44 0 -82.5 16t-66.5 44.5t-44 67t-16 82.5t16 82.5t44 66.5t66.5 44t82.5 16q45 0 83.5 -16t67 -44t45 -66.5t16.5 -82.5
t-16.5 -82.5t-45 -67t-67 -44.5t-83.5 -16z" />
    <glyph glyph-name="fongmanthai" unicode="&#xe4f;" horiz-adv-x="862" 
d="M419 90q-70 0 -131.5 26.5t-107 72t-72 107t-26.5 131.5q0 71 27 132.5t73 107t107 71.5t130 26q67 0 128.5 -25.5t108.5 -70.5t74.5 -107t27.5 -134q0 -71 -26.5 -132.5t-72 -107t-107.5 -71.5t-133 -26zM689 427q0 55 -21.5 104.5t-58.5 86t-86 58t-104 21.5
q-56 0 -105 -21.5t-85.5 -58t-58 -86t-21.5 -104.5t20.5 -104t56.5 -86t85.5 -58.5t107.5 -21.5t107.5 21.5t85.5 58.5t56.5 86t20.5 104zM419 217q-44 0 -82.5 16t-66.5 44.5t-44 67t-16 82.5t16 82.5t44 66.5t66.5 44t82.5 16q45 0 83.5 -16t67 -44t45 -66.5t16.5 -82.5
t-16.5 -82.5t-45 -67t-67 -44.5t-83.5 -16z" />
    <glyph glyph-name="zerothai" unicode="&#xf0;" horiz-adv-x="933" 
d="M731 642q57 -54 87 -120.5t30 -147.5q0 -78 -30 -146t-87 -123q-59 -51 -127.5 -78.5t-149.5 -27.5t-151.5 27.5t-129.5 78.5q-57 55 -85.5 123t-28.5 146q0 160 114 268q60 57 129 85.5t152 28.5q166 0 277 -114zM666 170q88 84 88 207q0 124 -88 209q-43 42 -97.5 64
t-117.5 22q-66 0 -119.5 -22t-98.5 -64q-45 -43 -65.5 -94.5t-20.5 -114.5t20.5 -114t65.5 -93q90 -87 218 -87q63 0 117.5 22t97.5 65z" />
    <glyph glyph-name="zerothai" unicode="&#xe50;" horiz-adv-x="933" 
d="M731 642q57 -54 87 -120.5t30 -147.5q0 -78 -30 -146t-87 -123q-59 -51 -127.5 -78.5t-149.5 -27.5t-151.5 27.5t-129.5 78.5q-57 55 -85.5 123t-28.5 146q0 160 114 268q60 57 129 85.5t152 28.5q166 0 277 -114zM666 170q88 84 88 207q0 124 -88 209q-43 42 -97.5 64
t-117.5 22q-66 0 -119.5 -22t-98.5 -64q-45 -43 -65.5 -94.5t-20.5 -114.5t20.5 -114t65.5 -93q90 -87 218 -87q63 0 117.5 22t97.5 65z" />
    <glyph glyph-name="onethai" unicode="&#xf1;" horiz-adv-x="960" 
d="M751 736q63 -50 93.5 -118t30.5 -151q0 -93 -37.5 -174t-116.5 -151q-70 -59 -149.5 -95t-168.5 -48q-6 0 -10 6l-34 64q-2 5 0 9t7 5q164 19 285 118h-1q68 59 100 124.5t32 141.5q0 32 -6.5 62.5t-17.5 56.5q-13 26 -30.5 48.5t-39.5 39.5q-21 21 -47.5 35t-57.5 26
q-59 20 -136 20q-128 0 -224 -78q-49 -38 -71.5 -86t-22.5 -106q0 -42 13 -79.5t39 -68.5q52 -52 131 -57v141q0 10 10 10h67q10 0 10 -10v-221q0 -10 -10 -10h-67q-29 0 -59 5.5t-56 16.5t-49.5 26t-42.5 35q-19 21 -33.5 44.5t-26.5 49.5q-11 27 -15.5 56.5t-4.5 61.5
q0 158 124 254q62 49 133.5 74.5t151.5 25.5q180 0 307 -103z" />
    <glyph glyph-name="onethai" unicode="&#xe51;" horiz-adv-x="960" 
d="M751 736q63 -50 93.5 -118t30.5 -151q0 -93 -37.5 -174t-116.5 -151q-70 -59 -149.5 -95t-168.5 -48q-6 0 -10 6l-34 64q-2 5 0 9t7 5q164 19 285 118h-1q68 59 100 124.5t32 141.5q0 32 -6.5 62.5t-17.5 56.5q-13 26 -30.5 48.5t-39.5 39.5q-21 21 -47.5 35t-57.5 26
q-59 20 -136 20q-128 0 -224 -78q-49 -38 -71.5 -86t-22.5 -106q0 -42 13 -79.5t39 -68.5q52 -52 131 -57v141q0 10 10 10h67q10 0 10 -10v-221q0 -10 -10 -10h-67q-29 0 -59 5.5t-56 16.5t-49.5 26t-42.5 35q-19 21 -33.5 44.5t-26.5 49.5q-11 27 -15.5 56.5t-4.5 61.5
q0 158 124 254q62 49 133.5 74.5t151.5 25.5q180 0 307 -103z" />
    <glyph glyph-name="twothai" unicode="&#xf2;" horiz-adv-x="1273" 
d="M1109 687q34 -29 52.5 -69.5t18.5 -89.5v-519q0 -10 -9 -10h-1034q-9 0 -9 10q0 41 -0.5 79.5t-5.5 76.5q-3 35 -7.5 67.5t-11.5 62.5q-11 55 -32.5 130t-47.5 165q-14 45 -31.5 86t-35.5 75q-5 9 6 13l71 25q4 2 7 0t5 -4q21 -45 38 -86.5t30 -84.5h-1q23 -63 37 -124.5
t25 -122.5t22 -129.5t17 -144.5h874v423q0 32 -11 56.5t-32 44.5q-20 19 -45 28t-54 9q-19 0 -40 -4.5t-41 -15.5q-19 -11 -36 -28.5t-30 -39.5q-2 -5 -9 -5l-74 3q-5 0 -7 4q-31 45 -74 66q-43 20 -91 20q-70 0 -123 -44l1 1q-23 -20 -35.5 -42.5t-16.5 -51.5h137
q10 0 10 -10v-71q0 -10 -10 -10h-221q-10 0 -10 10v71q0 23 7 46t15 41q11 22 25.5 43.5t32.5 36.5v-1q16 17 38 29t45 22q26 12 53 18t52 6q64 0 117 -22.5t93 -64.5q17 17 35.5 32t38.5 26q29 14 58 21.5t60 7.5q48 0 88.5 -16.5t74.5 -44.5h1z" />
    <glyph glyph-name="twothai" unicode="&#xe52;" horiz-adv-x="1273" 
d="M1109 687q34 -29 52.5 -69.5t18.5 -89.5v-519q0 -10 -9 -10h-1034q-9 0 -9 10q0 41 -0.5 79.5t-5.5 76.5q-3 35 -7.5 67.5t-11.5 62.5q-11 55 -32.5 130t-47.5 165q-14 45 -31.5 86t-35.5 75q-5 9 6 13l71 25q4 2 7 0t5 -4q21 -45 38 -86.5t30 -84.5h-1q23 -63 37 -124.5
t25 -122.5t22 -129.5t17 -144.5h874v423q0 32 -11 56.5t-32 44.5q-20 19 -45 28t-54 9q-19 0 -40 -4.5t-41 -15.5q-19 -11 -36 -28.5t-30 -39.5q-2 -5 -9 -5l-74 3q-5 0 -7 4q-31 45 -74 66q-43 20 -91 20q-70 0 -123 -44l1 1q-23 -20 -35.5 -42.5t-16.5 -51.5h137
q10 0 10 -10v-71q0 -10 -10 -10h-221q-10 0 -10 10v71q0 23 7 46t15 41q11 22 25.5 43.5t32.5 36.5v-1q16 17 38 29t45 22q26 12 53 18t52 6q64 0 117 -22.5t93 -64.5q17 17 35.5 32t38.5 26q29 14 58 21.5t60 7.5q48 0 88.5 -16.5t74.5 -44.5h1z" />
    <glyph glyph-name="threethai" unicode="&#xf3;" horiz-adv-x="1113" 
d="M948 693q19 -13 31 -28.5t23 -34.5q11 -26 16 -49t5 -47v-519q0 -10 -9 -10h-74q-10 0 -10 10v507q0 32 -11.5 56t-34.5 44t-49.5 29t-54.5 9q-24 0 -47 -5t-48 -16h1q-20 -10 -37 -27t-28 -37v-560q0 -10 -10 -10h-74q-10 0 -10 10v563q-30 42 -74 64h1q-48 18 -101 18
q-18 0 -36 -2.5t-35 -8.5h1q-18 -8 -33.5 -14.5t-29.5 -18.5q-12 -11 -21.5 -23.5t-17.5 -27.5q-9 -14 -13.5 -30.5t-4.5 -33.5v-354q2 -16 9 -30q6 -12 18 -23.5t35 -16.5q8 -2 8 -10v-58q0 -10 -11 -10q-55 4 -99 42q-51 40 -51 103q0 3 0.5 1.5t-0.5 0.5q-2 3 -2.5 5.5
t-0.5 4.5v345q0 54 22.5 99t64.5 80t92 54t105 19q38 0 71.5 -6t59.5 -16q26 -12 49 -27.5t41 -35.5q16 20 36.5 33.5t42.5 25.5q30 12 62 19t65 7q25 0 45.5 -3.5t42.5 -10.5q25 -12 46 -22.5t35 -23.5h-1z" />
    <glyph glyph-name="threethai" unicode="&#xe53;" horiz-adv-x="1113" 
d="M948 693q19 -13 31 -28.5t23 -34.5q11 -26 16 -49t5 -47v-519q0 -10 -9 -10h-74q-10 0 -10 10v507q0 32 -11.5 56t-34.5 44t-49.5 29t-54.5 9q-24 0 -47 -5t-48 -16h1q-20 -10 -37 -27t-28 -37v-560q0 -10 -10 -10h-74q-10 0 -10 10v563q-30 42 -74 64h1q-48 18 -101 18
q-18 0 -36 -2.5t-35 -8.5h1q-18 -8 -33.5 -14.5t-29.5 -18.5q-12 -11 -21.5 -23.5t-17.5 -27.5q-9 -14 -13.5 -30.5t-4.5 -33.5v-354q2 -16 9 -30q6 -12 18 -23.5t35 -16.5q8 -2 8 -10v-58q0 -10 -11 -10q-55 4 -99 42q-51 40 -51 103q0 3 0.5 1.5t-0.5 0.5q-2 3 -2.5 5.5
t-0.5 4.5v345q0 54 22.5 99t64.5 80t92 54t105 19q38 0 71.5 -6t59.5 -16q26 -12 49 -27.5t41 -35.5q16 20 36.5 33.5t42.5 25.5q30 12 62 19t65 7q25 0 45.5 -3.5t42.5 -10.5q25 -12 46 -22.5t35 -23.5h-1z" />
    <glyph glyph-name="fourthai" unicode="&#xf4;" horiz-adv-x="1029" 
d="M893 837q2 5 3 11t1 13q0 5 3 8t8 1l74 -18q5 -1 7 -5t1 -8q-5 -16 -9.5 -32t-12.5 -31v1q-29 -63 -74.5 -94.5t-103.5 -31.5h-338q-68 0 -123.5 -22t-100.5 -65q-90 -81 -90 -214q0 -127 92 -201q42 -35 90 -50.5t104 -15.5h111q-54 47 -83 108t-31 140q0 10 10 10h73
q10 0 10 -10q2 -58 25.5 -102.5t65.5 -79.5t90 -50.5t104 -15.5h142q9 0 9 -10v-64q0 -10 -9 -10h-523q-155 0 -255 82q-60 51 -88.5 118.5t-28.5 150.5q0 84 30 154t86 124q59 55 130.5 84t159.5 29h338q67 0 102 94z" />
    <glyph glyph-name="fourthai" unicode="&#xe54;" horiz-adv-x="1029" 
d="M893 837q2 5 3 11t1 13q0 5 3 8t8 1l74 -18q5 -1 7 -5t1 -8q-5 -16 -9.5 -32t-12.5 -31v1q-29 -63 -74.5 -94.5t-103.5 -31.5h-338q-68 0 -123.5 -22t-100.5 -65q-90 -81 -90 -214q0 -127 92 -201q42 -35 90 -50.5t104 -15.5h111q-54 47 -83 108t-31 140q0 10 10 10h73
q10 0 10 -10q2 -58 25.5 -102.5t65.5 -79.5t90 -50.5t104 -15.5h142q9 0 9 -10v-64q0 -10 -9 -10h-523q-155 0 -255 82q-60 51 -88.5 118.5t-28.5 150.5q0 84 30 154t86 124q59 55 130.5 84t159.5 29h338q67 0 102 94z" />
    <glyph glyph-name="fivethai" unicode="&#xf5;" horiz-adv-x="1029" 
d="M887 848q0 4 2 10l2 6q4 7 11 6l74 -18q3 -1 5.5 -4.5t1.5 -7.5q-2 -9 -5 -18.5t-8 -20.5l-9 -24q-63 -126 -178 -126h-339q-66 0 -123 -22t-100 -65q-89 -80 -89 -214q0 -63 22.5 -113.5t68.5 -87.5q42 -35 90 -50.5t104 -15.5h111q-110 93 -115 248q0 10 10 10h74
q10 0 10 -10q2 -57 25.5 -102t62.5 -80q42 -33 92.5 -49.5t104.5 -16.5h142q9 0 9 -10v-64q0 -10 -9 -10h-523q-155 0 -255 82q-60 50 -88.5 118t-28.5 151q0 84 29.5 154t86.5 124q57 55 129.5 84t159.5 29h161q2 2 5.5 5t6.5 5q88 70 92 183q0 9 9 9h74q10 0 10 -9
q-5 -114 -63 -193h44q69 0 102 94l-1 -1z" />
    <glyph glyph-name="fivethai" unicode="&#xe55;" horiz-adv-x="1029" 
d="M887 848q0 4 2 10l2 6q4 7 11 6l74 -18q3 -1 5.5 -4.5t1.5 -7.5q-2 -9 -5 -18.5t-8 -20.5l-9 -24q-63 -126 -178 -126h-339q-66 0 -123 -22t-100 -65q-89 -80 -89 -214q0 -63 22.5 -113.5t68.5 -87.5q42 -35 90 -50.5t104 -15.5h111q-110 93 -115 248q0 10 10 10h74
q10 0 10 -10q2 -57 25.5 -102t62.5 -80q42 -33 92.5 -49.5t104.5 -16.5h142q9 0 9 -10v-64q0 -10 -9 -10h-523q-155 0 -255 82q-60 50 -88.5 118t-28.5 151q0 84 29.5 154t86.5 124q57 55 129.5 84t159.5 29h161q2 2 5.5 5t6.5 5q88 70 92 183q0 9 9 9h74q10 0 10 -9
q-5 -114 -63 -193h44q69 0 102 94l-1 -1z" />
    <glyph glyph-name="sixthai" unicode="&#xf6;" horiz-adv-x="1032" 
d="M829 653q60 -51 90.5 -118.5t30.5 -150.5q0 -170 -125 -279v1q-51 -45 -112 -71t-134 -36h-62q-10 0 -10 10v175q0 10 10 10h61q10 0 10 -10v-93q17 2 33 5.5t32 7.5l-1 -1q62 23 111 65q18 19 36 43.5t31 50.5v-1q27 54 27 123q0 122 -94 201q-101 81 -228 81
q-76 0 -154 -28q-36 -11 -71.5 -34t-68.5 -55q-2 -2 -4.5 -3t-4.5 0l-71 18q-6 2 -8 8q-12 58 -29.5 110.5t-39.5 100.5v-1l-12 20q-7 12 -13 23.5t-14 22.5q-2 4 -1.5 8.5t4.5 6.5l67 37q7 3 13 -3q11 -14 23 -32t21 -34q20 -37 36 -80t26 -85q28 20 61 36t71 29
q82 28 169 28q91 0 163.5 -27.5t131.5 -78.5h-1z" />
    <glyph glyph-name="sixthai" unicode="&#xe56;" horiz-adv-x="1032" 
d="M829 653q60 -51 90.5 -118.5t30.5 -150.5q0 -170 -125 -279v1q-51 -45 -112 -71t-134 -36h-62q-10 0 -10 10v175q0 10 10 10h61q10 0 10 -10v-93q17 2 33 5.5t32 7.5l-1 -1q62 23 111 65q18 19 36 43.5t31 50.5v-1q27 54 27 123q0 122 -94 201q-101 81 -228 81
q-76 0 -154 -28q-36 -11 -71.5 -34t-68.5 -55q-2 -2 -4.5 -3t-4.5 0l-71 18q-6 2 -8 8q-12 58 -29.5 110.5t-39.5 100.5v-1l-12 20q-7 12 -13 23.5t-14 22.5q-2 4 -1.5 8.5t4.5 6.5l67 37q7 3 13 -3q11 -14 23 -32t21 -34q20 -37 36 -80t26 -85q28 20 61 36t71 29
q82 28 169 28q91 0 163.5 -27.5t131.5 -78.5h-1z" />
    <glyph glyph-name="seventhai" unicode="&#xf7;" horiz-adv-x="1360" 
d="M1273 257q0 -54 -21 -98.5t-63 -82.5q-38 -29 -77.5 -46t-82.5 -25h-73q-10 0 -10 10v512q0 32 -12 56.5t-34 43.5h1q-25 21 -52 30t-58 9q-22 0 -45.5 -5t-46.5 -16q-41 -20 -68 -65v-565q0 -10 -10 -10h-74q-10 0 -10 10v568q-15 21 -33.5 37.5t-41.5 27.5
q-44 18 -101 18q-20 0 -39.5 -2.5t-39.5 -10.5l-5 -4q-14 -6 -26 -12.5t-21 -15.5q-14 -11 -24 -24t-19 -29q-7 -13 -11 -29.5t-4 -33.5v-357q2 -16 9 -30q6 -12 19 -23.5t36 -16.5q8 -2 8 -10v-59q0 -10 -11 -10q-29 2 -56 12.5t-49 30.5v-1q-46 40 -50 104v360
q0 56 21 100.5t62 79.5q95 75 200 75q39 0 72.5 -6.5t60.5 -16.5q26 -11 48.5 -28t41.5 -37q18 20 38.5 34.5t46.5 27.5q27 12 58 19t64 7q46 0 94 -17q1 -1 4 -2.5t5 -1.5q18 -8 37 -18.5t30 -21.5q37 -26 57 -69q19 -44 19 -91v-437q6 1 11.5 2.5t10.5 3.5l-1 -1
q17 8 33 17t30 20q12 11 23 24.5t18 28.5q9 12 13 28t4 32v356q-2 17 -9 32q-6 13 -19 25t-36 17q-8 2 -8 10v59q0 10 11 10q29 -2 55.5 -14t48.5 -31q22 -18 35.5 -44t15.5 -58v-362z" />
    <glyph glyph-name="seventhai" unicode="&#xe57;" horiz-adv-x="1360" 
d="M1273 257q0 -54 -21 -98.5t-63 -82.5q-38 -29 -77.5 -46t-82.5 -25h-73q-10 0 -10 10v512q0 32 -12 56.5t-34 43.5h1q-25 21 -52 30t-58 9q-22 0 -45.5 -5t-46.5 -16q-41 -20 -68 -65v-565q0 -10 -10 -10h-74q-10 0 -10 10v568q-15 21 -33.5 37.5t-41.5 27.5
q-44 18 -101 18q-20 0 -39.5 -2.5t-39.5 -10.5l-5 -4q-14 -6 -26 -12.5t-21 -15.5q-14 -11 -24 -24t-19 -29q-7 -13 -11 -29.5t-4 -33.5v-357q2 -16 9 -30q6 -12 19 -23.5t36 -16.5q8 -2 8 -10v-59q0 -10 -11 -10q-29 2 -56 12.5t-49 30.5v-1q-46 40 -50 104v360
q0 56 21 100.5t62 79.5q95 75 200 75q39 0 72.5 -6.5t60.5 -16.5q26 -11 48.5 -28t41.5 -37q18 20 38.5 34.5t46.5 27.5q27 12 58 19t64 7q46 0 94 -17q1 -1 4 -2.5t5 -1.5q18 -8 37 -18.5t30 -21.5q37 -26 57 -69q19 -44 19 -91v-437q6 1 11.5 2.5t10.5 3.5l-1 -1
q17 8 33 17t30 20q12 11 23 24.5t18 28.5q9 12 13 28t4 32v356q-2 17 -9 32q-6 13 -19 25t-36 17q-8 2 -8 10v59q0 10 11 10q29 -2 55.5 -14t48.5 -31q22 -18 35.5 -44t15.5 -58v-362z" />
    <glyph glyph-name="eightthai" unicode="&#xf8;" horiz-adv-x="1060" 
d="M896 834l5 16l-1 -2l5 16q4 7 11 6l71 -18q5 -1 7.5 -4.5t0.5 -8.5q-5 -14 -10.5 -30.5t-11.5 -31.5q-29 -60 -74 -93t-105 -33h-338q-133 0 -223 -87q-90 -80 -90 -214q0 -63 22.5 -113.5t69.5 -87.5q40 -35 88.5 -50.5t105.5 -15.5v248q0 10 10 10h70q9 0 9 -9
q5 -58 27.5 -103t64.5 -80t90 -50.5t104 -15.5h144q10 0 10 -10v-64q0 -10 -10 -10h-150q-134 0 -228 64q-5 2 -10.5 6.5t-9.5 8.5l-5 4q-10 9 -16 13.5t-13 12.5v-99q0 -10 -10 -10h-80q-155 0 -255 82q-60 50 -90 118t-30 151q0 84 31.5 154t87.5 124q57 55 129 84t157 29
h338q70 0 102 94v-1z" />
    <glyph glyph-name="eightthai" unicode="&#xe58;" horiz-adv-x="1060" 
d="M896 834l5 16l-1 -2l5 16q4 7 11 6l71 -18q5 -1 7.5 -4.5t0.5 -8.5q-5 -14 -10.5 -30.5t-11.5 -31.5q-29 -60 -74 -93t-105 -33h-338q-133 0 -223 -87q-90 -80 -90 -214q0 -63 22.5 -113.5t69.5 -87.5q40 -35 88.5 -50.5t105.5 -15.5v248q0 10 10 10h70q9 0 9 -9
q5 -58 27.5 -103t64.5 -80t90 -50.5t104 -15.5h144q10 0 10 -10v-64q0 -10 -10 -10h-150q-134 0 -228 64q-5 2 -10.5 6.5t-9.5 8.5l-5 4q-10 9 -16 13.5t-13 12.5v-99q0 -10 -10 -10h-80q-155 0 -255 82q-60 50 -90 118t-30 151q0 84 31.5 154t87.5 124q57 55 129 84t157 29
h338q70 0 102 94v-1z" />
    <glyph glyph-name="ninethai" unicode="&#xf9;" horiz-adv-x="994" 
d="M822 831q18 34 43 66q6 6 13 3l68 -37q5 -2 5.5 -6.5t-2.5 -8.5q-8 -13 -17.5 -28t-17.5 -31v1l-4 -8q-25 -48 -41.5 -100.5t-28.5 -109.5q-2 -6 -8 -8l-74 -18q-4 -2 -9 3q-32 32 -66.5 55t-74.5 34q-72 28 -153 28q-130 0 -224 -81q-49 -40 -72 -89t-23 -112
q0 -35 6.5 -65.5t17.5 -57.5v1q14 -26 31.5 -50.5t40.5 -44.5q22 -21 48.5 -36.5t57.5 -27.5v1q32 -8 68 -14.5t71 -6.5q9 0 9 -10l-3 -64q0 -10 -9 -10q-93 0 -169.5 27.5t-138.5 78.5q-123 109 -123 279q0 83 30.5 150.5t90.5 118.5l-1 -1q57 52 129 79.5t163 27.5
q88 0 173 -28q38 -14 70.5 -29.5t60.5 -35.5q9 47 24.5 86t38.5 79z" />
    <glyph glyph-name="ninethai" unicode="&#xe59;" horiz-adv-x="994" 
d="M822 831q18 34 43 66q6 6 13 3l68 -37q5 -2 5.5 -6.5t-2.5 -8.5q-8 -13 -17.5 -28t-17.5 -31v1l-4 -8q-25 -48 -41.5 -100.5t-28.5 -109.5q-2 -6 -8 -8l-74 -18q-4 -2 -9 3q-32 32 -66.5 55t-74.5 34q-72 28 -153 28q-130 0 -224 -81q-49 -40 -72 -89t-23 -112
q0 -35 6.5 -65.5t17.5 -57.5v1q14 -26 31.5 -50.5t40.5 -44.5q22 -21 48.5 -36.5t57.5 -27.5v1q32 -8 68 -14.5t71 -6.5q9 0 9 -10l-3 -64q0 -10 -9 -10q-93 0 -169.5 27.5t-138.5 78.5q-123 109 -123 279q0 83 30.5 150.5t90.5 118.5l-1 -1q57 52 129 79.5t163 27.5
q88 0 173 -28q38 -14 70.5 -29.5t60.5 -35.5q9 47 24.5 86t38.5 79z" />
    <glyph glyph-name="angkhankhuthai" unicode="&#xfa;" horiz-adv-x="1362" 
d="M1224 19h-41v819h41v-819zM1087 861q9 0 9 -10v-894q0 -10 -9 -10h-63q-9 0 -9 10v709l-4 -3v1l-11 -10q-100 -73 -228 -73q-127 0 -227 73q-49 37 -72 85.5t-25 108.5q0 10 10 10h60q3 0 6 -2.5t3 -6.5q2 -22 6 -41t15 -34q7 -18 21.5 -33.5t31.5 -29.5q17 -12 36 -23.5
t40 -16.5q46 -16 95 -16q26 0 50 4t45 12q19 5 39 17t38 23q14 11 28 28.5t24 38.5q19 32 19 73q0 10 9 10h63z" />
    <glyph glyph-name="angkhankhuthai" unicode="&#xe5a;" horiz-adv-x="1362" 
d="M1224 19h-41v819h41v-819zM1087 861q9 0 9 -10v-894q0 -10 -9 -10h-63q-9 0 -9 10v709l-4 -3v1l-11 -10q-100 -73 -228 -73q-127 0 -227 73q-49 37 -72 85.5t-25 108.5q0 10 10 10h60q3 0 6 -2.5t3 -6.5q2 -22 6 -41t15 -34q7 -18 21.5 -33.5t31.5 -29.5q17 -12 36 -23.5
t40 -16.5q46 -16 95 -16q26 0 50 4t45 12q19 5 39 17t38 23q14 11 28 28.5t24 38.5q19 32 19 73q0 10 9 10h63z" />
    <glyph glyph-name="khomutthai" unicode="&#xfb;" horiz-adv-x="1352" 
d="M421 387q-36 -46 -86 -46q-22 0 -40.5 10t-32 26.5t-21 39t-7.5 46.5q0 23 7 45t20.5 38.5t32 26.5t41.5 10q24 0 41 -11q-5 48 -29 74t-58 26q-27 0 -50.5 -15.5t-40 -44t-26 -68.5t-9.5 -89q0 -62 12.5 -112t34.5 -85t52.5 -54t66.5 -19q42 0 79 26.5t64.5 75t43 115.5
t15.5 148v23l-2 38l32 41q4 5 9.5 4t7.5 -6l90 -200l62 187q2 7 9 7t9 -7l60 -161l54 128q2 7 8 6.5t9 -6.5l62 -131q14 24 26.5 48.5t25.5 47.5q3 5 8 5t9 -5l53 -82l12 26q2 5 9 5h228q7 0 9.5 -5t-1.5 -10l-49 -60q-3 -3 -8 -3h-137l-28 -38t-28 -37q-3 -4 -8 -4t-7 4
l-47 64l-63 -113q-3 -6 -8.5 -5.5t-8.5 6.5l-54 111l-65 -146q-3 -7 -9.5 -6.5t-8.5 7.5l-48 142l-56 -167q-2 -6 -8.5 -6.5t-8.5 5.5l-73 157q-13 -71 -39 -128.5t-61.5 -98t-78.5 -62.5t-89 -22q-51 0 -95 24t-76.5 67.5t-52.5 104t-23 132.5q0 72 14.5 131t41.5 101
t65.5 64.5t85.5 22.5q40 0 72.5 -16t54.5 -44.5t34 -69t12 -88.5q0 -89 -41 -145zM303 463q0 -20 9 -33t21 -13q16 0 24 13t8 33t-8 33t-24 13q-12 0 -21 -13t-9 -33z" />
    <glyph glyph-name="khomutthai" unicode="&#xe5b;" horiz-adv-x="1352" 
d="M421 387q-36 -46 -86 -46q-22 0 -40.5 10t-32 26.5t-21 39t-7.5 46.5q0 23 7 45t20.5 38.5t32 26.5t41.5 10q24 0 41 -11q-5 48 -29 74t-58 26q-27 0 -50.5 -15.5t-40 -44t-26 -68.5t-9.5 -89q0 -62 12.5 -112t34.5 -85t52.5 -54t66.5 -19q42 0 79 26.5t64.5 75t43 115.5
t15.5 148v23l-2 38l32 41q4 5 9.5 4t7.5 -6l90 -200l62 187q2 7 9 7t9 -7l60 -161l54 128q2 7 8 6.5t9 -6.5l62 -131q14 24 26.5 48.5t25.5 47.5q3 5 8 5t9 -5l53 -82l12 26q2 5 9 5h228q7 0 9.5 -5t-1.5 -10l-49 -60q-3 -3 -8 -3h-137l-28 -38t-28 -37q-3 -4 -8 -4t-7 4
l-47 64l-63 -113q-3 -6 -8.5 -5.5t-8.5 6.5l-54 111l-65 -146q-3 -7 -9.5 -6.5t-8.5 7.5l-48 142l-56 -167q-2 -6 -8.5 -6.5t-8.5 5.5l-73 157q-13 -71 -39 -128.5t-61.5 -98t-78.5 -62.5t-89 -22q-51 0 -95 24t-76.5 67.5t-52.5 104t-23 132.5q0 72 14.5 131t41.5 101
t65.5 64.5t85.5 22.5q40 0 72.5 -16t54.5 -44.5t34 -69t12 -88.5q0 -89 -41 -145zM303 463q0 -20 9 -33t21 -13q16 0 24 13t8 33t-8 33t-24 13q-12 0 -21 -13t-9 -33z" />
    <glyph glyph-name="saraulowthai" unicode="&#xfc;" 
d="M-154 -630q-10 0 -10 10v111h-86q-9 0 -9 10v59q0 10 9 10h158q10 0 10 -10v-180q0 -10 -10 -10h-62z" />
    <glyph glyph-name="saraulowthai" unicode="&#xf718;" 
d="M-154 -630q-10 0 -10 10v111h-86q-9 0 -9 10v59q0 10 9 10h158q10 0 10 -10v-180q0 -10 -10 -10h-62z" />
    <glyph glyph-name="sarauulowthai" unicode="&#xfd;" 
d="M-96 -558q0 -33 -12.5 -60.5t-37.5 -47.5q-49 -41 -113 -41q-61 0 -110 41q-26 20 -38.5 47.5t-12.5 60.5v119q0 10 10 10h62q10 0 10 -10v-118q0 -32 22 -51q13 -11 25.5 -15t26.5 -4h13q14 0 26.5 4t24.5 15q23 19 23 51v118q0 10 9 10h63q9 0 9 -10v-119v0z" />
    <glyph glyph-name="sarauulowthai" unicode="&#xf719;" 
d="M-96 -558q0 -33 -12.5 -60.5t-37.5 -47.5q-49 -41 -113 -41q-61 0 -110 41q-26 20 -38.5 47.5t-12.5 60.5v119q0 10 10 10h62q10 0 10 -10v-118q0 -32 22 -51q13 -11 25.5 -15t26.5 -4h13q14 0 26.5 4t24.5 15q23 19 23 51v118q0 10 9 10h63q9 0 9 -10v-119v0z" />
    <glyph glyph-name="phinthulowthai" unicode="&#xfe;" 
d="M-124 -432q27 0 45.5 -17t18.5 -44q0 -29 -18.5 -46.5t-45.5 -17.5t-45 17.5t-18 46.5q0 27 19 44t44 17z" />
    <glyph glyph-name="phinthulowthai" unicode="&#xf71a;" 
d="M-124 -432q27 0 45.5 -17t18.5 -44q0 -29 -18.5 -46.5t-45.5 -17.5t-45 17.5t-18 46.5q0 27 19 44t44 17z" />
    <glyph glyph-name="Naipol" unicode="&#xff;" horiz-adv-x="1942" 
d="M909 600q4 0 7 -3t3 -6l3 -315q0 -10 -10 -10h-103q-10 0 -10 10l-2 229l-56 -232q-2 -8 -10 -8l-172 -1q-7 0 -9 8l-60 229l2 -227q0 -10 -10 -10l-103 -1q-10 0 -10 10l-2 314q0 9 10 9l197 2q8 0 10 -6l61 -226l59 225q2 7 9 7zM1426 428q23 -36 47.5 -72t47.5 -71
q4 -5 1.5 -10t-8.5 -5l-126 -1q-6 0 -8 5l-34 54q-10 -14 -18.5 -27.5t-17.5 -27.5q-3 -5 -8 -5h-70l-320 -2q-6 0 -8.5 4.5t-0.5 9.5l157 315q3 5 9 5.5t9 -5.5l131 -251q14 22 28.5 41.5t28.5 42.5l-104 159q-4 5 -1.5 9.5t9.5 4.5l121 1q6 0 9 -5l47 -75l50 76q2 4 7 4
l120 1q7 0 9.5 -5t-1.5 -10z" />
    <glyph glyph-name="lochula.short" horiz-adv-x="1004" 
d="M914 721q10 0 10 -10v-63q0 -10 -10 -10h-61v-370q0 -57 -16 -104.5t-43 -86.5q-26 -33 -65.5 -52.5t-80.5 -24.5q-14 0 -24.5 4.5t-17 10.5t-10.5 12t-5 10q-1 0 -1 1v3l-13 44l-114 364l-118 -380l-14 -40q-4 -9 -9 -15q-5 -5 -13 -9.5t-20 -4.5q-45 5 -86.5 25
t-68.5 55q-29 39 -44.5 85.5t-15.5 105.5v579q0 10 10 10h63q10 0 10 -10v-579q0 -38 8 -71t28 -59q27 -48 69 -58l153 534q2 7 10 7h75q8 0 10 -7l155 -536q23 5 39.5 20.5t31.5 38.5q18 26 26 58t8 70v370h-119q-10 0 -10 10v105q0 10 10 10h61q10 0 10 -10v-32h48v129
q0 10 10 10h63q10 0 10 -10v-129h61z" />
    <glyph glyph-name="saraamleft" horiz-adv-x="721" 
d="M-490 1061q0 28 10 52.5t28 42.5t42.5 28t52.5 10t52 -10t42 -28t28 -42.5t10 -52.5t-10 -52t-28 -42t-42 -28t-52 -10t-52.5 10t-42.5 28t-28 42t-10 52zM-415 1060q0 -24 17 -40t41 -16t40 16t16 40t-16 41t-40 17t-41 -17t-17 -41zM28 704l54 -30q8 -4 12 3
q81 104 232 104q53 0 98 -14.5t80 -40.5q31 -29 49.5 -68.5t18.5 -87.5v-555q0 -10 10 -10h60q10 0 10 10v574q0 61 -26 114t-74 89q-45 32 -102 50.5t-124 18.5q-95 0 -170.5 -35t-130.5 -107z" />
    <glyph glyph-name="uni25CC" unicode="&#x25cc;" horiz-adv-x="1049" 
d="M517 113q23 0 40.5 -16.5t17.5 -40.5q0 -22 -17.5 -39t-40.5 -17q-24 0 -40 17t-16 39q0 24 16 40.5t40 16.5zM889 489q25 0 41.5 -17t16.5 -39q0 -26 -15.5 -42.5t-42.5 -16.5q-23 0 -39 16.5t-16 42.5q0 22 16 39t39 17zM143 489q10 0 20 -4.5t18 -12.5t13 -18t5 -21
q0 -26 -17 -42.5t-39 -16.5q-25 0 -41.5 16.5t-16.5 42.5q0 22 16.5 39t41.5 17zM517 862q23 0 40.5 -15.5t17.5 -40.5q0 -22 -17.5 -38.5t-40.5 -16.5q-24 0 -40 16.5t-16 38.5q0 25 16 40.5t40 15.5zM254 751q25 0 41.5 -15.5t16.5 -42.5q0 -24 -16.5 -40t-41.5 -16
q-23 0 -39.5 16t-16.5 40q0 27 16.5 42.5t39.5 15.5zM780 751q21 0 38.5 -15.5t17.5 -42.5q0 -24 -16 -40t-40 -16q-25 0 -41.5 16t-16.5 40q0 27 16.5 42.5t41.5 15.5zM780 225q21 0 38.5 -15.5t17.5 -40.5q0 -24 -16 -40t-40 -16q-25 0 -41.5 16t-16.5 40q0 25 16.5 40.5
t41.5 15.5zM254 225q25 0 41.5 -15.5t16.5 -40.5q0 -24 -16.5 -40t-41.5 -16q-23 0 -39.5 16t-16.5 40q0 25 16.5 40.5t39.5 15.5z" />
    <glyph glyph-name="yamakkanleftthai" 
d="M-646 1101q0 79 99 132q-23 23 -23 55q0 36 22 66.5t57.5 52.5t80 34.5t89.5 12.5q32 0 63.5 -4.5t66.5 -16.5l18 -8q5 -3 5 -9v-63q0 -12 -12 -9q-25 8 -43 14t-34 9.5t-31 5.5t-33 2q-26 0 -55.5 -7t-55 -19t-42.5 -28t-17 -33q0 -8 17 -16t49 -16l24 -8q3 0 5.5 -3
t2.5 -6v-50q0 -10 -10 -10h-32q-1 0 -3 0.5t-4 0.5q-3 1 -6.5 1h-5.5q-20 0 -39.5 -9t-35.5 -21.5t-25.5 -26.5t-9.5 -23q0 -27 24.5 -44.5t60.5 -17.5q78 0 108 55v-1l7 16q2 6 9 6h64q5 0 7.5 -4.5t0.5 -9.5l-21 -47q-51 -94 -175 -94q-37 0 -67.5 11t-52.5 29.5
t-34.5 44.5t-12.5 56z" />
    <glyph glyph-name="ZWSP" unicode="&#x200b;" 
 />
  </font>
</defs>
</svg>
