<?xml version="1.0" encoding="utf-8"?>
<!-- Generator: Adobe Illustrator 18.1.1, SVG Export Plug-In . SVG Version: 6.00 Build 0)  -->
<!DOCTYPE svg PUBLIC "-//W3C//DTD SVG 1.1//EN" "http://www.w3.org/Graphics/SVG/1.1/DTD/svg11.dtd">
<svg version="1.1" id="Layer_1" xmlns="http://www.w3.org/2000/svg" xmlns:xlink="http://www.w3.org/1999/xlink" x="0px" y="0px"
	 viewBox="0 0 1280 800" enable-background="new 0 0 1280 800" xml:space="preserve">
<path d="M1102.7,677.1c0,15.7-9.5,28.5-21.2,28.5H199.3c-11.7,0-21.2-12.8-21.2-28.5v-566c0-15.7,9.5-28.5,21.2-28.5h882.2
	c11.7,0,21.2,12.8,21.2,28.5V677.1z"/>
<g>
	<defs>
		<rect id="SVGID_1_" x="215" y="116.8" width="853.4" height="526.1"/>
	</defs>
	<clipPath id="SVGID_2_">
		<use xlink:href="#SVGID_1_"  overflow="visible"/>
	</clipPath>
	<g clip-path="url(#SVGID_2_)">
		
			<image overflow="visible" width="1366" height="3734" xlink:href="E93491A7.jpg"  transform="matrix(0.6245 0 0 0.6245 214.9542 116.4324)">
		</image>
	</g>
</g>
<g>
	<g>
		<path fill="#5F6767" d="M20.6,714.2c0,0-7.7,14.3,47,26.3h1144.2c0,0,38.3-2.5,48.4-20.5l0.1-9.9L20.6,714.2z"/>
		<linearGradient id="SVGID_3_" gradientUnits="userSpaceOnUse" x1="20.086" y1="703.1108" x2="1260.7069" y2="703.1108">
			<stop  offset="0" style="stop-color:#999C9D"/>
			<stop  offset="9.591109e-004" style="stop-color:#A5A7A9"/>
			<stop  offset="3.722234e-003" style="stop-color:#C2C3C5"/>
			<stop  offset="6.672361e-003" style="stop-color:#D9D8DA"/>
			<stop  offset="9.857776e-003" style="stop-color:#E9E7EA"/>
			<stop  offset="1.344703e-002" style="stop-color:#F2F0F3"/>
			<stop  offset="1.829270e-002" style="stop-color:#F5F3F6"/>
			<stop  offset="4.878050e-002" style="stop-color:#DFE1E3"/>
			<stop  offset="0.189" style="stop-color:#D1D1D1"/>
			<stop  offset="0.5061" style="stop-color:#E3E5E7"/>
			<stop  offset="0.872" style="stop-color:#D1D1D1"/>
			<stop  offset="0.9512" style="stop-color:#DFE1E3"/>
			<stop  offset="0.9878" style="stop-color:#F5F3F6"/>
			<stop  offset="1" style="stop-color:#999C9D"/>
		</linearGradient>
		<path fill="url(#SVGID_3_)" d="M20.9,685.3h1239.7v31.8c0,0,1.9,4.3-12.7,3.2H32.6c0,0-11.4,3.2-12.5-4.2L20.9,685.3z"/>
		<path fill="#5F6767" d="M1203,703.8c0,1.2-0.8,2.2-1.8,2.2H1159c-1,0-1.8-1-1.8-2.2l0,0c0-1.2,0.8-2.2,1.8-2.2h42.2
			C1202.2,701.6,1203,702.6,1203,703.8L1203,703.8z"/>
	</g>
	<linearGradient id="SVGID_4_" gradientUnits="userSpaceOnUse" x1="640.4277" y1="703.0904" x2="640.4277" y2="685.5161">
		<stop  offset="0.3415" style="stop-color:#676B6C"/>
		<stop  offset="0.3611" style="stop-color:#707475"/>
		<stop  offset="0.4574" style="stop-color:#989B9C"/>
		<stop  offset="0.5524" style="stop-color:#B7B9BB"/>
		<stop  offset="0.6444" style="stop-color:#CDCFD1"/>
		<stop  offset="0.7321" style="stop-color:#DADDDE"/>
		<stop  offset="0.811" style="stop-color:#DFE1E3"/>
		<stop  offset="0.9817" style="stop-color:#E3E5E7"/>
	</linearGradient>
	<path fill="url(#SVGID_4_)" d="M556.6,685.5c0,0-4.8,15.9,11.1,17.5h143.8c0,0,15.3,2,13.3-17L556.6,685.5z"/>
	<g>
		<linearGradient id="SVGID_5_" gradientUnits="userSpaceOnUse" x1="559.9587" y1="701.5435" x2="559.9587" y2="685.1157">
			<stop  offset="2.439020e-002" style="stop-color:#5F6767"/>
			<stop  offset="0.4756" style="stop-color:#676B6C"/>
			<stop  offset="0.5137" style="stop-color:#717576"/>
			<stop  offset="0.6192" style="stop-color:#878A8B"/>
			<stop  offset="0.7202" style="stop-color:#949899"/>
			<stop  offset="0.811" style="stop-color:#999C9D"/>
		</linearGradient>
		<path fill="url(#SVGID_5_)" d="M557.4,685.5h0.1l0.1-0.4l-1.8,0c0,0-4.3,13.8,9.1,16.4C553.4,698.2,557.4,685.5,557.4,685.5z"/>
		<linearGradient id="SVGID_6_" gradientUnits="userSpaceOnUse" x1="645.2654" y1="702.3496" x2="645.2654" y2="686.0015">
			<stop  offset="2.439020e-002" style="stop-color:#5F6767"/>
			<stop  offset="0.4756" style="stop-color:#676B6C"/>
			<stop  offset="0.5137" style="stop-color:#717576"/>
			<stop  offset="0.6192" style="stop-color:#878A8B"/>
			<stop  offset="0.7202" style="stop-color:#949899"/>
			<stop  offset="0.811" style="stop-color:#999C9D"/>
		</linearGradient>
		<path fill="url(#SVGID_6_)" d="M725.6,686l-1.6,0v0.4c1.1,17.9-13.3,15.5-13.3,15.5H566.9c-0.7-0.1-1.4-0.2-2.1-0.3
			c1.1,0.3,2.3,0.6,3.7,0.7h143.8C712.3,702.2,727.2,704.8,725.6,686z"/>
		<linearGradient id="SVGID_7_" gradientUnits="userSpaceOnUse" x1="724.0257" y1="686.3825" x2="724.0257" y2="686.0015">
			<stop  offset="2.439020e-002" style="stop-color:#5F6767"/>
			<stop  offset="0.4756" style="stop-color:#676B6C"/>
			<stop  offset="0.5137" style="stop-color:#717576"/>
			<stop  offset="0.6192" style="stop-color:#878A8B"/>
			<stop  offset="0.7202" style="stop-color:#949899"/>
			<stop  offset="0.811" style="stop-color:#999C9D"/>
		</linearGradient>
		<path fill="url(#SVGID_7_)" d="M724,686.4V686h0C724,686.1,724,686.3,724,686.4z"/>
	</g>
</g>
<path opacity="0.16" fill="#F2F2F2" d="M179,684H20.9l-0.8,31.4c0.1,0.4,0.1,1.3,0.2,1.6c0.7,4.8,7.4,16,47.3,24h1144.2
	c0,0,38.3-2.7,48.4-20.8l0.2-1.4c0.8-0.8,0.6-1.8,0.6-1.8V684h-159.2c0.6-2-0.8-4.1-0.8-6.9v-566c0-15.7-8.6-29.1-20.4-29.1"/>
</svg>
